SeanSlab-CompressedThin.ufo
<glyph name="exclam" format="1">
  <advance width="214"/>
  <unicode hex="0021"/>
  <outline>
    <contour>
      <point x="120" y="229" type="line"/>
      <point x="123" y="722" type="line"/>
      <point x="91" y="722" type="line"/>
      <point x="93" y="229" type="line"/>
    </contour>
    <contour>
      <point x="126" y="12" type="curve"/>
      <point x="126" y="24"/>
      <point x="119" y="30"/>
      <point x="107" y="30" type="curve"/>
      <point x="96" y="30"/>
      <point x="90" y="23"/>
      <point x="90" y="12" type="curve"/>
      <point x="129" y="12"/>
      <point x="86" y="12"/>
      <point x="126" y="12" type="curve"/>
      <point x="126" y="1"/>
      <point x="119" y="-5"/>
      <point x="107" y="-5" type="curve"/>
      <point x="96" y="-5"/>
      <point x="90" y="1"/>
      <point x="90" y="12" type="curve"/>
      <point x="129" y="12"/>
      <point x="86" y="12"/>
    </contour>
  </outline>
</glyph>
<glyph name="quotedbl" format="1">
  <advance width="330"/>
  <unicode hex="0022"/>
  <outline>
    <contour>
      <point x="119" y="517" type="line"/>
      <point x="122" y="705" type="line"/>
      <point x="91" y="705" type="line"/>
      <point x="94" y="517" type="line"/>
    </contour>
    <contour>
      <point x="236" y="517" type="line"/>
      <point x="239" y="705" type="line"/>
      <point x="208" y="705" type="line"/>
      <point x="211" y="517" type="line"/>
    </contour>
  </outline>
</glyph>
<glyph name="numbersign" format="1">
  <advance width="451"/>
  <unicode hex="0023"/>
  <outline>
    <contour>
      <point x="48" y="247" type="line"/>
      <point x="354" y="247" type="line"/>
      <point x="359" y="270" type="line"/>
      <point x="52" y="270" type="line"/>
    </contour>
    <contour>
      <point x="92" y="491" type="line"/>
      <point x="398" y="491" type="line"/>
      <point x="403" y="513" type="line"/>
      <point x="96" y="513" type="line"/>
    </contour>
    <contour>
      <point x="248" y="39" type="line"/>
      <point x="379" y="722" type="line"/>
      <point x="354" y="722" type="line"/>
      <point x="223" y="39" type="line"/>
    </contour>
    <contour>
      <point x="102" y="46" type="line"/>
      <point x="230" y="722" type="line"/>
      <point x="205" y="722" type="line"/>
      <point x="77" y="46" type="line"/>
    </contour>
  </outline>
</glyph>
<glyph name="dollar" format="1">
  <advance width="380"/>
  <unicode hex="0024"/>
  <outline>
    <contour>
      <point x="82" y="99" type="curve"/>
      <point x="82" y="219"/>
      <point x="82" y="99"/>
      <point x="82" y="219" type="curve"/>
      <point x="60" y="219"/>
      <point x="82" y="219"/>
      <point x="60" y="219" type="curve"/>
      <point x="60" y="99"/>
      <point x="60" y="219"/>
      <point x="60" y="99" type="curve"/>
      <point x="82" y="99"/>
      <point x="60" y="99"/>
    </contour>
    <contour>
      <point x="287" y="631" type="curve"/>
      <point x="287" y="511"/>
      <point x="287" y="631"/>
      <point x="287" y="511" type="curve"/>
      <point x="310" y="511"/>
      <point x="287" y="511"/>
      <point x="310" y="511" type="curve"/>
      <point x="310" y="631"/>
      <point x="310" y="511"/>
      <point x="310" y="631" type="curve"/>
      <point x="287" y="631"/>
      <point x="310" y="631"/>
    </contour>
    <contour>
      <point x="193" y="-43" type="curve"/>
      <point x="193" y="-9"/>
      <point x="193" y="25"/>
      <point x="193" y="59" type="curve"/>
      <point x="168" y="59"/>
      <point x="193" y="59"/>
      <point x="168" y="59" type="curve"/>
      <point x="168" y="25"/>
      <point x="168" y="-9"/>
      <point x="168" y="-43" type="curve"/>
      <point x="193" y="-43"/>
      <point x="168" y="-43"/>
    </contour>
    <contour>
      <point x="200" y="671" type="curve"/>
      <point x="200" y="705"/>
      <point x="200" y="739"/>
      <point x="200" y="773" type="curve"/>
      <point x="175" y="773"/>
      <point x="200" y="773"/>
      <point x="175" y="773" type="curve"/>
      <point x="175" y="739"/>
      <point x="175" y="705"/>
      <point x="175" y="671" type="curve"/>
      <point x="200" y="671"/>
      <point x="175" y="671"/>
    </contour>
    <contour>
      <point x="60" y="99" type="curve"/>
      <point x="90" y="73"/>
      <point x="130" y="48"/>
      <point x="180" y="48" type="curve"/>
      <point x="269" y="48"/>
      <point x="322" y="118"/>
      <point x="322" y="198" type="curve"/>
      <point x="322" y="276"/>
      <point x="269" y="335"/>
      <point x="197" y="385" type="curve"/>
      <point x="134" y="429"/>
      <point x="98" y="474"/>
      <point x="98" y="543" type="curve"/>
      <point x="98" y="605"/>
      <point x="128" y="661"/>
      <point x="191" y="661" type="curve"/>
      <point x="235" y="661"/>
      <point x="264" y="642"/>
      <point x="298" y="612" type="curve"/>
      <point x="310" y="631"/>
      <point x="298" y="612"/>
      <point x="310" y="631" type="curve"/>
      <point x="274" y="664"/>
      <point x="241" y="683"/>
      <point x="192" y="683" type="curve"/>
      <point x="113" y="683"/>
      <point x="71" y="618"/>
      <point x="71" y="543" type="curve"/>
      <point x="71" y="467"/>
      <point x="112" y="413"/>
      <point x="182" y="365" type="curve"/>
      <point x="248" y="321"/>
      <point x="297" y="268"/>
      <point x="297" y="197" type="curve"/>
      <point x="297" y="128"/>
      <point x="255" y="70"/>
      <point x="182" y="70" type="curve"/>
      <point x="137" y="70"/>
      <point x="102" y="96"/>
      <point x="73" y="119" type="curve"/>
      <point x="60" y="99"/>
      <point x="73" y="119"/>
    </contour>
  </outline>
</glyph>
<glyph name="percent" format="1">
  <advance width="583"/>
  <unicode hex="0025"/>
  <outline>
    <contour>
      <point x="176" y="-92" type="line"/>
      <point x="434" y="757" type="line"/>
      <point x="405" y="757" type="line"/>
      <point x="148" y="-92" type="line"/>
    </contour>
    <contour>
      <point x="65" y="557" type="curve"/>
      <point x="65" y="655"/>
      <point x="69" y="742"/>
      <point x="151" y="742" type="curve"/>
      <point x="233" y="743"/>
      <point x="237" y="656"/>
      <point x="237" y="558" type="curve"/>
      <point x="237" y="460"/>
      <point x="235" y="371"/>
      <point x="153" y="371" type="curve"/>
      <point x="70" y="371"/>
      <point x="65" y="458"/>
      <point x="65" y="557" type="curve"/>
      <point x="55" y="557"/>
      <point x="50" y="557"/>
      <point x="41" y="557" type="curve"/>
      <point x="41" y="446"/>
      <point x="57" y="349"/>
      <point x="152" y="349" type="curve"/>
      <point x="247" y="349"/>
      <point x="262" y="447"/>
      <point x="262" y="559" type="curve"/>
      <point x="262" y="670"/>
      <point x="246" y="765"/>
      <point x="152" y="765" type="curve"/>
      <point x="57" y="765"/>
      <point x="41" y="669"/>
      <point x="41" y="557" type="curve"/>
      <point x="50" y="557"/>
      <point x="55" y="557"/>
    </contour>
    <contour>
      <point x="345" y="110" type="curve"/>
      <point x="345" y="208"/>
      <point x="349" y="295"/>
      <point x="431" y="295" type="curve"/>
      <point x="513" y="296"/>
      <point x="518" y="209"/>
      <point x="518" y="111" type="curve"/>
      <point x="518" y="13"/>
      <point x="515" y="-76"/>
      <point x="433" y="-76" type="curve"/>
      <point x="350" y="-76"/>
      <point x="345" y="11"/>
      <point x="345" y="110" type="curve"/>
      <point x="335" y="110"/>
      <point x="330" y="110"/>
      <point x="321" y="110" type="curve"/>
      <point x="321" y="-2"/>
      <point x="337" y="-98"/>
      <point x="432" y="-98" type="curve"/>
      <point x="527" y="-98"/>
      <point x="543" y="-1"/>
      <point x="543" y="112" type="curve"/>
      <point x="543" y="223"/>
      <point x="526" y="318"/>
      <point x="432" y="318" type="curve"/>
      <point x="337" y="318"/>
      <point x="321" y="222"/>
      <point x="321" y="110" type="curve"/>
      <point x="330" y="110"/>
      <point x="335" y="110"/>
    </contour>
  </outline>
</glyph>
<glyph name="ampersand" format="1">
  <advance width="441"/>
  <unicode hex="0026"/>
  <outline>
    <contour>
      <point x="418" y="4" type="line"/>
      <point x="350" y="119"/>
      <point x="285" y="235"/>
      <point x="216" y="349" type="curve"/>
      <point x="175" y="424"/>
      <point x="129" y="490"/>
      <point x="129" y="577" type="curve"/>
      <point x="129" y="642"/>
      <point x="146" y="703"/>
      <point x="196" y="703" type="curve"/>
      <point x="249" y="703"/>
      <point x="267" y="645"/>
      <point x="267" y="579" type="curve"/>
      <point x="267" y="499"/>
      <point x="228" y="444"/>
      <point x="168" y="390" type="curve"/>
      <point x="103" y="327"/>
      <point x="62" y="266"/>
      <point x="62" y="177" type="curve"/>
      <point x="62" y="79"/>
      <point x="103" y="-5"/>
      <point x="190" y="-5" type="curve"/>
      <point x="340" y="-5"/>
      <point x="366" y="155"/>
      <point x="395" y="318" type="curve"/>
      <point x="373" y="323"/>
      <point x="395" y="318"/>
      <point x="373" y="323" type="curve"/>
      <point x="346" y="172"/>
      <point x="318" y="19"/>
      <point x="191" y="19" type="curve"/>
      <point x="120" y="19"/>
      <point x="89" y="93"/>
      <point x="89" y="177" type="curve"/>
      <point x="89" y="257"/>
      <point x="127" y="314"/>
      <point x="185" y="368" type="curve"/>
      <point x="249" y="430"/>
      <point x="293" y="492"/>
      <point x="293" y="580" type="curve"/>
      <point x="293" y="659"/>
      <point x="266" y="727"/>
      <point x="197" y="727" type="curve"/>
      <point x="128" y="727"/>
      <point x="103" y="657"/>
      <point x="103" y="577" type="curve"/>
      <point x="103" y="485"/>
      <point x="150" y="415"/>
      <point x="197" y="336" type="curve"/>
      <point x="264" y="220"/>
      <point x="328" y="105"/>
      <point x="397" y="-9" type="curve"/>
    </contour>
  </outline>
</glyph>
<glyph name="quotesingle" format="1">
  <advance width="213"/>
  <unicode hex="0027"/>
  <outline>
    <contour>
      <point x="119" y="517" type="line"/>
      <point x="122" y="705" type="line"/>
      <point x="91" y="705" type="line"/>
      <point x="94" y="517" type="line"/>
    </contour>
  </outline>
</glyph>
<glyph name="parenleft" format="1">
  <advance width="240"/>
  <unicode hex="0028"/>
  <outline>
    <contour>
      <point x="225" y="-237" type="curve"/>
      <point x="105" y="-49"/>
      <point x="83" y="109"/>
      <point x="83" y="326" type="curve"/>
      <point x="83" y="543"/>
      <point x="108" y="700"/>
      <point x="224" y="890" type="curve"/>
      <point x="207" y="903"/>
      <point x="224" y="890"/>
      <point x="207" y="903" type="curve"/>
      <point x="86" y="712"/>
      <point x="57" y="551"/>
      <point x="57" y="326" type="curve"/>
      <point x="57" y="101"/>
      <point x="87" y="-59"/>
      <point x="207" y="-251" type="curve"/>
      <point x="225" y="-237"/>
      <point x="207" y="-251"/>
    </contour>
  </outline>
</glyph>
<glyph name="parenright" format="1">
  <advance width="248"/>
  <unicode hex="0029"/>
  <outline>
    <contour>
      <point x="32" y="-267" type="curve"/>
      <point x="154" y="-67"/>
      <point x="192" y="95"/>
      <point x="192" y="327" type="curve"/>
      <point x="192" y="552"/>
      <point x="161" y="713"/>
      <point x="34" y="903" type="curve"/>
      <point x="16" y="890"/>
      <point x="34" y="903"/>
      <point x="16" y="890" type="curve"/>
      <point x="138" y="701"/>
      <point x="165" y="544"/>
      <point x="165" y="326" type="curve"/>
      <point x="165" y="102"/>
      <point x="129" y="-57"/>
      <point x="13" y="-252" type="curve"/>
      <point x="32" y="-267"/>
      <point x="13" y="-252"/>
    </contour>
  </outline>
</glyph>
<glyph name="asterisk" format="1">
  <advance width="503"/>
  <unicode hex="002A"/>
  <outline>
    <contour>
      <point x="265" y="510" type="line"/>
      <point x="268" y="698" type="line"/>
      <point x="237" y="698" type="line"/>
      <point x="240" y="510" type="line"/>
    </contour>
    <contour>
      <point x="238" y="510" type="line"/>
      <point x="419" y="565" type="line"/>
      <point x="409" y="594" type="line"/>
      <point x="231" y="532" type="line"/>
    </contour>
    <contour>
      <point x="230" y="535" type="line"/>
      <point x="339" y="381" type="line"/>
      <point x="363" y="399" type="line"/>
      <point x="250" y="549" type="line"/>
    </contour>
    <contour>
      <point x="251" y="551" type="line"/>
      <point x="138" y="401" type="line"/>
      <point x="162" y="382" type="line"/>
      <point x="270" y="537" type="line"/>
    </contour>
    <contour>
      <point x="272" y="535" type="line"/>
      <point x="94" y="596" type="line"/>
      <point x="85" y="567" type="line"/>
      <point x="265" y="512" type="line"/>
    </contour>
  </outline>
</glyph>
<glyph name="comma" format="1">
  <advance width="179"/>
  <unicode hex="002C"/>
  <outline>
    <contour>
      <point x="31" y="-107" type="line"/>
      <point x="77" y="-107"/>
      <point x="92" y="-62"/>
      <point x="92" y="-20" type="curve"/>
      <point x="92" y="10"/>
      <point x="88" y="35"/>
      <point x="67" y="35" type="curve"/>
      <point x="54" y="35"/>
      <point x="47" y="28"/>
      <point x="47" y="16" type="curve"/>
      <point x="47" y="6"/>
      <point x="51" y="0"/>
      <point x="62" y="-5" type="curve"/>
      <point x="62" y="-26"/>
      <point x="64" y="-82"/>
      <point x="31" y="-82" type="curve"/>
    </contour>
  </outline>
</glyph>
<glyph name="hyphen" format="1">
  <advance width="346"/>
  <unicode hex="002D"/>
  <outline>
    <contour>
      <point x="86" y="260" type="curve"/>
      <point x="144" y="260"/>
      <point x="203" y="260"/>
      <point x="260" y="260" type="curve"/>
      <point x="260" y="285"/>
      <point x="260" y="260"/>
      <point x="260" y="285" type="curve"/>
      <point x="203" y="285"/>
      <point x="144" y="285"/>
      <point x="86" y="285" type="curve"/>
      <point x="86" y="260"/>
      <point x="86" y="285"/>
    </contour>
  </outline>
</glyph>
<glyph name="period" format="1">
  <advance width="202"/>
  <unicode hex="002E"/>
  <outline>
    <contour>
      <point x="119" y="12" type="curve"/>
      <point x="119" y="24"/>
      <point x="112" y="30"/>
      <point x="100" y="30" type="curve"/>
      <point x="89" y="30"/>
      <point x="83" y="23"/>
      <point x="83" y="12" type="curve"/>
      <point x="122" y="12"/>
      <point x="80" y="12"/>
      <point x="119" y="12" type="curve"/>
      <point x="119" y="1"/>
      <point x="112" y="-5"/>
      <point x="100" y="-5" type="curve"/>
      <point x="89" y="-5"/>
      <point x="83" y="1"/>
      <point x="83" y="12" type="curve"/>
      <point x="122" y="12"/>
      <point x="80" y="12"/>
    </contour>
  </outline>
</glyph>
<glyph name="slash" format="1">
  <advance width="359"/>
  <unicode hex="002F"/>
  <outline>
    <contour>
      <point x="64" y="-66" type="curve"/>
      <point x="149" y="236"/>
      <point x="235" y="540"/>
      <point x="321" y="842" type="curve"/>
      <point x="296" y="842"/>
      <point x="321" y="842"/>
      <point x="296" y="842" type="curve"/>
      <point x="209" y="540"/>
      <point x="124" y="236"/>
      <point x="38" y="-66" type="curve"/>
      <point x="64" y="-66"/>
      <point x="38" y="-66"/>
    </contour>
  </outline>
</glyph>
<glyph name="zero" format="1">
  <advance width="484"/>
  <unicode hex="0030"/>
  <outline>
    <contour>
      <point x="93" y="360" type="curve"/>
      <point x="93" y="541"/>
      <point x="96" y="703"/>
      <point x="240" y="703" type="curve"/>
      <point x="387" y="703"/>
      <point x="389" y="542"/>
      <point x="389" y="363" type="curve"/>
      <point x="389" y="183"/>
      <point x="382" y="19"/>
      <point x="244" y="19" type="curve"/>
      <point x="106" y="19"/>
      <point x="93" y="180"/>
      <point x="93" y="360" type="curve"/>
      <point x="69" y="360"/>
      <point x="91" y="360"/>
      <point x="67" y="360" type="curve"/>
      <point x="67" y="164"/>
      <point x="78" y="-5"/>
      <point x="242" y="-5" type="curve"/>
      <point x="407" y="-5"/>
      <point x="415" y="166"/>
      <point x="415" y="363" type="curve"/>
      <point x="415" y="558"/>
      <point x="406" y="727"/>
      <point x="244" y="727" type="curve"/>
      <point x="78" y="727"/>
      <point x="67" y="557"/>
      <point x="67" y="360" type="curve"/>
      <point x="91" y="360"/>
      <point x="69" y="360"/>
    </contour>
  </outline>
</glyph>
<glyph name="one" format="1">
  <advance width="313"/>
  <unicode hex="0031"/>
  <outline>
    <contour>
      <point x="180" y="0" type="curve"/>
      <point x="216" y="0"/>
      <point x="250" y="0"/>
      <point x="286" y="0" type="curve"/>
      <point x="286" y="23"/>
      <point x="286" y="0"/>
      <point x="286" y="23" type="curve"/>
      <point x="180" y="23"/>
      <point x="286" y="23"/>
      <point x="180" y="23" type="curve"/>
      <point x="180" y="0"/>
      <point x="180" y="23"/>
    </contour>
    <contour>
      <point x="180" y="23" type="curve"/>
      <point x="65" y="23"/>
      <point x="180" y="23"/>
      <point x="65" y="23" type="curve"/>
      <point x="65" y="0"/>
      <point x="65" y="23"/>
      <point x="65" y="0" type="curve"/>
      <point x="104" y="0"/>
      <point x="142" y="0"/>
      <point x="180" y="0" type="curve"/>
      <point x="180" y="23"/>
      <point x="180" y="0"/>
    </contour>
    <contour>
      <point x="64" y="542" type="curve"/>
      <point x="190" y="715"/>
      <point x="64" y="542"/>
      <point x="190" y="715" type="curve"/>
      <point x="167" y="722"/>
      <point x="190" y="715"/>
      <point x="167" y="722" type="curve"/>
      <point x="45" y="557"/>
      <point x="167" y="722"/>
      <point x="45" y="557" type="curve"/>
      <point x="64" y="542"/>
      <point x="45" y="557"/>
    </contour>
    <contour>
      <point x="192" y="0" type="curve"/>
      <point x="192" y="241"/>
      <point x="192" y="481"/>
      <point x="192" y="722" type="curve"/>
      <point x="167" y="722"/>
      <point x="192" y="722"/>
      <point x="167" y="722" type="curve"/>
      <point x="167" y="481"/>
      <point x="167" y="241"/>
      <point x="167" y="0" type="curve"/>
      <point x="192" y="0"/>
      <point x="167" y="0"/>
    </contour>
  </outline>
</glyph>
<glyph name="two" format="1">
  <advance width="378"/>
  <unicode hex="0032"/>
  <outline>
    <contour>
      <point x="306" y="23" type="curve"/>
      <point x="306" y="143"/>
      <point x="306" y="23"/>
      <point x="306" y="142" type="curve"/>
      <point x="284" y="142"/>
      <point x="306" y="142"/>
      <point x="284" y="142" type="curve"/>
      <point x="284" y="23"/>
      <point x="284" y="143"/>
      <point x="284" y="23" type="curve"/>
      <point x="306" y="23"/>
      <point x="284" y="23"/>
    </contour>
    <contour>
      <point x="50" y="0" type="curve"/>
      <point x="150" y="0"/>
      <point x="218" y="0"/>
      <point x="306" y="0" type="curve"/>
      <point x="306" y="23"/>
      <point x="306" y="0"/>
      <point x="306" y="23" type="curve"/>
      <point x="214" y="23"/>
      <point x="141" y="23"/>
      <point x="50" y="23" type="curve"/>
      <point x="50" y="0"/>
      <point x="50" y="23"/>
    </contour>
    <contour>
      <point x="81" y="563" type="curve"/>
      <point x="103" y="634"/>
      <point x="121" y="703"/>
      <point x="190" y="703" type="curve"/>
      <point x="269" y="703"/>
      <point x="286" y="623"/>
      <point x="286" y="526" type="curve"/>
      <point x="286" y="408"/>
      <point x="212" y="287"/>
      <point x="186" y="237" type="curve"/>
      <point x="141" y="166"/>
      <point x="95" y="94"/>
      <point x="50" y="23" type="curve"/>
      <point x="60" y="0"/>
      <point x="50" y="23"/>
      <point x="60" y="0" type="curve"/>
      <point x="108" y="73"/>
      <point x="155" y="146"/>
      <point x="202" y="220" type="curve"/>
      <point x="232" y="275"/>
      <point x="312" y="403"/>
      <point x="312" y="527" type="curve"/>
      <point x="312" y="639"/>
      <point x="286" y="727"/>
      <point x="191" y="727" type="curve"/>
      <point x="113" y="727"/>
      <point x="81" y="654"/>
      <point x="58" y="573" type="curve"/>
      <point x="81" y="563"/>
      <point x="58" y="573"/>
    </contour>
  </outline>
</glyph>
<glyph name="three" format="1">
  <advance width="378"/>
  <unicode hex="0033"/>
  <outline>
    <contour>
      <point x="59" y="56" type="curve"/>
      <point x="93" y="21"/>
      <point x="122" y="-5"/>
      <point x="170" y="-5" type="curve"/>
      <point x="274" y="-5"/>
      <point x="315" y="78"/>
      <point x="315" y="195" type="curve"/>
      <point x="315" y="316"/>
      <point x="235" y="391"/>
      <point x="121" y="391" type="curve"/>
      <point x="121" y="385"/>
      <point x="121" y="378"/>
      <point x="121" y="372" type="curve"/>
      <point x="226" y="372"/>
      <point x="289" y="301"/>
      <point x="289" y="194" type="curve"/>
      <point x="289" y="94"/>
      <point x="248" y="18"/>
      <point x="171" y="18" type="curve"/>
      <point x="129" y="18"/>
      <point x="104" y="41"/>
      <point x="73" y="72" type="curve"/>
      <point x="59" y="56"/>
      <point x="73" y="72"/>
    </contour>
    <contour>
      <point x="82" y="628" type="curve"/>
      <point x="94" y="659"/>
      <point x="125" y="704"/>
      <point x="171" y="704" type="curve"/>
      <point x="244" y="704"/>
      <point x="269" y="636"/>
      <point x="269" y="549" type="curve"/>
      <point x="269" y="454"/>
      <point x="211" y="394"/>
      <point x="121" y="394" type="curve"/>
      <point x="121" y="388"/>
      <point x="121" y="381"/>
      <point x="121" y="375" type="curve"/>
      <point x="225" y="375"/>
      <point x="295" y="442"/>
      <point x="295" y="550" type="curve"/>
      <point x="295" y="650"/>
      <point x="261" y="727"/>
      <point x="173" y="727" type="curve"/>
      <point x="118" y="727"/>
      <point x="80" y="679"/>
      <point x="64" y="638" type="curve"/>
      <point x="82" y="628"/>
      <point x="64" y="638"/>
    </contour>
  </outline>
</glyph>
<glyph name="four" format="1">
  <advance width="406"/>
  <unicode hex="0034"/>
  <outline>
    <contour>
      <point x="239" y="23" type="line"/>
      <point x="134" y="23" type="line"/>
      <point x="134" y="0" type="line"/>
      <point x="239" y="0" type="line"/>
    </contour>
    <contour>
      <point x="239" y="0" type="line"/>
      <point x="332" y="0" type="line"/>
      <point x="332" y="23" type="line"/>
      <point x="239" y="23" type="line"/>
    </contour>
    <contour>
      <point x="53" y="278" type="line"/>
      <point x="252" y="724" type="line"/>
      <point x="226" y="722" type="line"/>
      <point x="32" y="287" type="line"/>
    </contour>
    <contour>
      <point x="354" y="287" type="line"/>
      <point x="32" y="287" type="line"/>
      <point x="32" y="265" type="line"/>
      <point x="354" y="265" type="line"/>
    </contour>
    <contour>
      <point x="251" y="0" type="line"/>
      <point x="251" y="722" type="line"/>
      <point x="226" y="722" type="line"/>
      <point x="226" y="0" type="line"/>
    </contour>
  </outline>
</glyph>
<glyph name="five" format="1">
  <advance width="363"/>
  <unicode hex="0035"/>
  <outline>
    <contour>
      <point x="86" y="722" type="curve"/>
      <point x="86" y="619"/>
      <point x="86" y="518"/>
      <point x="86" y="407" type="curve"/>
      <point x="110" y="395"/>
      <point x="86" y="407"/>
      <point x="110" y="395" type="curve"/>
      <point x="110" y="497"/>
      <point x="110" y="598"/>
      <point x="110" y="699" type="curve"/>
      <point x="86" y="722"/>
      <point x="110" y="699"/>
    </contour>
    <contour>
      <point x="110" y="395" type="curve"/>
      <point x="122" y="407"/>
      <point x="149" y="423"/>
      <point x="171" y="423" type="curve"/>
      <point x="259" y="423"/>
      <point x="279" y="326"/>
      <point x="279" y="224" type="curve"/>
      <point x="279" y="120"/>
      <point x="252" y="18"/>
      <point x="165" y="18" type="curve"/>
      <point x="126" y="18"/>
      <point x="105" y="34"/>
      <point x="70" y="62" type="curve"/>
      <point x="55" y="44"/>
      <point x="70" y="62"/>
      <point x="55" y="44" type="curve"/>
      <point x="88" y="13"/>
      <point x="121" y="-5"/>
      <point x="164" y="-5" type="curve"/>
      <point x="268" y="-5"/>
      <point x="305" y="105"/>
      <point x="305" y="224" type="curve"/>
      <point x="305" y="340"/>
      <point x="275" y="446"/>
      <point x="174" y="446" type="curve"/>
      <point x="140" y="446"/>
      <point x="104" y="430"/>
      <point x="86" y="405" type="curve"/>
      <point x="110" y="395"/>
      <point x="86" y="405"/>
    </contour>
    <contour>
      <point x="287" y="722" type="curve"/>
      <point x="217" y="722"/>
      <point x="156" y="722"/>
      <point x="86" y="722" type="curve"/>
      <point x="110" y="699"/>
      <point x="86" y="722"/>
      <point x="110" y="699" type="curve"/>
      <point x="172" y="699"/>
      <point x="225" y="699"/>
      <point x="287" y="699" type="curve"/>
      <point x="287" y="722"/>
      <point x="287" y="699"/>
    </contour>
  </outline>
</glyph>
<glyph name="six" format="1">
  <advance width="400"/>
  <unicode hex="0036"/>
  <outline>
    <contour>
      <point x="82" y="230" type="curve"/>
      <point x="87" y="295"/>
      <point x="126" y="386"/>
      <point x="204" y="386" type="curve"/>
      <point x="288" y="386"/>
      <point x="310" y="303"/>
      <point x="310" y="202" type="curve"/>
      <point x="310" y="117"/>
      <point x="288" y="19"/>
      <point x="208" y="19" type="curve"/>
      <point x="109" y="19"/>
      <point x="86" y="123"/>
      <point x="86" y="242" type="curve"/>
      <point x="86" y="452"/>
      <point x="163" y="632"/>
      <point x="340" y="713" type="curve"/>
      <point x="331" y="733"/>
      <point x="340" y="713"/>
      <point x="331" y="733" type="curve"/>
      <point x="146" y="652"/>
      <point x="60" y="469"/>
      <point x="60" y="241" type="curve"/>
      <point x="60" y="107"/>
      <point x="92" y="-5"/>
      <point x="207" y="-5" type="curve"/>
      <point x="304" y="-5"/>
      <point x="336" y="90"/>
      <point x="336" y="203" type="curve"/>
      <point x="336" y="316"/>
      <point x="304" y="409"/>
      <point x="206" y="409" type="curve"/>
      <point x="118" y="409"/>
      <point x="74" y="326"/>
      <point x="64" y="241" type="curve"/>
      <point x="80" y="230"/>
      <point x="66" y="241"/>
    </contour>
  </outline>
</glyph>
<glyph name="seven" format="1">
  <advance width="362"/>
  <unicode hex="0037"/>
  <outline>
    <contour>
      <point x="72" y="605" type="line"/>
      <point x="72" y="724" type="line"/>
      <point x="51" y="724" type="line"/>
      <point x="51" y="605" type="line"/>
    </contour>
    <contour>
      <point x="51" y="699" type="line"/>
      <point x="343" y="699" type="line"/>
      <point x="343" y="722" type="line"/>
      <point x="51" y="722" type="line"/>
    </contour>
    <contour>
      <point x="326" y="722" type="line"/>
      <point x="81" y="0" type="line"/>
      <point x="109" y="0" type="line"/>
      <point x="343" y="699" type="line"/>
    </contour>
  </outline>
</glyph>
<glyph name="nine" format="1">
  <advance width="398"/>
  <unicode hex="0039"/>
  <outline>
    <contour>
      <point x="315" y="488" type="curve"/>
      <point x="301" y="426"/>
      <point x="273" y="337"/>
      <point x="192" y="337" type="curve"/>
      <point x="108" y="337"/>
      <point x="88" y="420"/>
      <point x="88" y="520" type="curve"/>
      <point x="88" y="617"/>
      <point x="109" y="703"/>
      <point x="189" y="703" type="curve"/>
      <point x="288" y="703"/>
      <point x="310" y="597"/>
      <point x="310" y="480" type="curve"/>
      <point x="310" y="270"/>
      <point x="250" y="107"/>
      <point x="62" y="9" type="curve"/>
      <point x="73" y="-15"/>
      <point x="62" y="9"/>
      <point x="73" y="-15" type="curve"/>
      <point x="269" y="87"/>
      <point x="336" y="253"/>
      <point x="336" y="481" type="curve"/>
      <point x="336" y="615"/>
      <point x="307" y="727"/>
      <point x="190" y="727" type="curve"/>
      <point x="91" y="727"/>
      <point x="61" y="632"/>
      <point x="61" y="519" type="curve"/>
      <point x="61" y="406"/>
      <point x="92" y="313"/>
      <point x="190" y="313" type="curve"/>
      <point x="279" y="313"/>
      <point x="307" y="388"/>
      <point x="331" y="480" type="curve"/>
      <point x="315" y="488"/>
      <point x="331" y="480"/>
    </contour>
  </outline>
</glyph>
<glyph name="colon" format="1">
  <advance width="208"/>
  <unicode hex="003A"/>
  <outline>
    <contour>
      <point x="122" y="467" type="curve"/>
      <point x="122" y="479"/>
      <point x="115" y="485"/>
      <point x="103" y="485" type="curve"/>
      <point x="92" y="485"/>
      <point x="86" y="478"/>
      <point x="86" y="467" type="curve"/>
      <point x="125" y="467"/>
      <point x="83" y="467"/>
      <point x="122" y="467" type="curve"/>
      <point x="122" y="456"/>
      <point x="115" y="450"/>
      <point x="103" y="450" type="curve"/>
      <point x="92" y="450"/>
      <point x="86" y="456"/>
      <point x="86" y="467" type="curve"/>
      <point x="125" y="467"/>
      <point x="83" y="467"/>
    </contour>
    <contour>
      <point x="122" y="-48" type="curve"/>
      <point x="122" y="-37"/>
      <point x="115" y="-31"/>
      <point x="103" y="-31" type="curve"/>
      <point x="92" y="-31"/>
      <point x="86" y="-38"/>
      <point x="86" y="-48" type="curve"/>
      <point x="125" y="-48"/>
      <point x="83" y="-48"/>
      <point x="122" y="-48" type="curve"/>
      <point x="122" y="-60"/>
      <point x="115" y="-66"/>
      <point x="103" y="-66" type="curve"/>
      <point x="92" y="-66"/>
      <point x="86" y="-60"/>
      <point x="86" y="-48" type="curve"/>
      <point x="125" y="-48"/>
      <point x="83" y="-48"/>
    </contour>
  </outline>
</glyph>
<glyph name="semicolon" format="1">
  <advance width="243"/>
  <unicode hex="003B"/>
  <outline>
    <contour>
      <point x="77" y="-115" type="line"/>
      <point x="123" y="-115"/>
      <point x="138" y="-70"/>
      <point x="138" y="-28" type="curve"/>
      <point x="138" y="1"/>
      <point x="134" y="26"/>
      <point x="113" y="26" type="curve"/>
      <point x="100" y="26"/>
      <point x="93" y="20"/>
      <point x="93" y="7" type="curve"/>
      <point x="93" y="-3"/>
      <point x="97" y="-9"/>
      <point x="108" y="-14" type="curve"/>
      <point x="108" y="-34"/>
      <point x="110" y="-90"/>
      <point x="77" y="-91" type="curve"/>
    </contour>
    <contour>
      <point x="137" y="427" type="curve"/>
      <point x="137" y="439"/>
      <point x="130" y="445"/>
      <point x="119" y="445" type="curve"/>
      <point x="108" y="445"/>
      <point x="102" y="438"/>
      <point x="102" y="427" type="curve"/>
      <point x="141" y="427"/>
      <point x="98" y="427"/>
      <point x="137" y="427" type="curve"/>
      <point x="137" y="416"/>
      <point x="130" y="410"/>
      <point x="119" y="410" type="curve"/>
      <point x="108" y="410"/>
      <point x="102" y="416"/>
      <point x="102" y="427" type="curve"/>
      <point x="141" y="427"/>
      <point x="98" y="427"/>
    </contour>
  </outline>
</glyph>
<glyph name="less" format="1">
  <advance width="471"/>
  <unicode hex="003C"/>
  <outline>
    <contour>
      <point x="407" y="582" type="curve"/>
      <point x="285" y="492"/>
      <point x="163" y="402"/>
      <point x="40" y="312" type="curve"/>
      <point x="40" y="288"/>
      <point x="40" y="312"/>
      <point x="40" y="288" type="curve"/>
      <point x="163" y="378"/>
      <point x="285" y="468"/>
      <point x="407" y="558" type="curve"/>
      <point x="407" y="582"/>
      <point x="407" y="558"/>
    </contour>
    <contour>
      <point x="413" y="48" type="curve"/>
      <point x="288" y="136"/>
      <point x="164" y="224"/>
      <point x="40" y="312" type="curve"/>
      <point x="40" y="288"/>
      <point x="40" y="312"/>
      <point x="40" y="288" type="curve"/>
      <point x="164" y="200"/>
      <point x="288" y="112"/>
      <point x="413" y="24" type="curve"/>
      <point x="413" y="48"/>
      <point x="413" y="24"/>
    </contour>
  </outline>
</glyph>
<glyph name="equal" format="1">
  <advance width="553"/>
  <unicode hex="003D"/>
  <outline>
    <contour>
      <point x="87" y="206" type="curve"/>
      <point x="213" y="206"/>
      <point x="339" y="206"/>
      <point x="466" y="206" type="curve"/>
      <point x="466" y="229"/>
      <point x="466" y="206"/>
      <point x="466" y="229" type="curve"/>
      <point x="339" y="229"/>
      <point x="213" y="229"/>
      <point x="87" y="229" type="curve"/>
      <point x="87" y="206"/>
      <point x="87" y="229"/>
    </contour>
    <contour>
      <point x="87" y="428" type="curve"/>
      <point x="213" y="428"/>
      <point x="339" y="428"/>
      <point x="466" y="428" type="curve"/>
      <point x="466" y="451"/>
      <point x="466" y="428"/>
      <point x="466" y="451" type="curve"/>
      <point x="339" y="451"/>
      <point x="213" y="451"/>
      <point x="87" y="451" type="curve"/>
      <point x="87" y="428"/>
      <point x="87" y="451"/>
    </contour>
  </outline>
</glyph>
<glyph name="question" format="1">
  <advance width="370"/>
  <unicode hex="003F"/>
  <outline>
    <contour>
      <point x="162" y="334" type="curve"/>
      <point x="162" y="297"/>
      <point x="162" y="258"/>
      <point x="162" y="221" type="curve"/>
      <point x="187" y="221"/>
      <point x="162" y="221"/>
      <point x="187" y="221" type="curve"/>
      <point x="187" y="258"/>
      <point x="187" y="297"/>
      <point x="187" y="334" type="curve"/>
      <point x="162" y="334"/>
      <point x="187" y="334"/>
    </contour>
    <contour>
      <point x="82" y="619" type="line"/>
      <point x="98" y="656"/>
      <point x="125" y="686"/>
      <point x="173" y="686" type="curve"/>
      <point x="253" y="686"/>
      <point x="279" y="608"/>
      <point x="279" y="519" type="curve"/>
      <point x="279" y="423"/>
      <point x="252" y="334"/>
      <point x="168" y="334" type="curve"/>
      <point x="168" y="309"/>
      <point x="168" y="336"/>
      <point x="168" y="311" type="curve"/>
      <point x="267" y="311"/>
      <point x="306" y="408"/>
      <point x="306" y="519" type="curve"/>
      <point x="306" y="620"/>
      <point x="267" y="710"/>
      <point x="175" y="710" type="curve"/>
      <point x="112" y="710"/>
      <point x="82" y="674"/>
      <point x="63" y="631" type="curve"/>
    </contour>
    <contour>
      <point x="193" y="13" type="curve"/>
      <point x="193" y="24"/>
      <point x="185" y="31"/>
      <point x="173" y="31" type="curve"/>
      <point x="162" y="31"/>
      <point x="155" y="23"/>
      <point x="155" y="13" type="curve"/>
      <point x="193" y="13"/>
      <point x="155" y="13"/>
      <point x="193" y="13" type="curve"/>
      <point x="193" y="1"/>
      <point x="185" y="-5"/>
      <point x="173" y="-5" type="curve"/>
      <point x="162" y="-5"/>
      <point x="155" y="1"/>
      <point x="155" y="13" type="curve"/>
      <point x="193" y="13"/>
      <point x="155" y="13"/>
    </contour>
  </outline>
</glyph>
<glyph name="at" format="1">
  <advance width="544"/>
  <unicode hex="0040"/>
  <outline>
    <contour>
      <point x="372" y="-107" type="curve"/>
      <point x="344" y="-135"/>
      <point x="319" y="-144"/>
      <point x="280" y="-144" type="curve"/>
      <point x="125" y="-144"/>
      <point x="86" y="4"/>
      <point x="86" y="185" type="curve"/>
      <point x="86" y="361"/>
      <point x="126" y="510"/>
      <point x="277" y="510" type="curve"/>
      <point x="419" y="510"/>
      <point x="456" y="369"/>
      <point x="456" y="206" type="curve"/>
      <point x="456" y="120"/>
      <point x="460" y="39"/>
      <point x="414" y="39" type="curve"/>
      <point x="357" y="39"/>
      <point x="363" y="112"/>
      <point x="363" y="190" type="curve"/>
      <point x="363" y="283"/>
      <point x="349" y="363"/>
      <point x="270" y="363" type="curve"/>
      <point x="189" y="363"/>
      <point x="169" y="285"/>
      <point x="169" y="191" type="curve"/>
      <point x="169" y="90"/>
      <point x="182" y="7"/>
      <point x="267" y="7" type="curve"/>
      <point x="346" y="7"/>
      <point x="353" y="88"/>
      <point x="359" y="180" type="curve"/>
      <point x="345" y="181"/>
      <point x="359" y="180"/>
      <point x="345" y="181" type="curve"/>
      <point x="334" y="109"/>
      <point x="328" y="29"/>
      <point x="270" y="29" type="curve"/>
      <point x="197" y="29"/>
      <point x="193" y="105"/>
      <point x="193" y="192" type="curve"/>
      <point x="193" y="273"/>
      <point x="201" y="340"/>
      <point x="267" y="340" type="curve"/>
      <point x="335" y="340"/>
      <point x="340" y="270"/>
      <point x="340" y="189" type="curve"/>
      <point x="340" y="99"/>
      <point x="335" y="19"/>
      <point x="412" y="19" type="curve"/>
      <point x="492" y="19"/>
      <point x="482" y="107"/>
      <point x="482" y="207" type="curve"/>
      <point x="482" y="388"/>
      <point x="441" y="534"/>
      <point x="279" y="534" type="curve"/>
      <point x="110" y="534"/>
      <point x="59" y="378"/>
      <point x="59" y="184" type="curve"/>
      <point x="59" y="-10"/>
      <point x="109" y="-167"/>
      <point x="278" y="-167" type="curve"/>
      <point x="322" y="-167"/>
      <point x="351" y="-158"/>
      <point x="384" y="-128" type="curve"/>
      <point x="372" y="-107"/>
      <point x="384" y="-128"/>
    </contour>
  </outline>
</glyph>
<glyph name="B" format="1">
  <advance width="458"/>
  <unicode hex="0042"/>
  <outline>
    <contour>
      <point x="143" y="722" type="curve"/>
      <point x="101" y="722"/>
      <point x="82" y="722"/>
      <point x="40" y="722" type="curve"/>
      <point x="40" y="699"/>
      <point x="40" y="722"/>
      <point x="40" y="699" type="curve"/>
      <point x="166" y="699"/>
      <point x="17" y="699"/>
      <point x="143" y="699" type="curve"/>
      <point x="143" y="722"/>
      <point x="143" y="699"/>
    </contour>
    <contour>
      <point x="143" y="23" type="curve"/>
      <point x="16" y="23"/>
      <point x="165" y="23"/>
      <point x="39" y="23" type="curve"/>
      <point x="39" y="0"/>
      <point x="39" y="23"/>
      <point x="39" y="0" type="curve"/>
      <point x="81" y="0"/>
      <point x="100" y="0"/>
      <point x="143" y="0" type="curve"/>
      <point x="143" y="23"/>
      <point x="143" y="0"/>
    </contour>
    <contour>
      <point x="137" y="699" type="curve"/>
      <point x="173" y="699"/>
      <point x="191" y="699"/>
      <point x="228" y="699" type="curve"/>
      <point x="307" y="699"/>
      <point x="343" y="639"/>
      <point x="343" y="555" type="curve"/>
      <point x="343" y="478"/>
      <point x="314" y="421"/>
      <point x="244" y="421" type="curve"/>
      <point x="202" y="421"/>
      <point x="179" y="421"/>
      <point x="137" y="421" type="curve"/>
      <point x="137" y="415"/>
      <point x="137" y="405"/>
      <point x="137" y="398" type="curve"/>
      <point x="174" y="398"/>
      <point x="198" y="398"/>
      <point x="235" y="398" type="curve"/>
      <point x="326" y="398"/>
      <point x="368" y="462"/>
      <point x="368" y="555" type="curve"/>
      <point x="368" y="654"/>
      <point x="321" y="722"/>
      <point x="228" y="722" type="curve"/>
      <point x="192" y="722"/>
      <point x="173" y="722"/>
      <point x="137" y="722" type="curve"/>
      <point x="137" y="716"/>
      <point x="137" y="705"/>
    </contour>
    <contour>
      <point x="158" y="0" type="curve"/>
      <point x="158" y="241"/>
      <point x="158" y="481"/>
      <point x="158" y="722" type="curve"/>
      <point x="131" y="722"/>
      <point x="158" y="722"/>
      <point x="131" y="722" type="curve"/>
      <point x="131" y="481"/>
      <point x="132" y="241"/>
      <point x="131" y="0" type="curve"/>
      <point x="158" y="0"/>
      <point x="131" y="0"/>
    </contour>
    <contour>
      <point x="137" y="398" type="curve"/>
      <point x="179" y="398"/>
      <point x="202" y="398"/>
      <point x="244" y="398" type="curve"/>
      <point x="340" y="398"/>
      <point x="371" y="312"/>
      <point x="371" y="204" type="curve"/>
      <point x="371" y="99"/>
      <point x="326" y="23"/>
      <point x="229" y="23" type="curve"/>
      <point x="192" y="23"/>
      <point x="174" y="23"/>
      <point x="137" y="23" type="curve"/>
      <point x="137" y="17"/>
      <point x="137" y="6"/>
      <point x="137" y="0" type="curve"/>
      <point x="174" y="0"/>
      <point x="192" y="0"/>
      <point x="229" y="0" type="curve"/>
      <point x="341" y="0"/>
      <point x="396" y="84"/>
      <point x="396" y="204" type="curve"/>
      <point x="396" y="329"/>
      <point x="352" y="421"/>
      <point x="237" y="421" type="curve"/>
      <point x="199" y="421"/>
      <point x="174" y="421"/>
      <point x="137" y="421" type="curve"/>
      <point x="137" y="415"/>
      <point x="137" y="405"/>
    </contour>
  </outline>
</glyph>
<glyph name="C" format="1">
  <advance width="463"/>
  <unicode hex="0043"/>
  <outline>
    <contour>
      <point x="382" y="655" type="curve"/>
      <point x="382" y="535"/>
      <point x="382" y="655"/>
      <point x="382" y="535" type="curve"/>
      <point x="405" y="535"/>
      <point x="382" y="535"/>
      <point x="405" y="535" type="curve"/>
      <point x="405" y="655"/>
      <point x="405" y="535"/>
      <point x="405" y="655" type="curve"/>
      <point x="382" y="655"/>
      <point x="405" y="655"/>
    </contour>
    <contour>
      <point x="405" y="655" type="curve"/>
      <point x="368" y="694"/>
      <point x="323" y="727"/>
      <point x="266" y="727" type="curve"/>
      <point x="93" y="727"/>
      <point x="66" y="553"/>
      <point x="66" y="344" type="curve"/>
      <point x="66" y="154"/>
      <point x="93" y="-5"/>
      <point x="253" y="-5" type="curve"/>
      <point x="329" y="-5"/>
      <point x="373" y="35"/>
      <point x="417" y="96" type="curve"/>
      <point x="400" y="114"/>
      <point x="416" y="96"/>
      <point x="399" y="114" type="curve"/>
      <point x="361" y="60"/>
      <point x="322" y="22"/>
      <point x="254" y="22" type="curve"/>
      <point x="110" y="22"/>
      <point x="91" y="171"/>
      <point x="91" y="345" type="curve"/>
      <point x="91" y="536"/>
      <point x="112" y="702"/>
      <point x="265" y="702" type="curve"/>
      <point x="317" y="702"/>
      <point x="359" y="672"/>
      <point x="391" y="637" type="curve"/>
      <point x="405" y="655"/>
      <point x="391" y="637"/>
    </contour>
    <contour>
      <point x="264" y="825" type="move" name="top"/>
    </contour>
    <contour>
      <point x="254" y="-7" type="move" name="bottom"/>
    </contour>
  </outline>
</glyph>
<glyph name="D" format="1">
  <advance width="523"/>
  <unicode hex="0044"/>
  <outline>
    <contour>
      <point x="145" y="23" type="curve"/>
      <point x="18" y="23"/>
      <point x="167" y="23"/>
      <point x="41" y="23" type="curve"/>
      <point x="41" y="0"/>
      <point x="41" y="23"/>
      <point x="41" y="0" type="curve"/>
      <point x="83" y="0"/>
      <point x="102" y="0"/>
      <point x="145" y="0" type="curve"/>
      <point x="145" y="23"/>
      <point x="145" y="0"/>
    </contour>
    <contour>
      <point x="145" y="722" type="curve"/>
      <point x="102" y="722"/>
      <point x="83" y="722"/>
      <point x="41" y="722" type="curve"/>
      <point x="41" y="699"/>
      <point x="41" y="722"/>
      <point x="41" y="699" type="curve"/>
      <point x="167" y="699"/>
      <point x="18" y="699"/>
      <point x="145" y="699" type="curve"/>
      <point x="145" y="722"/>
      <point x="145" y="699"/>
    </contour>
    <contour>
      <point x="131" y="722" type="curve"/>
      <point x="131" y="481"/>
      <point x="131" y="241"/>
      <point x="131" y="0" type="curve"/>
      <point x="156" y="0"/>
      <point x="131" y="0"/>
      <point x="156" y="0" type="curve"/>
      <point x="156" y="241"/>
      <point x="156" y="481"/>
      <point x="156" y="722" type="curve"/>
      <point x="131" y="722"/>
      <point x="156" y="722"/>
    </contour>
    <contour>
      <point x="145" y="0" type="curve"/>
      <point x="183" y="0"/>
      <point x="202" y="0"/>
      <point x="240" y="0" type="curve"/>
      <point x="411" y="0"/>
      <point x="461" y="160"/>
      <point x="461" y="357" type="curve"/>
      <point x="461" y="559"/>
      <point x="407" y="722"/>
      <point x="232" y="722" type="curve"/>
      <point x="198" y="722"/>
      <point x="179" y="722"/>
      <point x="145" y="722" type="curve"/>
      <point x="145" y="715"/>
      <point x="145" y="706"/>
      <point x="145" y="699" type="curve"/>
      <point x="179" y="699"/>
      <point x="197" y="699"/>
      <point x="232" y="699" type="curve"/>
      <point x="393" y="699"/>
      <point x="435" y="544"/>
      <point x="435" y="356" type="curve"/>
      <point x="435" y="174"/>
      <point x="397" y="23"/>
      <point x="242" y="23" type="curve"/>
      <point x="204" y="23"/>
      <point x="183" y="23"/>
      <point x="145" y="23" type="curve"/>
      <point x="145" y="16"/>
      <point x="145" y="7"/>
    </contour>
    <contour>
      <point x="218" y="823" type="move" name="top"/>
    </contour>
  </outline>
</glyph>
<glyph name="F" format="1">
  <advance width="434"/>
  <unicode hex="0046"/>
  <outline>
    <contour>
      <point x="144" y="0" type="curve"/>
      <point x="186" y="0"/>
      <point x="144" y="0"/>
      <point x="270" y="0" type="curve"/>
      <point x="270" y="23"/>
      <point x="270" y="0"/>
      <point x="270" y="23" type="curve"/>
      <point x="144" y="23"/>
      <point x="270" y="23"/>
      <point x="144" y="23" type="curve"/>
      <point x="144" y="0"/>
      <point x="144" y="23"/>
    </contour>
    <contour>
      <point x="144" y="722" type="curve"/>
      <point x="101" y="722"/>
      <point x="82" y="722"/>
      <point x="40" y="722" type="curve"/>
      <point x="40" y="699"/>
      <point x="40" y="722"/>
      <point x="40" y="699" type="curve"/>
      <point x="166" y="699"/>
      <point x="17" y="699"/>
      <point x="144" y="699" type="curve"/>
      <point x="144" y="722"/>
      <point x="144" y="699"/>
    </contour>
    <contour>
      <point x="144" y="23" type="curve"/>
      <point x="17" y="23"/>
      <point x="166" y="23"/>
      <point x="40" y="23" type="curve"/>
      <point x="40" y="0"/>
      <point x="40" y="23"/>
      <point x="40" y="0" type="curve"/>
      <point x="82" y="0"/>
      <point x="101" y="0"/>
      <point x="144" y="0" type="curve"/>
      <point x="144" y="23"/>
      <point x="144" y="0"/>
    </contour>
    <contour>
      <point x="361" y="711" type="curve"/>
      <point x="361" y="591"/>
      <point x="361" y="722"/>
      <point x="361" y="602" type="curve"/>
      <point x="384" y="602"/>
      <point x="361" y="602"/>
      <point x="384" y="602" type="curve"/>
      <point x="384" y="722"/>
      <point x="384" y="591"/>
      <point x="384" y="711" type="curve"/>
      <point x="361" y="711"/>
      <point x="384" y="711"/>
    </contour>
    <contour>
      <point x="146" y="363" type="curve"/>
      <point x="211" y="363"/>
      <point x="275" y="363"/>
      <point x="340" y="363" type="curve"/>
      <point x="340" y="385"/>
      <point x="340" y="363"/>
      <point x="340" y="385" type="curve"/>
      <point x="275" y="385"/>
      <point x="211" y="385"/>
      <point x="146" y="385" type="curve"/>
      <point x="146" y="363"/>
      <point x="146" y="385"/>
    </contour>
    <contour>
      <point x="156" y="0" type="curve"/>
      <point x="156" y="722" type="line"/>
      <point x="131" y="722"/>
      <point x="156" y="722"/>
      <point x="131" y="722" type="curve"/>
      <point x="131" y="481"/>
      <point x="131" y="241"/>
      <point x="131" y="0" type="curve"/>
      <point x="156" y="0"/>
      <point x="131" y="0"/>
    </contour>
    <contour>
      <point x="137" y="699" type="curve"/>
      <point x="220" y="699"/>
      <point x="301" y="699"/>
      <point x="384" y="699" type="curve"/>
      <point x="384" y="722"/>
      <point x="384" y="699"/>
      <point x="384" y="722" type="curve"/>
      <point x="301" y="722"/>
      <point x="220" y="722"/>
      <point x="137" y="722" type="curve"/>
      <point x="137" y="699"/>
      <point x="137" y="722"/>
    </contour>
  </outline>
</glyph>
<glyph name="G" format="1">
  <advance width="518"/>
  <unicode hex="0047"/>
  <outline>
    <contour>
      <point x="415" y="642" type="curve"/>
      <point x="415" y="522"/>
      <point x="415" y="653"/>
      <point x="415" y="533" type="curve"/>
      <point x="438" y="533"/>
      <point x="415" y="533"/>
      <point x="438" y="533" type="curve"/>
      <point x="438" y="653"/>
      <point x="438" y="522"/>
      <point x="438" y="642" type="curve"/>
      <point x="415" y="642"/>
      <point x="438" y="642"/>
    </contour>
    <contour>
      <point x="440" y="320" type="curve"/>
      <point x="396" y="320"/>
      <point x="351" y="320"/>
      <point x="307" y="320" type="curve"/>
      <point x="307" y="297"/>
      <point x="307" y="320"/>
      <point x="307" y="297" type="curve"/>
      <point x="351" y="297"/>
      <point x="396" y="297"/>
      <point x="440" y="297" type="curve"/>
      <point x="440" y="320"/>
      <point x="440" y="297"/>
    </contour>
    <contour>
      <point x="448" y="77" type="curve"/>
      <point x="448" y="158"/>
      <point x="448" y="238"/>
      <point x="448" y="320" type="curve"/>
      <point x="425" y="320"/>
      <point x="448" y="320"/>
      <point x="425" y="320" type="curve"/>
      <point x="425" y="238"/>
      <point x="425" y="158"/>
      <point x="425" y="77" type="curve"/>
      <point x="448" y="77"/>
      <point x="425" y="77"/>
    </contour>
    <contour>
      <point x="438" y="642" type="curve"/>
      <point x="390" y="695"/>
      <point x="338" y="727"/>
      <point x="268" y="727" type="curve"/>
      <point x="100" y="727"/>
      <point x="64" y="564"/>
      <point x="64" y="365" type="curve"/>
      <point x="64" y="160"/>
      <point x="103" y="-5"/>
      <point x="275" y="-5" type="curve"/>
      <point x="349" y="-5"/>
      <point x="393" y="25"/>
      <point x="448" y="77" type="curve"/>
      <point x="432" y="98"/>
      <point x="448" y="77"/>
      <point x="432" y="98" type="curve"/>
      <point x="401" y="58"/>
      <point x="342" y="20"/>
      <point x="274" y="20" type="curve"/>
      <point x="116" y="20"/>
      <point x="90" y="178"/>
      <point x="90" y="367" type="curve"/>
      <point x="90" y="547"/>
      <point x="117" y="702"/>
      <point x="267" y="702" type="curve"/>
      <point x="333" y="702"/>
      <point x="380" y="672"/>
      <point x="425" y="623" type="curve"/>
      <point x="438" y="642"/>
      <point x="425" y="623"/>
    </contour>
    <contour>
      <point x="265" y="825" type="move" name="top"/>
    </contour>
    <contour>
      <point x="273" y="-92" type="move" name="bottom"/>
    </contour>
  </outline>
</glyph>
<glyph name="H" format="1">
  <advance width="591"/>
  <unicode hex="0048"/>
  <outline>
    <contour>
      <point x="448" y="699" type="curve"/>
      <point x="575" y="699"/>
      <point x="426" y="699"/>
      <point x="552" y="699" type="curve"/>
      <point x="552" y="722"/>
      <point x="552" y="699"/>
      <point x="552" y="722" type="curve"/>
      <point x="510" y="722"/>
      <point x="490" y="722"/>
      <point x="448" y="722" type="curve"/>
      <point x="448" y="699"/>
      <point x="448" y="722"/>
    </contour>
    <contour>
      <point x="448" y="0" type="curve"/>
      <point x="490" y="0"/>
      <point x="510" y="0"/>
      <point x="552" y="0" type="curve"/>
      <point x="552" y="23"/>
      <point x="552" y="0"/>
      <point x="552" y="23" type="curve"/>
      <point x="426" y="23"/>
      <point x="575" y="23"/>
      <point x="448" y="23" type="curve"/>
      <point x="448" y="0"/>
      <point x="448" y="23"/>
    </contour>
    <contour>
      <point x="448" y="23" type="curve"/>
      <point x="322" y="23"/>
      <point x="471" y="23"/>
      <point x="345" y="23" type="curve"/>
      <point x="345" y="0"/>
      <point x="345" y="23"/>
      <point x="345" y="0" type="curve"/>
      <point x="387" y="0"/>
      <point x="406" y="0"/>
      <point x="448" y="0" type="curve"/>
      <point x="448" y="23"/>
      <point x="448" y="0"/>
    </contour>
    <contour>
      <point x="448" y="722" type="curve"/>
      <point x="406" y="722"/>
      <point x="387" y="722"/>
      <point x="345" y="722" type="curve"/>
      <point x="345" y="699"/>
      <point x="345" y="722"/>
      <point x="345" y="699" type="curve"/>
      <point x="471" y="699"/>
      <point x="322" y="699"/>
      <point x="448" y="699" type="curve"/>
      <point x="448" y="722"/>
      <point x="448" y="699"/>
    </contour>
    <contour>
      <point x="143" y="699" type="curve"/>
      <point x="270" y="699"/>
      <point x="121" y="699"/>
      <point x="247" y="699" type="curve"/>
      <point x="247" y="722"/>
      <point x="247" y="699"/>
      <point x="247" y="722" type="curve"/>
      <point x="205" y="722"/>
      <point x="186" y="722"/>
      <point x="143" y="722" type="curve"/>
      <point x="143" y="699"/>
      <point x="143" y="722"/>
    </contour>
    <contour>
      <point x="143" y="722" type="curve"/>
      <point x="101" y="722"/>
      <point x="82" y="722"/>
      <point x="40" y="722" type="curve"/>
      <point x="40" y="699"/>
      <point x="40" y="722"/>
      <point x="40" y="699" type="curve"/>
      <point x="166" y="699"/>
      <point x="17" y="699"/>
      <point x="143" y="699" type="curve"/>
      <point x="143" y="722"/>
      <point x="143" y="699"/>
    </contour>
    <contour>
      <point x="143" y="0" type="curve"/>
      <point x="186" y="0"/>
      <point x="121" y="0"/>
      <point x="247" y="0" type="curve"/>
      <point x="247" y="23"/>
      <point x="247" y="0"/>
      <point x="247" y="23" type="curve"/>
      <point x="121" y="23"/>
      <point x="270" y="23"/>
      <point x="143" y="23" type="curve"/>
      <point x="143" y="0"/>
      <point x="143" y="23"/>
    </contour>
    <contour>
      <point x="143" y="23" type="curve"/>
      <point x="17" y="23"/>
      <point x="166" y="23"/>
      <point x="40" y="23" type="curve"/>
      <point x="40" y="0"/>
      <point x="40" y="23"/>
      <point x="40" y="0" type="curve"/>
      <point x="82" y="0"/>
      <point x="101" y="0"/>
      <point x="143" y="0" type="curve"/>
      <point x="143" y="23"/>
      <point x="143" y="0"/>
    </contour>
    <contour>
      <point x="156" y="0" type="curve"/>
      <point x="156" y="722" type="line"/>
      <point x="131" y="722"/>
      <point x="156" y="722"/>
      <point x="131" y="722" type="curve"/>
      <point x="131" y="481"/>
      <point x="131" y="241"/>
      <point x="131" y="0" type="curve"/>
      <point x="156" y="0"/>
      <point x="131" y="0"/>
    </contour>
    <contour>
      <point x="447" y="374" type="curve"/>
      <point x="345" y="374"/>
      <point x="244" y="374"/>
      <point x="143" y="374" type="curve"/>
      <point x="143" y="352"/>
      <point x="143" y="374"/>
      <point x="143" y="352" type="curve"/>
      <point x="244" y="352"/>
      <point x="345" y="352"/>
      <point x="447" y="352" type="curve"/>
      <point x="447" y="374"/>
      <point x="447" y="352"/>
    </contour>
    <contour>
      <point x="460" y="1" type="curve"/>
      <point x="460" y="241"/>
      <point x="460" y="481"/>
      <point x="460" y="721" type="curve"/>
      <point x="435" y="721"/>
      <point x="460" y="721"/>
      <point x="435" y="721" type="curve"/>
      <point x="435" y="1" type="line"/>
      <point x="460" y="1"/>
      <point x="435" y="1"/>
    </contour>
  </outline>
</glyph>
<glyph name="J" format="1">
  <advance width="342"/>
  <unicode hex="004A"/>
  <outline>
    <contour>
      <point x="211" y="722" type="curve"/>
      <point x="169" y="722"/>
      <point x="149" y="722"/>
      <point x="106" y="722" type="curve"/>
      <point x="106" y="699"/>
      <point x="106" y="722"/>
      <point x="106" y="699" type="curve"/>
      <point x="234" y="699"/>
      <point x="83" y="699"/>
      <point x="211" y="699" type="curve"/>
      <point x="211" y="722"/>
      <point x="211" y="699"/>
    </contour>
    <contour>
      <point x="211" y="699" type="curve"/>
      <point x="340" y="699"/>
      <point x="189" y="699"/>
      <point x="318" y="699" type="curve"/>
      <point x="318" y="722"/>
      <point x="318" y="699"/>
      <point x="318" y="722" type="curve"/>
      <point x="275" y="722"/>
      <point x="254" y="722"/>
      <point x="211" y="722" type="curve"/>
      <point x="211" y="699"/>
      <point x="211" y="722"/>
    </contour>
    <contour>
      <point x="30" y="37" type="curve"/>
      <point x="53" y="13"/>
      <point x="77" y="-6"/>
      <point x="112" y="-6" type="curve"/>
      <point x="212" y="-6"/>
      <point x="223" y="84"/>
      <point x="223" y="214" type="curve"/>
      <point x="223" y="409"/>
      <point x="223" y="527"/>
      <point x="223" y="722" type="curve"/>
      <point x="215" y="722"/>
      <point x="206" y="722"/>
      <point x="198" y="722" type="curve"/>
      <point x="198" y="527"/>
      <point x="198" y="409"/>
      <point x="198" y="214" type="curve"/>
      <point x="198" y="109"/>
      <point x="198" y="17"/>
      <point x="112" y="17" type="curve"/>
      <point x="81" y="17"/>
      <point x="61" y="36"/>
      <point x="44" y="55" type="curve"/>
      <point x="40" y="50"/>
      <point x="35" y="43"/>
    </contour>
  </outline>
</glyph>
<glyph name="M" format="1">
  <advance width="674"/>
  <unicode hex="004D"/>
  <outline>
    <contour>
      <point x="546" y="0" type="curve"/>
      <point x="588" y="0"/>
      <point x="607" y="0"/>
      <point x="649" y="0" type="curve"/>
      <point x="649" y="23"/>
      <point x="649" y="0"/>
      <point x="649" y="23" type="curve"/>
      <point x="523" y="23"/>
      <point x="672" y="23"/>
      <point x="546" y="23" type="curve"/>
      <point x="546" y="0"/>
      <point x="546" y="23"/>
    </contour>
    <contour>
      <point x="546" y="23" type="curve"/>
      <point x="418" y="23"/>
      <point x="568" y="23"/>
      <point x="441" y="23" type="curve"/>
      <point x="441" y="0"/>
      <point x="441" y="23"/>
      <point x="441" y="0" type="curve"/>
      <point x="483" y="0"/>
      <point x="503" y="0"/>
      <point x="546" y="0" type="curve"/>
      <point x="546" y="23"/>
      <point x="546" y="0"/>
    </contour>
    <contour>
      <point x="129" y="23" type="curve"/>
      <point x="3" y="23"/>
      <point x="152" y="23"/>
      <point x="26" y="23" type="curve"/>
      <point x="26" y="0"/>
      <point x="26" y="23"/>
      <point x="26" y="0" type="curve"/>
      <point x="68" y="0"/>
      <point x="87" y="0"/>
      <point x="129" y="0" type="curve"/>
      <point x="129" y="23"/>
      <point x="129" y="0"/>
    </contour>
    <contour>
      <point x="166" y="722" type="curve"/>
      <point x="123" y="722"/>
      <point x="103" y="722"/>
      <point x="61" y="722" type="curve"/>
      <point x="61" y="699"/>
      <point x="61" y="722"/>
      <point x="61" y="699" type="curve"/>
      <point x="188" y="699"/>
      <point x="38" y="699"/>
      <point x="166" y="699" type="curve"/>
      <point x="166" y="722"/>
      <point x="166" y="699"/>
    </contour>
    <contour>
      <point x="509" y="699" type="curve"/>
      <point x="635" y="699"/>
      <point x="486" y="699"/>
      <point x="612" y="699" type="curve"/>
      <point x="612" y="722"/>
      <point x="612" y="699"/>
      <point x="612" y="722" type="curve"/>
      <point x="570" y="722"/>
      <point x="551" y="722"/>
      <point x="509" y="722" type="curve"/>
      <point x="509" y="699"/>
      <point x="509" y="722"/>
    </contour>
    <contour>
      <point x="129" y="0" type="curve"/>
      <point x="171" y="0"/>
      <point x="107" y="0"/>
      <point x="233" y="0" type="curve"/>
      <point x="233" y="23"/>
      <point x="233" y="0"/>
      <point x="233" y="23" type="curve"/>
      <point x="107" y="23"/>
      <point x="256" y="23"/>
      <point x="129" y="23" type="curve"/>
      <point x="129" y="0"/>
      <point x="129" y="23"/>
    </contour>
    <contour>
      <point x="557" y="0" type="curve"/>
      <point x="544" y="241"/>
      <point x="532" y="481"/>
      <point x="519" y="722" type="curve"/>
      <point x="496" y="722"/>
      <point x="519" y="722"/>
      <point x="496" y="722" type="curve"/>
      <point x="508" y="481"/>
      <point x="520" y="241"/>
      <point x="532" y="0" type="curve"/>
      <point x="557" y="0"/>
      <point x="532" y="0"/>
    </contour>
    <contour>
      <point x="142" y="0" type="curve"/>
      <point x="153" y="241"/>
      <point x="164" y="481"/>
      <point x="175" y="722" type="curve"/>
      <point x="152" y="722"/>
      <point x="175" y="722"/>
      <point x="152" y="722" type="curve"/>
      <point x="140" y="481"/>
      <point x="128" y="241"/>
      <point x="116" y="0" type="curve"/>
      <point x="142" y="0"/>
      <point x="116" y="0"/>
    </contour>
    <contour>
      <point x="347" y="0" type="curve"/>
      <point x="289" y="241"/>
      <point x="232" y="481"/>
      <point x="177" y="722" type="curve"/>
      <point x="153" y="722"/>
      <point x="177" y="722"/>
      <point x="153" y="722" type="curve"/>
      <point x="210" y="481"/>
      <point x="266" y="241"/>
      <point x="322" y="0" type="curve"/>
      <point x="347" y="0"/>
      <point x="322" y="0"/>
    </contour>
    <contour>
      <point x="353" y="0" type="curve"/>
      <point x="408" y="241"/>
      <point x="463" y="481"/>
      <point x="518" y="722" type="curve"/>
      <point x="495" y="722"/>
      <point x="519" y="722"/>
      <point x="496" y="722" type="curve"/>
      <point x="440" y="481"/>
      <point x="384" y="241"/>
      <point x="328" y="0" type="curve"/>
      <point x="353" y="0"/>
      <point x="327" y="0"/>
    </contour>
  </outline>
</glyph>
<glyph name="P" format="1">
  <advance width="431"/>
  <unicode hex="0050"/>
  <outline>
    <contour>
      <point x="145" y="722" type="curve"/>
      <point x="102" y="722"/>
      <point x="83" y="722"/>
      <point x="41" y="722" type="curve"/>
      <point x="41" y="699"/>
      <point x="41" y="722"/>
      <point x="41" y="699" type="curve"/>
      <point x="167" y="699"/>
      <point x="18" y="699"/>
      <point x="145" y="699" type="curve"/>
      <point x="145" y="722"/>
      <point x="145" y="699"/>
    </contour>
    <contour>
      <point x="145" y="23" type="curve"/>
      <point x="18" y="23"/>
      <point x="167" y="23"/>
      <point x="41" y="23" type="curve"/>
      <point x="41" y="0"/>
      <point x="41" y="23"/>
      <point x="41" y="0" type="curve"/>
      <point x="83" y="0"/>
      <point x="102" y="0"/>
      <point x="145" y="0" type="curve"/>
      <point x="145" y="23"/>
      <point x="145" y="0"/>
    </contour>
    <contour>
      <point x="145" y="0" type="curve"/>
      <point x="187" y="0"/>
      <point x="122" y="0"/>
      <point x="249" y="0" type="curve"/>
      <point x="249" y="23"/>
      <point x="249" y="0"/>
      <point x="249" y="23" type="curve"/>
      <point x="122" y="23"/>
      <point x="271" y="23"/>
      <point x="145" y="23" type="curve"/>
      <point x="145" y="0"/>
      <point x="145" y="23"/>
    </contour>
    <contour>
      <point x="141" y="325" type="curve"/>
      <point x="168" y="300"/>
      <point x="200" y="280"/>
      <point x="238" y="280" type="curve"/>
      <point x="338" y="282"/>
      <point x="375" y="372"/>
      <point x="375" y="494" type="curve"/>
      <point x="375" y="616"/>
      <point x="332" y="722"/>
      <point x="224" y="722" type="curve"/>
      <point x="198" y="722"/>
      <point x="172" y="722"/>
      <point x="146" y="722" type="curve"/>
      <point x="146" y="699"/>
      <point x="146" y="722"/>
      <point x="146" y="699" type="curve"/>
      <point x="171" y="699"/>
      <point x="196" y="699"/>
      <point x="221" y="699" type="curve"/>
      <point x="316" y="699"/>
      <point x="350" y="602"/>
      <point x="350" y="493" type="curve"/>
      <point x="350" y="392"/>
      <point x="323" y="304"/>
      <point x="238" y="304" type="curve"/>
      <point x="201" y="304"/>
      <point x="178" y="321"/>
      <point x="150" y="346" type="curve"/>
      <point x="141" y="326"/>
      <point x="150" y="345"/>
    </contour>
    <contour>
      <point x="156" y="0" type="curve"/>
      <point x="156" y="241"/>
      <point x="156" y="481"/>
      <point x="156" y="722" type="curve"/>
      <point x="131" y="722"/>
      <point x="156" y="722"/>
      <point x="131" y="722" type="curve"/>
      <point x="131" y="481"/>
      <point x="131" y="241"/>
      <point x="131" y="0" type="curve"/>
      <point x="156" y="0"/>
      <point x="131" y="0"/>
    </contour>
  </outline>
</glyph>
<glyph name="T" format="1">
  <advance width="469"/>
  <unicode hex="0054"/>
  <outline>
    <contour>
      <point x="48" y="710" type="curve"/>
      <point x="48" y="590"/>
      <point x="48" y="722"/>
      <point x="48" y="602" type="curve"/>
      <point x="70" y="602"/>
      <point x="48" y="602"/>
      <point x="70" y="602" type="curve"/>
      <point x="70" y="722"/>
      <point x="70" y="590"/>
      <point x="70" y="710" type="curve"/>
      <point x="48" y="710"/>
      <point x="70" y="710"/>
    </contour>
    <contour>
      <point x="399" y="710" type="curve"/>
      <point x="399" y="590"/>
      <point x="399" y="722"/>
      <point x="399" y="602" type="curve"/>
      <point x="422" y="602"/>
      <point x="399" y="602"/>
      <point x="422" y="602" type="curve"/>
      <point x="422" y="722"/>
      <point x="422" y="590"/>
      <point x="422" y="710" type="curve"/>
      <point x="399" y="710"/>
      <point x="422" y="710"/>
    </contour>
    <contour>
      <point x="235" y="0" type="curve"/>
      <point x="272" y="0"/>
      <point x="301" y="0"/>
      <point x="339" y="0" type="curve"/>
      <point x="339" y="23"/>
      <point x="339" y="0"/>
      <point x="339" y="23" type="curve"/>
      <point x="224" y="23"/>
      <point x="349" y="23"/>
      <point x="235" y="23" type="curve"/>
      <point x="235" y="0"/>
      <point x="235" y="23"/>
    </contour>
    <contour>
      <point x="235" y="23" type="curve"/>
      <point x="120" y="23"/>
      <point x="245" y="23"/>
      <point x="130" y="23" type="curve"/>
      <point x="130" y="0"/>
      <point x="130" y="23"/>
      <point x="130" y="0" type="curve"/>
      <point x="167" y="0"/>
      <point x="196" y="0"/>
      <point x="235" y="0" type="curve"/>
      <point x="235" y="23"/>
      <point x="235" y="0"/>
    </contour>
    <contour>
      <point x="247" y="0" type="curve"/>
      <point x="247" y="237"/>
      <point x="247" y="473"/>
      <point x="247" y="710" type="curve"/>
      <point x="222" y="710"/>
      <point x="247" y="710"/>
      <point x="222" y="710" type="curve"/>
      <point x="222" y="473"/>
      <point x="222" y="237"/>
      <point x="222" y="0" type="curve"/>
      <point x="247" y="0"/>
      <point x="222" y="0"/>
    </contour>
    <contour>
      <point x="48" y="697" type="curve"/>
      <point x="173" y="697"/>
      <point x="298" y="697"/>
      <point x="422" y="697" type="curve"/>
      <point x="422" y="722"/>
      <point x="422" y="697"/>
      <point x="422" y="722" type="curve"/>
      <point x="298" y="722"/>
      <point x="173" y="722"/>
      <point x="48" y="722" type="curve"/>
      <point x="48" y="697"/>
      <point x="48" y="722"/>
    </contour>
    <contour>
      <point x="235" y="825" type="move" name="top"/>
    </contour>
    <contour>
      <point x="233" y="-91" type="move" name="bottom"/>
    </contour>
  </outline>
</glyph>
<glyph name="V" format="1">
  <advance width="534"/>
  <unicode hex="0056"/>
  <outline>
    <contour>
      <point x="411" y="722" type="curve"/>
      <point x="373" y="722"/>
      <point x="342" y="722"/>
      <point x="303" y="722" type="curve"/>
      <point x="303" y="699"/>
      <point x="303" y="722"/>
      <point x="303" y="699" type="curve"/>
      <point x="422" y="699"/>
      <point x="292" y="699"/>
      <point x="411" y="699" type="curve"/>
      <point x="411" y="722"/>
      <point x="411" y="699"/>
    </contour>
    <contour>
      <point x="85" y="722" type="curve"/>
      <point x="47" y="722"/>
      <point x="19" y="722"/>
      <point x="-19" y="722" type="curve"/>
      <point x="-19" y="699"/>
      <point x="-19" y="722"/>
      <point x="-19" y="699" type="curve"/>
      <point x="95" y="699"/>
      <point x="-29" y="699"/>
      <point x="85" y="699" type="curve"/>
      <point x="85" y="722"/>
      <point x="85" y="699"/>
    </contour>
    <contour>
      <point x="411" y="699" type="curve"/>
      <point x="526" y="699"/>
      <point x="401" y="699"/>
      <point x="516" y="699" type="curve"/>
      <point x="516" y="722"/>
      <point x="516" y="699"/>
      <point x="516" y="722" type="curve"/>
      <point x="477" y="722"/>
      <point x="449" y="722"/>
      <point x="411" y="722" type="curve"/>
      <point x="411" y="699"/>
      <point x="411" y="722"/>
    </contour>
    <contour>
      <point x="85" y="699" type="curve"/>
      <point x="205" y="699"/>
      <point x="75" y="699"/>
      <point x="195" y="699" type="curve"/>
      <point x="195" y="722"/>
      <point x="195" y="699"/>
      <point x="195" y="722" type="curve"/>
      <point x="155" y="722"/>
      <point x="125" y="722"/>
      <point x="85" y="722" type="curve"/>
      <point x="85" y="699"/>
      <point x="85" y="722"/>
    </contour>
    <contour>
      <point x="406" y="722" type="curve"/>
      <point x="350" y="481"/>
      <point x="294" y="241"/>
      <point x="238" y="0" type="curve"/>
      <point x="266" y="0"/>
      <point x="238" y="0"/>
      <point x="266" y="0" type="curve"/>
      <point x="322" y="241"/>
      <point x="377" y="481"/>
      <point x="433" y="722" type="curve"/>
      <point x="406" y="722"/>
      <point x="433" y="722"/>
    </contour>
    <contour>
      <point x="63" y="722" type="curve"/>
      <point x="120" y="481"/>
      <point x="177" y="241"/>
      <point x="234" y="0" type="curve"/>
      <point x="262" y="0"/>
      <point x="234" y="0"/>
      <point x="262" y="0" type="curve"/>
      <point x="205" y="241"/>
      <point x="148" y="481"/>
      <point x="92" y="722" type="curve"/>
      <point x="63" y="722"/>
      <point x="93" y="722"/>
    </contour>
  </outline>
</glyph>
<glyph name="X" format="1">
  <advance width="510"/>
  <unicode hex="0058"/>
  <outline>
    <contour>
      <point x="102" y="0" type="curve"/>
      <point x="139" y="0"/>
      <point x="92" y="0"/>
      <point x="206" y="0" type="curve"/>
      <point x="206" y="23"/>
      <point x="206" y="0"/>
      <point x="206" y="23" type="curve"/>
      <point x="92" y="23"/>
      <point x="216" y="23"/>
      <point x="102" y="23" type="curve"/>
      <point x="102" y="0"/>
      <point x="102" y="23"/>
    </contour>
    <contour>
      <point x="102" y="23" type="curve"/>
      <point x="-12" y="23"/>
      <point x="112" y="23"/>
      <point x="-2" y="23" type="curve"/>
      <point x="-2" y="0"/>
      <point x="-2" y="23"/>
      <point x="-2" y="0" type="curve"/>
      <point x="36" y="0"/>
      <point x="64" y="0"/>
      <point x="102" y="0" type="curve"/>
      <point x="102" y="23"/>
      <point x="102" y="0"/>
    </contour>
    <contour>
      <point x="405" y="0" type="curve"/>
      <point x="443" y="0"/>
      <point x="471" y="0"/>
      <point x="508" y="0" type="curve"/>
      <point x="508" y="23"/>
      <point x="508" y="0"/>
      <point x="508" y="23" type="curve"/>
      <point x="395" y="23"/>
      <point x="519" y="23"/>
      <point x="405" y="23" type="curve"/>
      <point x="405" y="0"/>
      <point x="405" y="23"/>
    </contour>
    <contour>
      <point x="405" y="23" type="curve"/>
      <point x="291" y="23"/>
      <point x="415" y="23"/>
      <point x="301" y="23" type="curve"/>
      <point x="301" y="0"/>
      <point x="301" y="23"/>
      <point x="301" y="0" type="curve"/>
      <point x="339" y="0"/>
      <point x="367" y="0"/>
      <point x="405" y="0" type="curve"/>
      <point x="405" y="23"/>
      <point x="405" y="0"/>
    </contour>
    <contour>
      <point x="390" y="699" type="curve"/>
      <point x="503" y="699"/>
      <point x="379" y="699"/>
      <point x="493" y="699" type="curve"/>
      <point x="493" y="722"/>
      <point x="493" y="699"/>
      <point x="493" y="722" type="curve"/>
      <point x="455" y="722"/>
      <point x="427" y="722"/>
      <point x="390" y="722" type="curve"/>
      <point x="390" y="699"/>
      <point x="390" y="722"/>
    </contour>
    <contour>
      <point x="390" y="722" type="curve"/>
      <point x="352" y="722"/>
      <point x="324" y="722"/>
      <point x="286" y="722" type="curve"/>
      <point x="286" y="699"/>
      <point x="286" y="722"/>
      <point x="286" y="699" type="curve"/>
      <point x="400" y="699"/>
      <point x="276" y="699"/>
      <point x="390" y="699" type="curve"/>
      <point x="390" y="722"/>
      <point x="390" y="699"/>
    </contour>
    <contour>
      <point x="120" y="722" type="curve"/>
      <point x="82" y="722"/>
      <point x="54" y="722"/>
      <point x="16" y="722" type="curve"/>
      <point x="16" y="699"/>
      <point x="16" y="722"/>
      <point x="16" y="699" type="curve"/>
      <point x="130" y="699"/>
      <point x="6" y="699"/>
      <point x="120" y="699" type="curve"/>
      <point x="120" y="722"/>
      <point x="120" y="699"/>
    </contour>
    <contour>
      <point x="119" y="699" type="curve"/>
      <point x="233" y="699"/>
      <point x="109" y="699"/>
      <point x="223" y="699" type="curve"/>
      <point x="223" y="722"/>
      <point x="223" y="699"/>
      <point x="223" y="722" type="curve"/>
      <point x="186" y="722"/>
      <point x="157" y="722"/>
      <point x="119" y="722" type="curve"/>
      <point x="119" y="699"/>
      <point x="119" y="722"/>
    </contour>
    <contour>
      <point x="381" y="722" type="curve"/>
      <point x="280" y="481"/>
      <point x="181" y="241"/>
      <point x="80" y="0" type="curve"/>
      <point x="111" y="0"/>
      <point x="80" y="0"/>
      <point x="111" y="0" type="curve"/>
      <point x="212" y="241"/>
      <point x="310" y="481"/>
      <point x="410" y="722" type="curve"/>
      <point x="381" y="722"/>
      <point x="410" y="722"/>
    </contour>
    <contour>
      <point x="100" y="722" type="curve"/>
      <point x="198" y="481"/>
      <point x="298" y="241"/>
      <point x="397" y="0" type="curve"/>
      <point x="428" y="0"/>
      <point x="397" y="0"/>
      <point x="428" y="0" type="curve"/>
      <point x="329" y="241"/>
      <point x="228" y="481"/>
      <point x="129" y="722" type="curve"/>
      <point x="100" y="722"/>
      <point x="129" y="722"/>
    </contour>
  </outline>
</glyph>
<glyph name="Y" format="1">
  <advance width="496"/>
  <unicode hex="0059"/>
  <outline>
    <contour>
      <point x="232" y="23" type="curve"/>
      <point x="118" y="23"/>
      <point x="242" y="23"/>
      <point x="128" y="23" type="curve"/>
      <point x="128" y="0"/>
      <point x="128" y="23"/>
      <point x="128" y="0" type="curve"/>
      <point x="166" y="0"/>
      <point x="195" y="0"/>
      <point x="232" y="0" type="curve"/>
      <point x="232" y="23"/>
      <point x="232" y="0"/>
    </contour>
    <contour>
      <point x="232" y="0" type="curve"/>
      <point x="270" y="0"/>
      <point x="298" y="0"/>
      <point x="336" y="0" type="curve"/>
      <point x="336" y="23"/>
      <point x="336" y="0"/>
      <point x="336" y="23" type="curve"/>
      <point x="222" y="23"/>
      <point x="346" y="23"/>
      <point x="232" y="23" type="curve"/>
      <point x="232" y="0"/>
      <point x="232" y="23"/>
    </contour>
    <contour>
      <point x="377" y="722" type="curve"/>
      <point x="339" y="722"/>
      <point x="311" y="722"/>
      <point x="273" y="722" type="curve"/>
      <point x="273" y="699"/>
      <point x="273" y="722"/>
      <point x="273" y="699" type="curve"/>
      <point x="387" y="699"/>
      <point x="263" y="699"/>
      <point x="377" y="699" type="curve"/>
      <point x="377" y="722"/>
      <point x="377" y="699"/>
    </contour>
    <contour>
      <point x="95" y="722" type="curve"/>
      <point x="57" y="722"/>
      <point x="29" y="722"/>
      <point x="-9" y="722" type="curve"/>
      <point x="-9" y="699"/>
      <point x="-9" y="722"/>
      <point x="-9" y="699" type="curve"/>
      <point x="105" y="699"/>
      <point x="-19" y="699"/>
      <point x="95" y="699" type="curve"/>
      <point x="95" y="722"/>
      <point x="95" y="699"/>
    </contour>
    <contour>
      <point x="95" y="699" type="curve"/>
      <point x="209" y="699"/>
      <point x="85" y="699"/>
      <point x="198" y="699" type="curve"/>
      <point x="198" y="722"/>
      <point x="198" y="699"/>
      <point x="198" y="722" type="curve"/>
      <point x="161" y="722"/>
      <point x="132" y="722"/>
      <point x="95" y="722" type="curve"/>
      <point x="95" y="699"/>
      <point x="95" y="722"/>
    </contour>
    <contour>
      <point x="377" y="699" type="curve"/>
      <point x="491" y="699"/>
      <point x="367" y="699"/>
      <point x="481" y="699" type="curve"/>
      <point x="481" y="722"/>
      <point x="481" y="699"/>
      <point x="481" y="722" type="curve"/>
      <point x="443" y="722"/>
      <point x="415" y="722"/>
      <point x="377" y="722" type="curve"/>
      <point x="377" y="699"/>
      <point x="377" y="722"/>
    </contour>
    <contour>
      <point x="76" y="722" type="curve"/>
      <point x="124" y="594"/>
      <point x="171" y="465"/>
      <point x="218" y="337" type="curve"/>
      <point x="246" y="337"/>
      <point x="218" y="336"/>
      <point x="245" y="336" type="curve"/>
      <point x="198" y="465"/>
      <point x="150" y="594"/>
      <point x="104" y="722" type="curve"/>
      <point x="76" y="722"/>
      <point x="104" y="722"/>
    </contour>
    <contour>
      <point x="368" y="722" type="curve"/>
      <point x="319" y="594"/>
      <point x="269" y="465"/>
      <point x="219" y="336" type="curve"/>
      <point x="246" y="336"/>
      <point x="218" y="337"/>
      <point x="246" y="337" type="curve"/>
      <point x="296" y="465"/>
      <point x="346" y="594"/>
      <point x="396" y="722" type="curve"/>
      <point x="368" y="722"/>
      <point x="396" y="722"/>
    </contour>
    <contour>
      <point x="246" y="0" type="curve"/>
      <point x="246" y="115"/>
      <point x="246" y="231"/>
      <point x="246" y="346" type="curve"/>
      <point x="218" y="346"/>
      <point x="246" y="346"/>
      <point x="218" y="346" type="curve"/>
      <point x="218" y="231"/>
      <point x="218" y="115"/>
      <point x="218" y="0" type="curve"/>
      <point x="246" y="0"/>
      <point x="218" y="0"/>
    </contour>
    <contour>
      <point x="234" y="825" type="move" name="top"/>
    </contour>
  </outline>
</glyph>
<glyph name="bracketleft" format="1">
  <advance width="219"/>
  <unicode hex="005B"/>
  <outline>
    <contour>
      <point x="181" y="771" type="curve"/>
      <point x="151" y="771"/>
      <point x="120" y="771"/>
      <point x="88" y="771" type="curve"/>
      <point x="86" y="771"/>
      <point x="82" y="771"/>
      <point x="80" y="771" type="curve"/>
      <point x="80" y="769"/>
      <point x="80" y="767"/>
      <point x="80" y="764" type="curve"/>
      <point x="80" y="470"/>
      <point x="80" y="175"/>
      <point x="80" y="-119" type="curve"/>
      <point x="80" y="-121"/>
      <point x="80" y="-123"/>
      <point x="80" y="-124" type="curve"/>
      <point x="83" y="-124"/>
      <point x="86" y="-124"/>
      <point x="87" y="-124" type="curve"/>
      <point x="119" y="-124"/>
      <point x="150" y="-124"/>
      <point x="181" y="-124" type="curve"/>
      <point x="181" y="-99"/>
      <point x="181" y="-124"/>
      <point x="181" y="-99" type="curve"/>
      <point x="150" y="-99"/>
      <point x="119" y="-99"/>
      <point x="87" y="-99" type="curve"/>
      <point x="105" y="-99"/>
      <point x="87" y="-99"/>
      <point x="105" y="-99" type="curve"/>
      <point x="105" y="-119"/>
      <point x="105" y="-99"/>
      <point x="105" y="-119" type="curve"/>
      <point x="105" y="175"/>
      <point x="105" y="470"/>
      <point x="105" y="764" type="curve"/>
      <point x="105" y="746"/>
      <point x="105" y="764"/>
      <point x="105" y="746" type="curve"/>
      <point x="88" y="746"/>
      <point x="105" y="746"/>
      <point x="88" y="746" type="curve"/>
      <point x="120" y="746"/>
      <point x="151" y="746"/>
      <point x="181" y="746" type="curve"/>
      <point x="181" y="771"/>
      <point x="181" y="746"/>
    </contour>
  </outline>
</glyph>
<glyph name="backslash" format="1">
  <advance width="345"/>
  <unicode hex="005C"/>
  <outline>
    <contour>
      <point x="304" y="-68" type="curve"/>
      <point x="226" y="236"/>
      <point x="146" y="540"/>
      <point x="68" y="844" type="curve"/>
      <point x="41" y="844"/>
      <point x="68" y="844"/>
      <point x="41" y="844" type="curve"/>
      <point x="120" y="540"/>
      <point x="198" y="236"/>
      <point x="278" y="-68" type="curve"/>
      <point x="304" y="-68"/>
      <point x="278" y="-68"/>
    </contour>
  </outline>
</glyph>
<glyph name="bracketright" format="1">
  <advance width="221"/>
  <unicode hex="005D"/>
  <outline>
    <contour>
      <point x="39" y="746" type="curve"/>
      <point x="70" y="746"/>
      <point x="101" y="746"/>
      <point x="132" y="746" type="curve"/>
      <point x="129" y="749"/>
      <point x="125" y="751"/>
      <point x="123" y="755" type="curve"/>
      <point x="120" y="758"/>
      <point x="117" y="761"/>
      <point x="115" y="764" type="curve"/>
      <point x="115" y="470"/>
      <point x="114" y="175"/>
      <point x="115" y="-119" type="curve"/>
      <point x="117" y="-115"/>
      <point x="121" y="-112"/>
      <point x="124" y="-108" type="curve"/>
      <point x="126" y="-105"/>
      <point x="130" y="-103"/>
      <point x="132" y="-99" type="curve"/>
      <point x="101" y="-99"/>
      <point x="70" y="-99"/>
      <point x="39" y="-99" type="curve"/>
      <point x="39" y="-124"/>
      <point x="39" y="-99"/>
      <point x="39" y="-124" type="curve"/>
      <point x="70" y="-124"/>
      <point x="101" y="-124"/>
      <point x="132" y="-124" type="curve"/>
      <point x="140" y="-124"/>
      <point x="132" y="-124"/>
      <point x="140" y="-124" type="curve"/>
      <point x="140" y="-119"/>
      <point x="140" y="-124"/>
      <point x="140" y="-119" type="curve"/>
      <point x="140" y="175"/>
      <point x="140" y="470"/>
      <point x="140" y="764" type="curve"/>
      <point x="140" y="771"/>
      <point x="140" y="764"/>
      <point x="140" y="771" type="curve"/>
      <point x="132" y="771"/>
      <point x="140" y="771"/>
      <point x="132" y="771" type="curve"/>
      <point x="101" y="771"/>
      <point x="70" y="771"/>
      <point x="39" y="771" type="curve"/>
      <point x="39" y="746"/>
      <point x="39" y="771"/>
    </contour>
  </outline>
</glyph>
<glyph name="asciicircum" format="1">
  <advance width="382"/>
  <unicode hex="005E"/>
  <outline>
    <contour>
      <point x="98" y="466" type="curve"/>
      <point x="134" y="581"/>
      <point x="169" y="695"/>
      <point x="203" y="809" type="curve"/>
      <point x="178" y="809"/>
      <point x="204" y="809"/>
      <point x="178" y="809" type="curve"/>
      <point x="143" y="695"/>
      <point x="109" y="581"/>
      <point x="73" y="466" type="curve"/>
      <point x="98" y="466"/>
      <point x="73" y="466"/>
    </contour>
    <contour>
      <point x="310" y="466" type="curve"/>
      <point x="276" y="577"/>
      <point x="237" y="699"/>
      <point x="203" y="809" type="curve"/>
      <point x="178" y="809"/>
      <point x="203" y="809"/>
      <point x="178" y="809" type="curve"/>
      <point x="213" y="699"/>
      <point x="251" y="577"/>
      <point x="285" y="466" type="curve"/>
      <point x="310" y="466"/>
      <point x="285" y="466"/>
    </contour>
  </outline>
</glyph>
<glyph name="underscore" format="1">
  <advance width="412"/>
  <unicode hex="005F"/>
  <outline>
    <contour>
      <point x="-1" y="-210" type="curve"/>
      <point x="137" y="-210"/>
      <point x="274" y="-210"/>
      <point x="411" y="-210" type="curve"/>
      <point x="411" y="-187"/>
      <point x="411" y="-210"/>
      <point x="411" y="-187" type="curve"/>
      <point x="274" y="-187"/>
      <point x="137" y="-187"/>
      <point x="-1" y="-187" type="curve"/>
      <point x="-1" y="-210"/>
      <point x="-1" y="-187"/>
    </contour>
  </outline>
</glyph>
<glyph name="grave" format="1">
  <advance width="323"/>
  <unicode hex="0060"/>
  <outline>
    <contour>
      <point x="136" y="590" type="line"/>
      <point x="88" y="756" type="line"/>
      <point x="57" y="756" type="line"/>
      <point x="111" y="590" type="line"/>
    </contour>
    <contour>
      <point x="122" y="590" type="move" name="_top"/>
    </contour>
  </outline>
</glyph>
<glyph name="b" format="1">
  <advance width="441"/>
  <unicode hex="0062"/>
  <outline>
    <contour>
      <point x="111" y="800" type="curve"/>
      <point x="73" y="800"/>
      <point x="45" y="800"/>
      <point x="7" y="800" type="curve"/>
      <point x="7" y="777"/>
      <point x="7" y="800"/>
      <point x="7" y="777" type="curve"/>
      <point x="121" y="777"/>
      <point x="-3" y="777"/>
      <point x="111" y="777" type="curve"/>
      <point x="111" y="800"/>
      <point x="111" y="777"/>
    </contour>
    <contour>
      <point x="116" y="404" type="curve"/>
      <point x="125" y="449"/>
      <point x="169" y="515"/>
      <point x="232" y="515" type="curve"/>
      <point x="331" y="515"/>
      <point x="353" y="395"/>
      <point x="353" y="270" type="curve"/>
      <point x="353" y="149"/>
      <point x="323" y="18"/>
      <point x="232" y="18" type="curve"/>
      <point x="179" y="18"/>
      <point x="134" y="75"/>
      <point x="117" y="140" type="curve"/>
      <point x="100" y="126"/>
      <point x="121" y="134"/>
      <point x="103" y="120" type="curve"/>
      <point x="123" y="53"/>
      <point x="167" y="-5"/>
      <point x="232" y="-5" type="curve"/>
      <point x="351" y="-5"/>
      <point x="378" y="126"/>
      <point x="378" y="271" type="curve"/>
      <point x="378" y="409"/>
      <point x="354" y="538"/>
      <point x="231" y="538" type="curve"/>
      <point x="159" y="538"/>
      <point x="113" y="478"/>
      <point x="104" y="429" type="curve"/>
      <point x="117" y="412"/>
      <point x="104" y="422"/>
    </contour>
    <contour>
      <point x="122" y="0" type="curve"/>
      <point x="122" y="267"/>
      <point x="122" y="533"/>
      <point x="122" y="800" type="curve"/>
      <point x="96" y="800"/>
      <point x="122" y="800"/>
      <point x="96" y="800" type="curve"/>
      <point x="96" y="533"/>
      <point x="96" y="267"/>
      <point x="96" y="0" type="curve"/>
      <point x="122" y="0"/>
      <point x="96" y="0"/>
    </contour>
    <contour>
      <point x="111" y="23" type="curve"/>
      <point x="-3" y="23"/>
      <point x="121" y="23"/>
      <point x="7" y="23" type="curve"/>
      <point x="7" y="0"/>
      <point x="7" y="23"/>
      <point x="7" y="0" type="curve"/>
      <point x="45" y="0"/>
      <point x="73" y="0"/>
      <point x="111" y="0" type="curve"/>
      <point x="111" y="23"/>
      <point x="111" y="0"/>
    </contour>
  </outline>
</glyph>
<glyph name="f" format="1">
  <advance width="307"/>
  <unicode hex="0066"/>
  <outline>
    <contour>
      <point x="277" y="778" type="curve"/>
      <point x="277" y="658"/>
      <point x="277" y="789"/>
      <point x="277" y="669" type="curve"/>
      <point x="299" y="669"/>
      <point x="277" y="669"/>
      <point x="299" y="669" type="curve"/>
      <point x="299" y="789"/>
      <point x="299" y="658"/>
      <point x="299" y="778" type="curve"/>
      <point x="277" y="778"/>
      <point x="299" y="778"/>
    </contour>
    <contour>
      <point x="150" y="0" type="curve"/>
      <point x="187" y="0"/>
      <point x="216" y="0"/>
      <point x="253" y="0" type="curve"/>
      <point x="253" y="23"/>
      <point x="253" y="0"/>
      <point x="253" y="23" type="curve"/>
      <point x="140" y="23"/>
      <point x="264" y="23"/>
      <point x="150" y="23" type="curve"/>
      <point x="150" y="0"/>
      <point x="150" y="23"/>
    </contour>
    <contour>
      <point x="150" y="23" type="curve"/>
      <point x="36" y="23"/>
      <point x="160" y="23"/>
      <point x="46" y="23" type="curve"/>
      <point x="46" y="0"/>
      <point x="46" y="23"/>
      <point x="46" y="0" type="curve"/>
      <point x="84" y="0"/>
      <point x="112" y="0"/>
      <point x="150" y="0" type="curve"/>
      <point x="150" y="23"/>
      <point x="150" y="0"/>
    </contour>
    <contour>
      <point x="38" y="510" type="curve"/>
      <point x="259" y="510" type="line"/>
      <point x="259" y="533"/>
      <point x="259" y="510"/>
      <point x="259" y="533" type="curve"/>
      <point x="38" y="533" type="line"/>
      <point x="38" y="510"/>
      <point x="38" y="533"/>
    </contour>
    <contour>
      <point x="162" y="0" type="curve"/>
      <point x="162" y="640" type="line"/>
      <point x="162" y="715"/>
      <point x="174" y="783"/>
      <point x="233" y="783" type="curve"/>
      <point x="254" y="783"/>
      <point x="273" y="774"/>
      <point x="289" y="760" type="curve"/>
      <point x="299" y="778"/>
      <point x="289" y="760"/>
      <point x="299" y="778" type="curve"/>
      <point x="280" y="794"/>
      <point x="257" y="805"/>
      <point x="233" y="805" type="curve"/>
      <point x="158" y="805"/>
      <point x="136" y="726"/>
      <point x="137" y="640" type="curve"/>
      <point x="137" y="0" type="line"/>
      <point x="162" y="0"/>
      <point x="137" y="0"/>
    </contour>
  </outline>
</glyph>
<glyph name="g" format="1">
  <advance width="366"/>
  <unicode hex="0067"/>
  <outline>
    <contour>
      <point x="254" y="499" type="curve"/>
      <point x="345" y="581" type="line"/>
      <point x="329" y="602"/>
      <point x="346" y="579"/>
      <point x="330" y="600" type="curve"/>
      <point x="240" y="517" type="line"/>
      <point x="254" y="499"/>
      <point x="240" y="517"/>
    </contour>
    <contour>
      <point x="95" y="358" type="curve"/>
      <point x="95" y="438"/>
      <point x="119" y="516"/>
      <point x="189" y="516" type="curve"/>
      <point x="259" y="516"/>
      <point x="280" y="442"/>
      <point x="280" y="361" type="curve"/>
      <point x="280" y="285"/>
      <point x="257" y="210"/>
      <point x="188" y="210" type="curve"/>
      <point x="121" y="210"/>
      <point x="95" y="281"/>
      <point x="95" y="358" type="curve"/>
      <point x="70" y="357"/>
      <point x="95" y="358"/>
      <point x="70" y="357" type="curve"/>
      <point x="70" y="266"/>
      <point x="106" y="189"/>
      <point x="186" y="189" type="curve"/>
      <point x="268" y="189"/>
      <point x="305" y="268"/>
      <point x="305" y="362" type="curve"/>
      <point x="305" y="455"/>
      <point x="271" y="538"/>
      <point x="189" y="538" type="curve"/>
      <point x="103" y="538"/>
      <point x="70" y="453"/>
      <point x="70" y="357" type="curve"/>
      <point x="95" y="358"/>
      <point x="70" y="357"/>
    </contour>
    <contour>
      <point x="119" y="228" type="curve"/>
      <point x="86" y="195"/>
      <point x="73" y="157"/>
      <point x="73" y="109" type="curve"/>
      <point x="73" y="43"/>
      <point x="117" y="-4"/>
      <point x="183" y="-13" type="curve"/>
      <point x="259" y="-23"/>
      <point x="314" y="-70"/>
      <point x="314" y="-144" type="curve"/>
      <point x="314" y="-222"/>
      <point x="264" y="-282"/>
      <point x="186" y="-282" type="curve"/>
      <point x="111" y="-282"/>
      <point x="69" y="-215"/>
      <point x="69" y="-134" type="curve"/>
      <point x="69" y="-73"/>
      <point x="84" y="-22"/>
      <point x="134" y="11" type="curve"/>
      <point x="123" y="27"/>
      <point x="134" y="11"/>
      <point x="123" y="27" type="curve"/>
      <point x="65" y="-12"/>
      <point x="44" y="-66"/>
      <point x="44" y="-135" type="curve"/>
      <point x="44" y="-228"/>
      <point x="95" y="-304"/>
      <point x="185" y="-304" type="curve"/>
      <point x="277" y="-304"/>
      <point x="338" y="-235"/>
      <point x="337" y="-142" type="curve"/>
      <point x="337" y="-58"/>
      <point x="275" y="-4"/>
      <point x="189" y="9" type="curve"/>
      <point x="133" y="15"/>
      <point x="98" y="57"/>
      <point x="98" y="112" type="curve"/>
      <point x="98" y="152"/>
      <point x="104" y="186"/>
      <point x="134" y="214" type="curve"/>
      <point x="119" y="228"/>
      <point x="134" y="214"/>
    </contour>
    <contour>
      <point x="187" y="670" type="move" name="top"/>
    </contour>
  </outline>
</glyph>
<glyph name="h" format="1">
  <advance width="442"/>
  <unicode hex="0068"/>
  <outline>
    <contour>
      <point x="335" y="0" type="curve"/>
      <point x="372" y="0"/>
      <point x="401" y="0"/>
      <point x="439" y="0" type="curve"/>
      <point x="439" y="23"/>
      <point x="439" y="0"/>
      <point x="439" y="23" type="curve"/>
      <point x="325" y="23"/>
      <point x="449" y="23"/>
      <point x="335" y="23" type="curve"/>
      <point x="335" y="0"/>
      <point x="335" y="23"/>
    </contour>
    <contour>
      <point x="111" y="0" type="curve"/>
      <point x="142" y="0"/>
      <point x="102" y="0"/>
      <point x="197" y="0" type="curve"/>
      <point x="197" y="23"/>
      <point x="197" y="0"/>
      <point x="197" y="23" type="curve"/>
      <point x="102" y="23"/>
      <point x="206" y="23"/>
      <point x="111" y="23" type="curve"/>
      <point x="111" y="0"/>
      <point x="111" y="23"/>
    </contour>
    <contour>
      <point x="111" y="800" type="curve"/>
      <point x="73" y="800"/>
      <point x="45" y="800"/>
      <point x="7" y="800" type="curve"/>
      <point x="7" y="777"/>
      <point x="7" y="800"/>
      <point x="7" y="777" type="curve"/>
      <point x="121" y="777"/>
      <point x="-3" y="777"/>
      <point x="111" y="777" type="curve"/>
      <point x="111" y="800"/>
      <point x="111" y="777"/>
    </contour>
    <contour>
      <point x="111" y="23" type="curve"/>
      <point x="-3" y="23"/>
      <point x="121" y="23"/>
      <point x="7" y="23" type="curve"/>
      <point x="7" y="0"/>
      <point x="7" y="23"/>
      <point x="7" y="0" type="curve"/>
      <point x="45" y="0"/>
      <point x="73" y="0"/>
      <point x="111" y="0" type="curve"/>
      <point x="111" y="23"/>
      <point x="111" y="0"/>
    </contour>
    <contour>
      <point x="117" y="352" type="curve"/>
      <point x="124" y="422"/>
      <point x="167" y="515"/>
      <point x="237" y="515" type="curve"/>
      <point x="316" y="515"/>
      <point x="323" y="434"/>
      <point x="323" y="341" type="curve"/>
      <point x="323" y="228"/>
      <point x="323" y="114"/>
      <point x="323" y="0" type="curve"/>
      <point x="348" y="0"/>
      <point x="323" y="0"/>
      <point x="348" y="0" type="curve"/>
      <point x="348" y="115"/>
      <point x="348" y="229"/>
      <point x="348" y="344" type="curve"/>
      <point x="348" y="450"/>
      <point x="332" y="538"/>
      <point x="241" y="538" type="curve"/>
      <point x="162" y="538"/>
      <point x="111" y="448"/>
      <point x="105" y="371" type="curve"/>
      <point x="120" y="356"/>
      <point x="101" y="367"/>
    </contour>
    <contour>
      <point x="123" y="0" type="curve"/>
      <point x="123" y="267"/>
      <point x="123" y="533"/>
      <point x="123" y="800" type="curve"/>
      <point x="98" y="800"/>
      <point x="123" y="800"/>
      <point x="98" y="800" type="curve"/>
      <point x="98" y="533"/>
      <point x="98" y="267"/>
      <point x="98" y="0" type="curve"/>
      <point x="123" y="0"/>
      <point x="98" y="0"/>
    </contour>
  </outline>
</glyph>
<glyph name="i" format="1">
  <advance width="244"/>
  <unicode hex="0069"/>
  <outline>
    <contour>
      <point x="137" y="23" type="curve"/>
      <point x="23" y="23"/>
      <point x="148" y="23"/>
      <point x="34" y="23" type="curve"/>
      <point x="34" y="0"/>
      <point x="34" y="23"/>
      <point x="34" y="0" type="curve"/>
      <point x="71" y="0"/>
      <point x="100" y="0"/>
      <point x="137" y="0" type="curve"/>
      <point x="137" y="23"/>
      <point x="137" y="0"/>
    </contour>
    <contour>
      <point x="137" y="0" type="curve"/>
      <point x="172" y="0"/>
      <point x="199" y="0"/>
      <point x="235" y="0" type="curve"/>
      <point x="235" y="23"/>
      <point x="235" y="0"/>
      <point x="235" y="23" type="curve"/>
      <point x="127" y="23"/>
      <point x="245" y="23"/>
      <point x="137" y="23" type="curve"/>
      <point x="137" y="0"/>
      <point x="137" y="23"/>
    </contour>
    <contour>
      <point x="137" y="533" type="curve"/>
      <point x="100" y="533"/>
      <point x="71" y="533"/>
      <point x="34" y="533" type="curve"/>
      <point x="34" y="510"/>
      <point x="34" y="533"/>
      <point x="34" y="510" type="curve"/>
      <point x="148" y="510"/>
      <point x="23" y="510"/>
      <point x="137" y="510" type="curve"/>
      <point x="137" y="533"/>
      <point x="137" y="510"/>
    </contour>
    <contour>
      <point x="151" y="0" type="curve"/>
      <point x="151" y="178"/>
      <point x="151" y="355"/>
      <point x="151" y="533" type="curve"/>
      <point x="124" y="533"/>
      <point x="151" y="533"/>
      <point x="124" y="533" type="curve"/>
      <point x="124" y="355"/>
      <point x="124" y="178"/>
      <point x="124" y="0" type="curve"/>
      <point x="151" y="0"/>
      <point x="124" y="0"/>
    </contour>
    <contour>
      <point x="153" y="685" type="curve"/>
      <point x="153" y="696"/>
      <point x="146" y="702"/>
      <point x="135" y="702" type="curve"/>
      <point x="124" y="702"/>
      <point x="118" y="695"/>
      <point x="118" y="685" type="curve"/>
      <point x="157" y="685"/>
      <point x="114" y="685"/>
      <point x="153" y="685" type="curve"/>
      <point x="153" y="674"/>
      <point x="146" y="668"/>
      <point x="135" y="668" type="curve"/>
      <point x="124" y="668"/>
      <point x="118" y="674"/>
      <point x="118" y="685" type="curve"/>
      <point x="157" y="685"/>
      <point x="114" y="685"/>
    </contour>
    <contour>
      <point x="136" y="671" type="move" name="top"/>
    </contour>
    <contour>
      <point x="151" y="0" type="move" name="bottom"/>
    </contour>
  </outline>
</glyph>
<glyph name="j" format="1">
  <advance width="228"/>
  <unicode hex="006A"/>
  <outline>
    <contour>
      <point x="115" y="533" type="curve"/>
      <point x="76" y="533"/>
      <point x="48" y="533"/>
      <point x="10" y="533" type="curve"/>
      <point x="10" y="510"/>
      <point x="10" y="533"/>
      <point x="10" y="510" type="curve"/>
      <point x="125" y="510"/>
      <point x="0" y="510"/>
      <point x="115" y="510" type="curve"/>
      <point x="115" y="533"/>
      <point x="115" y="510"/>
    </contour>
    <contour>
      <point x="7" y="-301" type="curve"/>
      <point x="12" y="-302"/>
      <point x="19" y="-304"/>
      <point x="26" y="-304" type="curve"/>
      <point x="98" y="-304"/>
      <point x="128" y="-223"/>
      <point x="128" y="-142" type="curve"/>
      <point x="128" y="83"/>
      <point x="128" y="308"/>
      <point x="128" y="533" type="curve"/>
      <point x="102" y="533"/>
      <point x="128" y="533"/>
      <point x="102" y="533" type="curve"/>
      <point x="102" y="308"/>
      <point x="102" y="83"/>
      <point x="102" y="-142" type="curve"/>
      <point x="102" y="-202"/>
      <point x="81" y="-277"/>
      <point x="27" y="-277" type="curve"/>
      <point x="22" y="-277"/>
      <point x="15" y="-276"/>
      <point x="12" y="-275" type="curve"/>
      <point x="8" y="-296"/>
      <point x="11" y="-279"/>
    </contour>
    <contour>
      <point x="134" y="686" type="curve"/>
      <point x="134" y="698"/>
      <point x="127" y="704"/>
      <point x="116" y="704" type="curve"/>
      <point x="105" y="704"/>
      <point x="99" y="696"/>
      <point x="99" y="686" type="curve"/>
      <point x="138" y="686"/>
      <point x="95" y="686"/>
      <point x="134" y="686" type="curve"/>
      <point x="134" y="675"/>
      <point x="127" y="669"/>
      <point x="116" y="669" type="curve"/>
      <point x="105" y="669"/>
      <point x="99" y="675"/>
      <point x="99" y="686" type="curve"/>
      <point x="138" y="686"/>
      <point x="95" y="686"/>
    </contour>
  </outline>
</glyph>
<glyph name="m" format="1">
  <advance width="647"/>
  <unicode hex="006D"/>
  <outline>
    <contour>
      <point x="339" y="0" type="curve"/>
      <point x="428" y="0"/>
      <point x="340" y="0"/>
      <point x="429" y="0" type="curve"/>
      <point x="429" y="23"/>
      <point x="429" y="0"/>
      <point x="429" y="23" type="curve"/>
      <point x="340" y="23"/>
      <point x="428" y="23"/>
      <point x="339" y="23" type="curve"/>
      <point x="339" y="0"/>
      <point x="339" y="23"/>
    </contour>
    <contour>
      <point x="539" y="0" type="curve"/>
      <point x="577" y="0"/>
      <point x="605" y="0"/>
      <point x="643" y="0" type="curve"/>
      <point x="643" y="23"/>
      <point x="643" y="0"/>
      <point x="643" y="23" type="curve"/>
      <point x="529" y="23"/>
      <point x="653" y="23"/>
      <point x="539" y="23" type="curve"/>
      <point x="539" y="0"/>
      <point x="539" y="23"/>
    </contour>
    <contour>
      <point x="138" y="23" type="curve"/>
      <point x="24" y="23"/>
      <point x="148" y="23"/>
      <point x="34" y="23" type="curve"/>
      <point x="34" y="0"/>
      <point x="34" y="23"/>
      <point x="34" y="0" type="curve"/>
      <point x="72" y="0"/>
      <point x="100" y="0"/>
      <point x="138" y="0" type="curve"/>
      <point x="138" y="23"/>
      <point x="138" y="0"/>
    </contour>
    <contour>
      <point x="138" y="0" type="curve"/>
      <point x="172" y="0"/>
      <point x="116" y="0"/>
      <point x="218" y="0" type="curve"/>
      <point x="218" y="23"/>
      <point x="218" y="0"/>
      <point x="218" y="23" type="curve"/>
      <point x="116" y="23"/>
      <point x="240" y="23"/>
      <point x="138" y="23" type="curve"/>
      <point x="138" y="0"/>
      <point x="138" y="23"/>
    </contour>
    <contour>
      <point x="138" y="533" type="curve"/>
      <point x="100" y="533"/>
      <point x="72" y="533"/>
      <point x="34" y="533" type="curve"/>
      <point x="34" y="510"/>
      <point x="34" y="533"/>
      <point x="34" y="510" type="curve"/>
      <point x="148" y="510"/>
      <point x="24" y="510"/>
      <point x="138" y="510" type="curve"/>
      <point x="138" y="533"/>
      <point x="138" y="510"/>
    </contour>
    <contour>
      <point x="345" y="353" type="curve"/>
      <point x="362" y="430"/>
      <point x="390" y="516"/>
      <point x="452" y="516" type="curve"/>
      <point x="534" y="516"/>
      <point x="526" y="439"/>
      <point x="526" y="341" type="curve"/>
      <point x="526" y="228"/>
      <point x="526" y="114"/>
      <point x="526" y="0" type="curve"/>
      <point x="551" y="0"/>
      <point x="526" y="0"/>
      <point x="551" y="0" type="curve"/>
      <point x="551" y="115"/>
      <point x="551" y="229"/>
      <point x="551" y="344" type="curve"/>
      <point x="551" y="455"/>
      <point x="550" y="538"/>
      <point x="456" y="538" type="curve"/>
      <point x="375" y="538"/>
      <point x="345" y="451"/>
      <point x="333" y="365" type="curve"/>
      <point x="345" y="353"/>
      <point x="332" y="365"/>
    </contour>
    <contour>
      <point x="145" y="353" type="curve"/>
      <point x="158" y="426"/>
      <point x="185" y="517"/>
      <point x="251" y="517" type="curve"/>
      <point x="333" y="517"/>
      <point x="326" y="439"/>
      <point x="326" y="341" type="curve"/>
      <point x="326" y="228"/>
      <point x="326" y="114"/>
      <point x="326" y="0" type="curve"/>
      <point x="351" y="0"/>
      <point x="326" y="0"/>
      <point x="351" y="0" type="curve"/>
      <point x="351" y="115"/>
      <point x="351" y="229"/>
      <point x="351" y="344" type="curve"/>
      <point x="351" y="455"/>
      <point x="351" y="539"/>
      <point x="257" y="539" type="curve"/>
      <point x="172" y="539"/>
      <point x="145" y="452"/>
      <point x="133" y="365" type="curve"/>
      <point x="145" y="353"/>
      <point x="133" y="365"/>
    </contour>
    <contour>
      <point x="150" y="0" type="curve"/>
      <point x="150" y="178"/>
      <point x="150" y="355"/>
      <point x="150" y="533" type="curve"/>
      <point x="125" y="533"/>
      <point x="150" y="533"/>
      <point x="125" y="533" type="curve"/>
      <point x="125" y="355"/>
      <point x="125" y="178"/>
      <point x="125" y="0" type="curve"/>
      <point x="150" y="0"/>
      <point x="125" y="0"/>
    </contour>
  </outline>
</glyph>
<glyph name="p" format="1">
  <advance width="448"/>
  <unicode hex="0070"/>
  <outline>
    <contour>
      <point x="108" y="-277" type="curve"/>
      <point x="-4" y="-277"/>
      <point x="118" y="-277"/>
      <point x="6" y="-277" type="curve"/>
      <point x="6" y="-300"/>
      <point x="6" y="-277"/>
      <point x="6" y="-300" type="curve"/>
      <point x="43" y="-300"/>
      <point x="71" y="-300"/>
      <point x="108" y="-300" type="curve"/>
      <point x="108" y="-277"/>
      <point x="108" y="-300"/>
    </contour>
    <contour>
      <point x="108" y="-300" type="curve"/>
      <point x="144" y="-300"/>
      <point x="169" y="-300"/>
      <point x="204" y="-300" type="curve"/>
      <point x="204" y="-277"/>
      <point x="204" y="-300"/>
      <point x="204" y="-277" type="curve"/>
      <point x="98" y="-277"/>
      <point x="215" y="-277"/>
      <point x="108" y="-277" type="curve"/>
      <point x="108" y="-300"/>
      <point x="108" y="-277"/>
    </contour>
    <contour>
      <point x="109" y="533" type="curve"/>
      <point x="72" y="533"/>
      <point x="44" y="533"/>
      <point x="7" y="533" type="curve"/>
      <point x="7" y="510"/>
      <point x="7" y="533"/>
      <point x="7" y="510" type="curve"/>
      <point x="119" y="510"/>
      <point x="-3" y="510"/>
      <point x="109" y="510" type="curve"/>
      <point x="109" y="533"/>
      <point x="109" y="510"/>
    </contour>
    <contour>
      <point x="115" y="401" type="curve"/>
      <point x="126" y="449"/>
      <point x="174" y="516"/>
      <point x="236" y="516" type="curve"/>
      <point x="341" y="516"/>
      <point x="359" y="400"/>
      <point x="359" y="276" type="curve"/>
      <point x="361" y="143"/>
      <point x="339" y="18"/>
      <point x="234" y="18" type="curve"/>
      <point x="174" y="18"/>
      <point x="139" y="66"/>
      <point x="117" y="122" type="curve"/>
      <point x="100" y="110"/>
      <point x="117" y="122"/>
      <point x="100" y="110" type="curve"/>
      <point x="125" y="43"/>
      <point x="166" y="-5"/>
      <point x="235" y="-5" type="curve"/>
      <point x="366" y="-5"/>
      <point x="384" y="131"/>
      <point x="385" y="278" type="curve"/>
      <point x="385" y="413"/>
      <point x="360" y="538"/>
      <point x="237" y="538" type="curve"/>
      <point x="163" y="538"/>
      <point x="117" y="476"/>
      <point x="102" y="426" type="curve"/>
      <point x="119" y="405"/>
      <point x="98" y="423"/>
    </contour>
    <contour>
      <point x="121" y="-300" type="curve"/>
      <point x="121" y="-22"/>
      <point x="121" y="255"/>
      <point x="121" y="533" type="curve"/>
      <point x="95" y="533"/>
      <point x="121" y="533"/>
      <point x="95" y="533" type="curve"/>
      <point x="95" y="255"/>
      <point x="95" y="-22"/>
      <point x="95" y="-300" type="curve"/>
      <point x="121" y="-300"/>
      <point x="95" y="-300"/>
    </contour>
  </outline>
</glyph>
<glyph name="q" format="1">
  <advance width="440"/>
  <unicode hex="0071"/>
  <outline>
    <contour>
      <point x="335" y="510" type="curve"/>
      <point x="443" y="510"/>
      <point x="325" y="510"/>
      <point x="433" y="510" type="curve"/>
      <point x="433" y="533"/>
      <point x="433" y="510"/>
      <point x="433" y="533" type="curve"/>
      <point x="397" y="533"/>
      <point x="370" y="533"/>
      <point x="335" y="533" type="curve"/>
      <point x="335" y="510"/>
      <point x="335" y="533"/>
    </contour>
    <contour>
      <point x="335" y="-277" type="curve"/>
      <point x="221" y="-277"/>
      <point x="346" y="-277"/>
      <point x="231" y="-277" type="curve"/>
      <point x="231" y="-300"/>
      <point x="231" y="-277"/>
      <point x="231" y="-300" type="curve"/>
      <point x="269" y="-300"/>
      <point x="298" y="-300"/>
      <point x="335" y="-300" type="curve"/>
      <point x="335" y="-277"/>
      <point x="335" y="-300"/>
    </contour>
    <contour>
      <point x="335" y="-300" type="curve"/>
      <point x="370" y="-300"/>
      <point x="397" y="-300"/>
      <point x="433" y="-300" type="curve"/>
      <point x="433" y="-277"/>
      <point x="433" y="-300"/>
      <point x="433" y="-277" type="curve"/>
      <point x="325" y="-277"/>
      <point x="443" y="-277"/>
      <point x="335" y="-277" type="curve"/>
      <point x="335" y="-300"/>
      <point x="335" y="-277"/>
    </contour>
    <contour>
      <point x="340" y="432" type="curve"/>
      <point x="319" y="503"/>
      <point x="263" y="538"/>
      <point x="207" y="538" type="curve"/>
      <point x="82" y="538"/>
      <point x="61" y="405"/>
      <point x="61" y="264" type="curve"/>
      <point x="62" y="124"/>
      <point x="88" y="-6"/>
      <point x="211" y="-6" type="curve"/>
      <point x="275" y="-6"/>
      <point x="325" y="56"/>
      <point x="340" y="121" type="curve"/>
      <point x="326" y="134"/>
      <point x="341" y="126"/>
      <point x="326" y="139" type="curve"/>
      <point x="312" y="78"/>
      <point x="266" y="17"/>
      <point x="211" y="17" type="curve"/>
      <point x="106" y="17"/>
      <point x="87" y="139"/>
      <point x="87" y="265" type="curve"/>
      <point x="87" y="392"/>
      <point x="104" y="515"/>
      <point x="208" y="515" type="curve"/>
      <point x="259" y="515"/>
      <point x="308" y="478"/>
      <point x="329" y="411" type="curve"/>
      <point x="341" y="426"/>
      <point x="328" y="418"/>
    </contour>
    <contour>
      <point x="347" y="-300" type="curve"/>
      <point x="347" y="-22"/>
      <point x="347" y="255"/>
      <point x="347" y="533" type="curve"/>
      <point x="321" y="533"/>
      <point x="347" y="533"/>
      <point x="321" y="533" type="curve"/>
      <point x="321" y="255"/>
      <point x="321" y="-22"/>
      <point x="321" y="-300" type="curve"/>
      <point x="347" y="-300"/>
      <point x="321" y="-300"/>
    </contour>
  </outline>
</glyph>
<glyph name="r" format="1">
  <advance width="318"/>
  <unicode hex="0072"/>
  <outline>
    <contour>
      <point x="137" y="0" type="curve"/>
      <point x="173" y="0"/>
      <point x="200" y="0"/>
      <point x="235" y="0" type="curve"/>
      <point x="235" y="23"/>
      <point x="235" y="0"/>
      <point x="235" y="23" type="curve"/>
      <point x="127" y="23"/>
      <point x="245" y="23"/>
      <point x="137" y="23" type="curve"/>
      <point x="137" y="0"/>
      <point x="137" y="23"/>
    </contour>
    <contour>
      <point x="137" y="23" type="curve"/>
      <point x="23" y="23"/>
      <point x="148" y="23"/>
      <point x="34" y="23" type="curve"/>
      <point x="34" y="0"/>
      <point x="34" y="23"/>
      <point x="34" y="0" type="curve"/>
      <point x="71" y="0"/>
      <point x="100" y="0"/>
      <point x="137" y="0" type="curve"/>
      <point x="137" y="23"/>
      <point x="137" y="0"/>
    </contour>
    <contour>
      <point x="138" y="533" type="curve"/>
      <point x="100" y="533"/>
      <point x="71" y="533"/>
      <point x="34" y="533" type="curve"/>
      <point x="34" y="510"/>
      <point x="34" y="533"/>
      <point x="34" y="510" type="curve"/>
      <point x="148" y="510"/>
      <point x="23" y="510"/>
      <point x="138" y="510" type="curve"/>
      <point x="138" y="533"/>
      <point x="138" y="510"/>
    </contour>
    <contour>
      <point x="150" y="0" type="curve"/>
      <point x="150" y="178"/>
      <point x="150" y="355"/>
      <point x="150" y="533" type="curve"/>
      <point x="125" y="533"/>
      <point x="150" y="533"/>
      <point x="125" y="533" type="curve"/>
      <point x="125" y="355"/>
      <point x="125" y="178"/>
      <point x="125" y="0" type="curve"/>
      <point x="150" y="0"/>
      <point x="125" y="0"/>
    </contour>
    <contour>
      <point x="144" y="373" type="curve"/>
      <point x="152" y="452"/>
      <point x="218" y="515"/>
      <point x="288" y="515" type="curve"/>
      <point x="288" y="544"/>
      <point x="288" y="509"/>
      <point x="288" y="538" type="curve"/>
      <point x="210" y="538"/>
      <point x="147" y="481"/>
      <point x="131" y="396" type="curve"/>
      <point x="144" y="384"/>
      <point x="136" y="382"/>
    </contour>
    <contour>
      <point x="139" y="670" type="move" name="top"/>
    </contour>
    <contour>
      <point x="133" y="-92" type="move" name="bottom"/>
    </contour>
  </outline>
</glyph>
<glyph name="t" format="1">
  <advance width="276"/>
  <unicode hex="0074"/>
  <outline>
    <contour>
      <point x="20" y="510" type="curve"/>
      <point x="256" y="510" type="line"/>
      <point x="256" y="533"/>
      <point x="256" y="510"/>
      <point x="256" y="533" type="curve"/>
      <point x="20" y="533" type="line"/>
      <point x="20" y="510"/>
      <point x="20" y="533"/>
    </contour>
    <contour>
      <point x="238" y="46" type="curve"/>
      <point x="222" y="31"/>
      <point x="206" y="20"/>
      <point x="183" y="20" type="curve"/>
      <point x="131" y="20"/>
      <point x="125" y="75"/>
      <point x="125" y="145" type="curve"/>
      <point x="125" y="682" type="line"/>
      <point x="127" y="683"/>
      <point x="98" y="655"/>
      <point x="100" y="656" type="curve"/>
      <point x="100" y="143" type="line"/>
      <point x="100" y="58"/>
      <point x="111" y="-5"/>
      <point x="181" y="-5" type="curve"/>
      <point x="209" y="-5"/>
      <point x="229" y="4"/>
      <point x="251" y="23" type="curve"/>
      <point x="238" y="46"/>
      <point x="251" y="23"/>
    </contour>
    <contour>
      <point x="176" y="-91" type="move" name="bottom"/>
    </contour>
  </outline>
</glyph>
<glyph name="u" format="1">
  <advance width="437"/>
  <unicode hex="0075"/>
  <outline>
    <contour>
      <point x="331" y="533" type="curve"/>
      <point x="293" y="533"/>
      <point x="264" y="533"/>
      <point x="227" y="533" type="curve"/>
      <point x="227" y="510"/>
      <point x="227" y="533"/>
      <point x="227" y="510" type="curve"/>
      <point x="341" y="510"/>
      <point x="216" y="510"/>
      <point x="331" y="510" type="curve"/>
      <point x="331" y="533"/>
      <point x="331" y="510"/>
    </contour>
    <contour>
      <point x="110" y="533" type="curve"/>
      <point x="72" y="533"/>
      <point x="44" y="533"/>
      <point x="6" y="533" type="curve"/>
      <point x="6" y="510"/>
      <point x="6" y="533"/>
      <point x="6" y="510" type="curve"/>
      <point x="120" y="510"/>
      <point x="-4" y="510"/>
      <point x="110" y="510" type="curve"/>
      <point x="110" y="533"/>
      <point x="110" y="510"/>
    </contour>
    <contour>
      <point x="331" y="0" type="curve"/>
      <point x="367" y="0"/>
      <point x="392" y="0"/>
      <point x="428" y="0" type="curve"/>
      <point x="428" y="23"/>
      <point x="428" y="0"/>
      <point x="428" y="23" type="curve"/>
      <point x="320" y="23"/>
      <point x="439" y="23"/>
      <point x="331" y="23" type="curve"/>
      <point x="331" y="0"/>
      <point x="331" y="23"/>
    </contour>
    <contour>
      <point x="343" y="0" type="curve"/>
      <point x="343" y="178"/>
      <point x="343" y="355"/>
      <point x="343" y="533" type="curve"/>
      <point x="318" y="533"/>
      <point x="343" y="533"/>
      <point x="318" y="533" type="curve"/>
      <point x="318" y="355"/>
      <point x="318" y="178"/>
      <point x="318" y="0" type="curve"/>
      <point x="343" y="0"/>
      <point x="318" y="0"/>
    </contour>
    <contour>
      <point x="321" y="173" type="curve"/>
      <point x="309" y="99"/>
      <point x="268" y="18"/>
      <point x="217" y="18" type="curve"/>
      <point x="138" y="18"/>
      <point x="122" y="96"/>
      <point x="122" y="187" type="curve"/>
      <point x="122" y="302"/>
      <point x="122" y="418"/>
      <point x="122" y="533" type="curve"/>
      <point x="97" y="533"/>
      <point x="123" y="533"/>
      <point x="97" y="533" type="curve"/>
      <point x="97" y="417"/>
      <point x="97" y="301"/>
      <point x="97" y="185" type="curve"/>
      <point x="97" y="80"/>
      <point x="120" y="-5"/>
      <point x="217" y="-5" type="curve"/>
      <point x="288" y="-5"/>
      <point x="322" y="78"/>
      <point x="337" y="163" type="curve"/>
      <point x="321" y="174"/>
      <point x="337" y="162"/>
    </contour>
    <contour>
      <point x="207" y="670" type="move" name="top"/>
    </contour>
    <contour>
      <point x="343" y="0" type="move" name="bottom"/>
    </contour>
  </outline>
</glyph>
<glyph name="v" format="1">
  <advance width="447"/>
  <unicode hex="0076"/>
  <outline>
    <contour>
      <point x="105" y="533" type="curve"/>
      <point x="67" y="533"/>
      <point x="39" y="533"/>
      <point x="1" y="533" type="curve"/>
      <point x="1" y="510"/>
      <point x="1" y="533"/>
      <point x="1" y="510" type="curve"/>
      <point x="115" y="510"/>
      <point x="-9" y="510"/>
      <point x="105" y="510" type="curve"/>
      <point x="105" y="533"/>
      <point x="105" y="510"/>
    </contour>
    <contour>
      <point x="105" y="510" type="curve"/>
      <point x="184" y="510"/>
      <point x="96" y="510"/>
      <point x="175" y="510" type="curve"/>
      <point x="175" y="533"/>
      <point x="175" y="510"/>
      <point x="175" y="533" type="curve"/>
      <point x="148" y="533"/>
      <point x="131" y="533"/>
      <point x="105" y="533" type="curve"/>
      <point x="105" y="510"/>
      <point x="105" y="533"/>
    </contour>
    <contour>
      <point x="352" y="533" type="curve"/>
      <point x="323" y="533"/>
      <point x="301" y="533"/>
      <point x="271" y="533" type="curve"/>
      <point x="271" y="510"/>
      <point x="271" y="533"/>
      <point x="271" y="510" type="curve"/>
      <point x="363" y="510"/>
      <point x="261" y="510"/>
      <point x="352" y="510" type="curve"/>
      <point x="352" y="533"/>
      <point x="352" y="510"/>
    </contour>
    <contour>
      <point x="352" y="510" type="curve"/>
      <point x="454" y="510"/>
      <point x="343" y="510"/>
      <point x="444" y="510" type="curve"/>
      <point x="444" y="533"/>
      <point x="444" y="510"/>
      <point x="444" y="533" type="curve"/>
      <point x="410" y="533"/>
      <point x="386" y="533"/>
      <point x="352" y="533" type="curve"/>
      <point x="352" y="510"/>
      <point x="352" y="533"/>
    </contour>
    <contour>
      <point x="85" y="533" type="curve"/>
      <point x="127" y="355"/>
      <point x="170" y="178"/>
      <point x="211" y="0" type="curve"/>
      <point x="236" y="0"/>
      <point x="211" y="0"/>
      <point x="236" y="0" type="curve"/>
      <point x="195" y="178"/>
      <point x="153" y="355"/>
      <point x="113" y="533" type="curve"/>
      <point x="85" y="533"/>
      <point x="113" y="533"/>
    </contour>
    <contour>
      <point x="345" y="533" type="curve"/>
      <point x="214" y="0" type="line"/>
      <point x="240" y="0"/>
      <point x="214" y="0"/>
      <point x="240" y="0" type="curve"/>
      <point x="284" y="178"/>
      <point x="328" y="355"/>
      <point x="372" y="533" type="curve"/>
      <point x="345" y="533"/>
      <point x="372" y="533"/>
    </contour>
  </outline>
</glyph>
<glyph name="w" format="1">
  <advance width="653"/>
  <unicode hex="0077"/>
  <outline>
    <contour>
      <point x="547" y="510" type="curve"/>
      <point x="661" y="510"/>
      <point x="537" y="510"/>
      <point x="651" y="510" type="curve"/>
      <point x="651" y="533"/>
      <point x="651" y="510"/>
      <point x="651" y="533" type="curve"/>
      <point x="613" y="533"/>
      <point x="585" y="533"/>
      <point x="547" y="533" type="curve"/>
      <point x="547" y="510"/>
      <point x="547" y="533"/>
    </contour>
    <contour>
      <point x="547" y="533" type="curve"/>
      <point x="510" y="533"/>
      <point x="504" y="533"/>
      <point x="466" y="533" type="curve"/>
      <point x="466" y="510"/>
      <point x="466" y="533"/>
      <point x="466" y="510" type="curve"/>
      <point x="578" y="510"/>
      <point x="436" y="510"/>
      <point x="547" y="510" type="curve"/>
      <point x="547" y="533"/>
      <point x="547" y="510"/>
    </contour>
    <contour>
      <point x="105" y="533" type="curve"/>
      <point x="67" y="533"/>
      <point x="39" y="533"/>
      <point x="1" y="533" type="curve"/>
      <point x="1" y="510"/>
      <point x="1" y="533"/>
      <point x="1" y="510" type="curve"/>
      <point x="115" y="510"/>
      <point x="-9" y="510"/>
      <point x="105" y="510" type="curve"/>
      <point x="105" y="533"/>
      <point x="105" y="510"/>
    </contour>
    <contour>
      <point x="105" y="510" type="curve"/>
      <point x="217" y="510"/>
      <point x="84" y="510"/>
      <point x="197" y="510" type="curve"/>
      <point x="197" y="533"/>
      <point x="197" y="510"/>
      <point x="197" y="533" type="curve"/>
      <point x="159" y="533"/>
      <point x="142" y="533"/>
      <point x="105" y="533" type="curve"/>
      <point x="105" y="510"/>
      <point x="105" y="533"/>
    </contour>
    <contour>
      <point x="219" y="0" type="curve"/>
      <point x="260" y="178"/>
      <point x="301" y="355"/>
      <point x="342" y="533" type="curve"/>
      <point x="314" y="533"/>
      <point x="342" y="533"/>
      <point x="314" y="533" type="curve"/>
      <point x="275" y="355"/>
      <point x="234" y="178"/>
      <point x="195" y="0" type="curve"/>
      <point x="219" y="0"/>
      <point x="195" y="0"/>
    </contour>
    <contour>
      <point x="542" y="533" type="curve"/>
      <point x="505" y="355"/>
      <point x="467" y="178"/>
      <point x="430" y="0" type="curve"/>
      <point x="454" y="0"/>
      <point x="430" y="0"/>
      <point x="454" y="0" type="curve"/>
      <point x="493" y="178"/>
      <point x="531" y="355"/>
      <point x="570" y="533" type="curve"/>
      <point x="542" y="533"/>
      <point x="570" y="533"/>
    </contour>
    <contour>
      <point x="319" y="533" type="curve"/>
      <point x="356" y="355"/>
      <point x="392" y="178"/>
      <point x="429" y="0" type="curve"/>
      <point x="453" y="0"/>
      <point x="429" y="0"/>
      <point x="453" y="0" type="curve"/>
      <point x="417" y="178"/>
      <point x="381" y="355"/>
      <point x="345" y="533" type="curve"/>
      <point x="319" y="533"/>
      <point x="345" y="533"/>
    </contour>
    <contour>
      <point x="83" y="533" type="curve"/>
      <point x="121" y="355"/>
      <point x="158" y="178"/>
      <point x="194" y="0" type="curve"/>
      <point x="218" y="0"/>
      <point x="194" y="0"/>
      <point x="218" y="0" type="curve"/>
      <point x="181" y="178"/>
      <point x="146" y="355"/>
      <point x="110" y="533" type="curve"/>
      <point x="83" y="533"/>
      <point x="110" y="533"/>
    </contour>
  </outline>
</glyph>
<glyph name="y" format="1">
  <advance width="481"/>
  <unicode hex="0079"/>
  <outline>
    <contour>
      <point x="167" y="-277" type="curve"/>
      <point x="53" y="-277"/>
      <point x="177" y="-277"/>
      <point x="63" y="-277" type="curve"/>
      <point x="63" y="-300"/>
      <point x="63" y="-277"/>
      <point x="63" y="-300" type="curve"/>
      <point x="101" y="-300"/>
      <point x="129" y="-300"/>
      <point x="167" y="-300" type="curve"/>
      <point x="167" y="-277"/>
      <point x="167" y="-300"/>
    </contour>
    <contour>
      <point x="109" y="533" type="curve"/>
      <point x="71" y="533"/>
      <point x="43" y="533"/>
      <point x="5" y="533" type="curve"/>
      <point x="5" y="510"/>
      <point x="5" y="533"/>
      <point x="5" y="510" type="curve"/>
      <point x="119" y="510"/>
      <point x="-5" y="510"/>
      <point x="109" y="510" type="curve"/>
      <point x="109" y="533"/>
      <point x="109" y="510"/>
    </contour>
    <contour>
      <point x="109" y="510" type="curve"/>
      <point x="211" y="510"/>
      <point x="98" y="510"/>
      <point x="201" y="510" type="curve"/>
      <point x="201" y="533"/>
      <point x="201" y="510"/>
      <point x="201" y="533" type="curve"/>
      <point x="167" y="533"/>
      <point x="143" y="533"/>
      <point x="109" y="533" type="curve"/>
      <point x="109" y="510"/>
      <point x="109" y="533"/>
    </contour>
    <contour>
      <point x="374" y="533" type="curve"/>
      <point x="344" y="533"/>
      <point x="323" y="533"/>
      <point x="293" y="533" type="curve"/>
      <point x="293" y="510"/>
      <point x="293" y="533"/>
      <point x="293" y="510" type="curve"/>
      <point x="384" y="510"/>
      <point x="283" y="510"/>
      <point x="374" y="510" type="curve"/>
      <point x="374" y="533"/>
      <point x="374" y="510"/>
    </contour>
    <contour>
      <point x="374" y="510" type="curve"/>
      <point x="485" y="510"/>
      <point x="364" y="510"/>
      <point x="475" y="510" type="curve"/>
      <point x="475" y="533"/>
      <point x="475" y="510"/>
      <point x="475" y="533" type="curve"/>
      <point x="438" y="533"/>
      <point x="411" y="533"/>
      <point x="374" y="533" type="curve"/>
      <point x="374" y="510"/>
      <point x="374" y="533"/>
    </contour>
    <contour>
      <point x="254" y="6" type="curve"/>
      <point x="269" y="-17"/>
      <point x="100" y="557"/>
      <point x="115" y="533" type="curve"/>
      <point x="86" y="533"/>
      <point x="115" y="533"/>
      <point x="86" y="533" type="curve"/>
      <point x="71" y="557"/>
      <point x="245" y="-26"/>
      <point x="230" y="-2" type="curve"/>
      <point x="254" y="-2"/>
      <point x="230" y="6"/>
    </contour>
    <contour>
      <point x="173" y="-300" type="curve"/>
      <point x="147" y="-338"/>
      <point x="421" y="571"/>
      <point x="395" y="533" type="curve"/>
      <point x="367" y="533"/>
      <point x="395" y="533"/>
      <point x="367" y="533" type="curve"/>
      <point x="393" y="571"/>
      <point x="118" y="-338"/>
      <point x="144" y="-300" type="curve"/>
      <point x="173" y="-300"/>
      <point x="144" y="-300"/>
    </contour>
    <contour>
      <point x="265" y="672" type="move" name="top"/>
    </contour>
  </outline>
</glyph>
<glyph name="braceleft" format="1">
  <advance width="225"/>
  <unicode hex="007B"/>
  <outline>
    <contour>
      <point x="178" y="-101" type="curve"/>
      <point x="123" y="-101"/>
      <point x="120" y="-40"/>
      <point x="120" y="26" type="curve"/>
      <point x="120" y="85"/>
      <point x="120" y="144"/>
      <point x="120" y="203" type="curve"/>
      <point x="120" y="281"/>
      <point x="106" y="350"/>
      <point x="39" y="350" type="curve"/>
      <point x="39" y="326"/>
      <point x="39" y="350"/>
      <point x="39" y="326" type="curve"/>
      <point x="91" y="326"/>
      <point x="97" y="269"/>
      <point x="97" y="205" type="curve"/>
      <point x="97" y="146"/>
      <point x="97" y="86"/>
      <point x="97" y="27" type="curve"/>
      <point x="97" y="-54"/>
      <point x="110" y="-124"/>
      <point x="178" y="-124" type="curve"/>
      <point x="178" y="-101"/>
      <point x="178" y="-124"/>
    </contour>
    <contour>
      <point x="178" y="800" type="curve"/>
      <point x="110" y="800"/>
      <point x="97" y="731"/>
      <point x="97" y="650" type="curve"/>
      <point x="97" y="590"/>
      <point x="97" y="530"/>
      <point x="97" y="470" type="curve"/>
      <point x="97" y="406"/>
      <point x="91" y="350"/>
      <point x="39" y="350" type="curve"/>
      <point x="39" y="326"/>
      <point x="39" y="350"/>
      <point x="39" y="326" type="curve"/>
      <point x="106" y="326"/>
      <point x="120" y="394"/>
      <point x="120" y="473" type="curve"/>
      <point x="120" y="532"/>
      <point x="120" y="591"/>
      <point x="120" y="650" type="curve"/>
      <point x="120" y="716"/>
      <point x="123" y="777"/>
      <point x="178" y="777" type="curve"/>
      <point x="178" y="800"/>
      <point x="178" y="777"/>
    </contour>
  </outline>
</glyph>
<glyph name="asciitilde" format="1">
  <advance width="485"/>
  <unicode hex="007E"/>
  <outline>
    <contour>
      <point x="376" y="344" type="curve"/>
      <point x="367" y="301"/>
      <point x="365" y="242"/>
      <point x="318" y="242" type="curve"/>
      <point x="287" y="242"/>
      <point x="270" y="262"/>
      <point x="252" y="290" type="curve"/>
      <point x="230" y="322"/>
      <point x="210" y="345"/>
      <point x="174" y="345" type="curve"/>
      <point x="110" y="345"/>
      <point x="98" y="290"/>
      <point x="88" y="224" type="curve"/>
      <point x="108" y="219"/>
      <point x="89" y="223"/>
      <point x="109" y="219" type="curve"/>
      <point x="117" y="269"/>
      <point x="121" y="322"/>
      <point x="172" y="322" type="curve"/>
      <point x="200" y="322"/>
      <point x="214" y="303"/>
      <point x="229" y="279" type="curve"/>
      <point x="254" y="244"/>
      <point x="275" y="220"/>
      <point x="316" y="220" type="curve"/>
      <point x="379" y="220"/>
      <point x="387" y="278"/>
      <point x="398" y="341" type="curve"/>
      <point x="377" y="344"/>
      <point x="397" y="341"/>
    </contour>
  </outline>
</glyph>
<glyph name="exclamdown" format="1">
  <advance width="214"/>
  <unicode hex="00A1"/>
  <outline>
    <contour>
      <point x="94" y="292" type="line"/>
      <point x="91" y="-201" type="line"/>
      <point x="123" y="-201" type="line"/>
      <point x="120" y="292" type="line"/>
    </contour>
    <contour>
      <point x="88" y="508" type="curve"/>
      <point x="88" y="497"/>
      <point x="95" y="491"/>
      <point x="106" y="491" type="curve"/>
      <point x="118" y="491"/>
      <point x="124" y="498"/>
      <point x="124" y="508" type="curve"/>
      <point x="84" y="508"/>
      <point x="127" y="508"/>
      <point x="88" y="508" type="curve"/>
      <point x="88" y="520"/>
      <point x="95" y="526"/>
      <point x="106" y="526" type="curve"/>
      <point x="118" y="526"/>
      <point x="124" y="519"/>
      <point x="124" y="508" type="curve"/>
      <point x="84" y="508"/>
      <point x="127" y="508"/>
    </contour>
  </outline>
</glyph>
<glyph name="cent" format="1">
  <advance width="431"/>
  <unicode hex="00A2"/>
  <outline>
    <contour>
      <point x="236" y="-53" type="curve"/>
      <point x="236" y="-13"/>
      <point x="236" y="27"/>
      <point x="236" y="67" type="curve"/>
      <point x="210" y="67"/>
      <point x="236" y="67"/>
      <point x="210" y="67" type="curve"/>
      <point x="210" y="27"/>
      <point x="210" y="-13"/>
      <point x="210" y="-53" type="curve"/>
      <point x="236" y="-53"/>
      <point x="210" y="-53"/>
    </contour>
    <contour>
      <point x="223" y="778" type="curve"/>
      <point x="223" y="742"/>
      <point x="223" y="706"/>
      <point x="223" y="670" type="curve"/>
      <point x="248" y="670"/>
      <point x="223" y="670"/>
      <point x="248" y="670" type="curve"/>
      <point x="248" y="706"/>
      <point x="248" y="742"/>
      <point x="248" y="778" type="curve"/>
      <point x="223" y="778"/>
      <point x="248" y="778"/>
    </contour>
    <contour>
      <point x="371" y="602" type="curve"/>
      <point x="333" y="654"/>
      <point x="295" y="679"/>
      <point x="238" y="679" type="curve"/>
      <point x="95" y="679"/>
      <point x="59" y="535"/>
      <point x="59" y="366" type="curve"/>
      <point x="59" y="200"/>
      <point x="81" y="54"/>
      <point x="222" y="54" type="curve"/>
      <point x="288" y="54"/>
      <point x="329" y="90"/>
      <point x="371" y="149" type="curve"/>
      <point x="353" y="165"/>
      <point x="371" y="149"/>
      <point x="353" y="165" type="curve"/>
      <point x="319" y="113"/>
      <point x="284" y="77"/>
      <point x="224" y="77" type="curve"/>
      <point x="102" y="77"/>
      <point x="85" y="215"/>
      <point x="85" y="367" type="curve"/>
      <point x="85" y="520"/>
      <point x="114" y="655"/>
      <point x="236" y="655" type="curve"/>
      <point x="289" y="655"/>
      <point x="323" y="631"/>
      <point x="353" y="589" type="curve"/>
      <point x="371" y="602"/>
      <point x="353" y="589"/>
    </contour>
    <contour>
      <point x="348" y="602" type="curve"/>
      <point x="348" y="482"/>
      <point x="348" y="602"/>
      <point x="348" y="482" type="curve"/>
      <point x="371" y="482"/>
      <point x="348" y="482"/>
      <point x="371" y="482" type="curve"/>
      <point x="371" y="602"/>
      <point x="371" y="482"/>
      <point x="371" y="602" type="curve"/>
      <point x="348" y="602"/>
      <point x="371" y="602"/>
    </contour>
  </outline>
</glyph>
<glyph name="sterling" format="1">
  <advance width="355"/>
  <unicode hex="00A3"/>
  <outline>
    <contour>
      <point x="289" y="23" type="curve"/>
      <point x="204" y="23"/>
      <point x="127" y="23"/>
      <point x="46" y="23" type="curve"/>
      <point x="46" y="0"/>
      <point x="46" y="23"/>
      <point x="46" y="0" type="curve"/>
      <point x="127" y="0"/>
      <point x="208" y="0"/>
      <point x="289" y="0" type="curve"/>
      <point x="289" y="23"/>
      <point x="289" y="0"/>
    </contour>
    <contour>
      <point x="260" y="388" type="curve"/>
      <point x="196" y="388"/>
      <point x="131" y="388"/>
      <point x="67" y="388" type="curve"/>
      <point x="67" y="365"/>
      <point x="67" y="388"/>
      <point x="67" y="365" type="curve"/>
      <point x="131" y="365"/>
      <point x="196" y="365"/>
      <point x="260" y="365" type="curve"/>
      <point x="260" y="388"/>
      <point x="260" y="365"/>
    </contour>
    <contour>
      <point x="299" y="677" type="curve"/>
      <point x="273" y="708"/>
      <point x="252" y="727"/>
      <point x="215" y="727" type="curve"/>
      <point x="72" y="727"/>
      <point x="95" y="560"/>
      <point x="119" y="375" type="curve"/>
      <point x="141" y="195"/>
      <point x="184" y="23"/>
      <point x="46" y="23" type="curve"/>
      <point x="46" y="0"/>
      <point x="46" y="23"/>
      <point x="46" y="0" type="curve"/>
      <point x="207" y="0"/>
      <point x="167" y="182"/>
      <point x="144" y="379" type="curve"/>
      <point x="124" y="545"/>
      <point x="95" y="702"/>
      <point x="213" y="702" type="curve"/>
      <point x="245" y="702"/>
      <point x="265" y="685"/>
      <point x="283" y="662" type="curve"/>
      <point x="299" y="677"/>
      <point x="283" y="662"/>
    </contour>
  </outline>
</glyph>
<glyph name="currency" format="1">
  <advance width="516"/>
  <unicode hex="00A4"/>
  <outline>
    <contour>
      <point x="182" y="310" type="curve"/>
      <point x="182" y="387"/>
      <point x="194" y="457"/>
      <point x="259" y="457" type="curve"/>
      <point x="324" y="457"/>
      <point x="333" y="388"/>
      <point x="333" y="310" type="curve"/>
      <point x="333" y="230"/>
      <point x="328" y="157"/>
      <point x="261" y="157" type="curve"/>
      <point x="193" y="157"/>
      <point x="182" y="229"/>
      <point x="182" y="310" type="curve"/>
      <point x="157" y="310"/>
      <point x="182" y="310"/>
      <point x="157" y="310" type="curve"/>
      <point x="157" y="215"/>
      <point x="178" y="135"/>
      <point x="260" y="135" type="curve"/>
      <point x="341" y="135"/>
      <point x="360" y="217"/>
      <point x="360" y="311" type="curve"/>
      <point x="360" y="402"/>
      <point x="338" y="480"/>
      <point x="261" y="480" type="curve"/>
      <point x="180" y="480"/>
      <point x="157" y="402"/>
      <point x="157" y="310" type="curve"/>
      <point x="182" y="310"/>
      <point x="157" y="310"/>
    </contour>
    <contour>
      <point x="314" y="434" type="line"/>
      <point x="449" y="565" type="line"/>
      <point x="427" y="587" type="line"/>
      <point x="296" y="452" type="line"/>
    </contour>
    <contour>
      <point x="299" y="169" type="line"/>
      <point x="430" y="34" type="line"/>
      <point x="451" y="55" type="line"/>
      <point x="316" y="187" type="line"/>
    </contour>
    <contour>
      <point x="200" y="188" type="line"/>
      <point x="64" y="56" type="line"/>
      <point x="86" y="35" type="line"/>
      <point x="217" y="170" type="line"/>
    </contour>
    <contour>
      <point x="222" y="453" type="line"/>
      <point x="91" y="588" type="line"/>
      <point x="69" y="566" type="line"/>
      <point x="204" y="435" type="line"/>
    </contour>
  </outline>
</glyph>
<glyph name="yen" format="1">
  <advance width="542"/>
  <unicode hex="00A5"/>
  <outline>
    <contour>
      <point x="409" y="371" type="curve"/>
      <point x="366" y="371"/>
      <point x="324" y="371"/>
      <point x="281" y="371" type="curve"/>
      <point x="281" y="346"/>
      <point x="281" y="371"/>
      <point x="281" y="346" type="curve"/>
      <point x="324" y="346"/>
      <point x="366" y="346"/>
      <point x="409" y="346" type="curve"/>
      <point x="409" y="371"/>
      <point x="409" y="346"/>
    </contour>
    <contour>
      <point x="264" y="371" type="curve"/>
      <point x="222" y="371"/>
      <point x="181" y="371"/>
      <point x="139" y="371" type="curve"/>
      <point x="139" y="346"/>
      <point x="139" y="371"/>
      <point x="139" y="346" type="curve"/>
      <point x="181" y="346"/>
      <point x="222" y="346"/>
      <point x="264" y="346" type="curve"/>
      <point x="264" y="371"/>
      <point x="264" y="346"/>
    </contour>
    <contour>
      <point x="409" y="252" type="curve"/>
      <point x="318" y="252"/>
      <point x="229" y="252"/>
      <point x="139" y="252" type="curve"/>
      <point x="139" y="227"/>
      <point x="139" y="252"/>
      <point x="139" y="227" type="curve"/>
      <point x="229" y="227"/>
      <point x="318" y="227"/>
      <point x="409" y="227" type="curve"/>
      <point x="409" y="252"/>
      <point x="409" y="227"/>
    </contour>
    <contour>
      <point x="267" y="23" type="curve"/>
      <point x="158" y="23"/>
      <point x="277" y="23"/>
      <point x="168" y="23" type="curve"/>
      <point x="168" y="0"/>
      <point x="168" y="23"/>
      <point x="168" y="0" type="curve"/>
      <point x="204" y="0"/>
      <point x="231" y="0"/>
      <point x="267" y="0" type="curve"/>
      <point x="267" y="23"/>
      <point x="267" y="0"/>
    </contour>
    <contour>
      <point x="267" y="0" type="curve"/>
      <point x="303" y="0"/>
      <point x="330" y="0"/>
      <point x="366" y="0" type="curve"/>
      <point x="366" y="23"/>
      <point x="366" y="0"/>
      <point x="366" y="23" type="curve"/>
      <point x="257" y="23"/>
      <point x="377" y="23"/>
      <point x="267" y="23" type="curve"/>
      <point x="267" y="0"/>
      <point x="267" y="23"/>
    </contour>
    <contour>
      <point x="409" y="722" type="curve"/>
      <point x="373" y="722"/>
      <point x="346" y="722"/>
      <point x="310" y="722" type="curve"/>
      <point x="310" y="699"/>
      <point x="310" y="722"/>
      <point x="310" y="699" type="curve"/>
      <point x="419" y="699"/>
      <point x="300" y="699"/>
      <point x="409" y="699" type="curve"/>
      <point x="409" y="722"/>
      <point x="409" y="699"/>
    </contour>
    <contour>
      <point x="133" y="722" type="curve"/>
      <point x="97" y="722"/>
      <point x="70" y="722"/>
      <point x="34" y="722" type="curve"/>
      <point x="34" y="699"/>
      <point x="34" y="722"/>
      <point x="34" y="699" type="curve"/>
      <point x="143" y="699"/>
      <point x="23" y="699"/>
      <point x="133" y="699" type="curve"/>
      <point x="133" y="722"/>
      <point x="133" y="699"/>
    </contour>
    <contour>
      <point x="133" y="699" type="curve"/>
      <point x="242" y="699"/>
      <point x="123" y="699"/>
      <point x="232" y="699" type="curve"/>
      <point x="232" y="722"/>
      <point x="232" y="699"/>
      <point x="232" y="722" type="curve"/>
      <point x="196" y="722"/>
      <point x="169" y="722"/>
      <point x="133" y="722" type="curve"/>
      <point x="133" y="699"/>
      <point x="133" y="722"/>
    </contour>
    <contour>
      <point x="409" y="699" type="curve"/>
      <point x="518" y="699"/>
      <point x="399" y="699"/>
      <point x="508" y="699" type="curve"/>
      <point x="508" y="722"/>
      <point x="508" y="699"/>
      <point x="508" y="722" type="curve"/>
      <point x="472" y="722"/>
      <point x="445" y="722"/>
      <point x="409" y="722" type="curve"/>
      <point x="409" y="699"/>
      <point x="409" y="722"/>
    </contour>
    <contour>
      <point x="111" y="722" type="curve"/>
      <point x="159" y="594"/>
      <point x="206" y="465"/>
      <point x="253" y="337" type="curve"/>
      <point x="281" y="337"/>
      <point x="253" y="337"/>
      <point x="281" y="337" type="curve"/>
      <point x="233" y="465"/>
      <point x="186" y="594"/>
      <point x="140" y="722" type="curve"/>
      <point x="111" y="722"/>
      <point x="140" y="722"/>
    </contour>
    <contour>
      <point x="402" y="722" type="curve"/>
      <point x="354" y="594"/>
      <point x="304" y="465"/>
      <point x="254" y="337" type="curve"/>
      <point x="281" y="337"/>
      <point x="253" y="337"/>
      <point x="281" y="337" type="curve"/>
      <point x="331" y="465"/>
      <point x="381" y="594"/>
      <point x="431" y="722" type="curve"/>
      <point x="402" y="722"/>
      <point x="431" y="722"/>
    </contour>
    <contour>
      <point x="281" y="0" type="curve"/>
      <point x="281" y="115"/>
      <point x="281" y="232"/>
      <point x="281" y="348" type="curve"/>
      <point x="253" y="348"/>
      <point x="281" y="348"/>
      <point x="253" y="348" type="curve"/>
      <point x="253" y="232"/>
      <point x="253" y="115"/>
      <point x="253" y="0" type="curve"/>
      <point x="281" y="0"/>
      <point x="253" y="0"/>
    </contour>
  </outline>
</glyph>
<glyph name="section" format="1">
  <advance width="352"/>
  <unicode hex="00A7"/>
  <outline>
    <contour>
      <point x="269" y="709" type="curve"/>
      <point x="240" y="736"/>
      <point x="217" y="752"/>
      <point x="178" y="752" type="curve"/>
      <point x="114" y="752"/>
      <point x="88" y="695"/>
      <point x="88" y="627" type="curve"/>
      <point x="88" y="564"/>
      <point x="110" y="515"/>
      <point x="165" y="484" type="curve"/>
      <point x="221" y="453"/>
      <point x="265" y="424"/>
      <point x="265" y="361" type="curve"/>
      <point x="265" y="297"/>
      <point x="249" y="247"/>
      <point x="192" y="229" type="curve"/>
      <point x="207" y="211"/>
      <point x="192" y="229"/>
      <point x="207" y="211" type="curve"/>
      <point x="272" y="234"/>
      <point x="290" y="291"/>
      <point x="290" y="361" type="curve"/>
      <point x="289" y="432"/>
      <point x="242" y="471"/>
      <point x="177" y="505" type="curve"/>
      <point x="131" y="531"/>
      <point x="113" y="573"/>
      <point x="113" y="627" type="curve"/>
      <point x="113" y="680"/>
      <point x="127" y="729"/>
      <point x="176" y="729" type="curve"/>
      <point x="210" y="729"/>
      <point x="232" y="714"/>
      <point x="255" y="692" type="curve"/>
      <point x="269" y="709"/>
      <point x="255" y="692"/>
    </contour>
    <contour>
      <point x="146" y="513" type="curve"/>
      <point x="87" y="484"/>
      <point x="67" y="433"/>
      <point x="67" y="367" type="curve"/>
      <point x="67" y="297"/>
      <point x="106" y="253"/>
      <point x="170" y="220" type="curve"/>
      <point x="218" y="192"/>
      <point x="247" y="157"/>
      <point x="247" y="100" type="curve"/>
      <point x="247" y="41"/>
      <point x="230" y="-7"/>
      <point x="179" y="-7" type="curve"/>
      <point x="138" y="-7"/>
      <point x="116" y="13"/>
      <point x="90" y="45" type="curve"/>
      <point x="73" y="28"/>
      <point x="90" y="45"/>
      <point x="73" y="28" type="curve"/>
      <point x="104" y="-8"/>
      <point x="133" y="-30"/>
      <point x="178" y="-30" type="curve"/>
      <point x="243" y="-30"/>
      <point x="273" y="27"/>
      <point x="273" y="100" type="curve"/>
      <point x="272" y="165"/>
      <point x="243" y="211"/>
      <point x="186" y="241" type="curve"/>
      <point x="132" y="271"/>
      <point x="92" y="305"/>
      <point x="92" y="367" type="curve"/>
      <point x="92" y="425"/>
      <point x="107" y="471"/>
      <point x="159" y="496" type="curve"/>
      <point x="146" y="513"/>
      <point x="159" y="496"/>
    </contour>
    <contour>
      <point x="96" y="28" type="curve"/>
      <point x="96" y="148"/>
      <point x="96" y="28"/>
      <point x="96" y="148" type="curve"/>
      <point x="73" y="148"/>
      <point x="96" y="148"/>
      <point x="73" y="148" type="curve"/>
      <point x="73" y="28"/>
      <point x="73" y="148"/>
      <point x="73" y="28" type="curve"/>
      <point x="96" y="28"/>
      <point x="73" y="28"/>
    </contour>
    <contour>
      <point x="269" y="589" type="curve"/>
      <point x="269" y="709"/>
      <point x="269" y="589"/>
      <point x="269" y="709" type="curve"/>
      <point x="246" y="709"/>
      <point x="269" y="709"/>
      <point x="246" y="709" type="curve"/>
      <point x="246" y="589"/>
      <point x="246" y="709"/>
      <point x="246" y="589" type="curve"/>
      <point x="269" y="589"/>
      <point x="246" y="589"/>
    </contour>
  </outline>
</glyph>
<glyph name="dieresis" format="1">
  <advance width="311"/>
  <unicode hex="00A8"/>
  <outline>
    <contour>
      <point x="88" y="669" type="curve"/>
      <point x="88" y="681"/>
      <point x="81" y="687"/>
      <point x="70" y="687" type="curve"/>
      <point x="58" y="687"/>
      <point x="52" y="679"/>
      <point x="52" y="669" type="curve"/>
      <point x="91" y="669"/>
      <point x="49" y="669"/>
      <point x="88" y="669" type="curve"/>
      <point x="88" y="658"/>
      <point x="81" y="652"/>
      <point x="70" y="652" type="curve"/>
      <point x="58" y="652"/>
      <point x="52" y="658"/>
      <point x="52" y="669" type="curve"/>
      <point x="91" y="669"/>
      <point x="49" y="669"/>
    </contour>
    <contour>
      <point x="161" y="669" type="curve"/>
      <point x="161" y="681"/>
      <point x="154" y="687"/>
      <point x="143" y="687" type="curve"/>
      <point x="132" y="687"/>
      <point x="126" y="679"/>
      <point x="126" y="669" type="curve"/>
      <point x="165" y="669"/>
      <point x="122" y="669"/>
      <point x="161" y="669" type="curve"/>
      <point x="161" y="658"/>
      <point x="154" y="652"/>
      <point x="143" y="652" type="curve"/>
      <point x="132" y="652"/>
      <point x="126" y="658"/>
      <point x="126" y="669" type="curve"/>
      <point x="165" y="669"/>
      <point x="122" y="669"/>
    </contour>
    <contour>
      <point x="107" y="655" type="move" name="_top"/>
    </contour>
  </outline>
</glyph>
<glyph name="copyright" format="1">
  <advance width="519"/>
  <unicode hex="00A9"/>
  <outline>
    <contour>
      <point x="91" y="319" type="curve"/>
      <point x="91" y="477"/>
      <point x="128" y="624"/>
      <point x="262" y="624" type="curve"/>
      <point x="394" y="624"/>
      <point x="430" y="476"/>
      <point x="430" y="318" type="curve"/>
      <point x="430" y="164"/>
      <point x="396" y="18"/>
      <point x="266" y="18" type="curve"/>
      <point x="134" y="18"/>
      <point x="91" y="161"/>
      <point x="91" y="319" type="curve"/>
      <point x="64" y="319"/>
      <point x="91" y="319"/>
      <point x="64" y="319" type="curve"/>
      <point x="64" y="150"/>
      <point x="119" y="-5"/>
      <point x="265" y="-5" type="curve"/>
      <point x="409" y="-5"/>
      <point x="455" y="150"/>
      <point x="455" y="319" type="curve"/>
      <point x="455" y="490"/>
      <point x="408" y="646"/>
      <point x="262" y="646" type="curve"/>
      <point x="116" y="646"/>
      <point x="64" y="490"/>
      <point x="64" y="319" type="curve"/>
      <point x="91" y="319"/>
      <point x="64" y="319"/>
    </contour>
    <contour>
      <point x="316" y="452" type="curve"/>
      <point x="316" y="429"/>
      <point x="316" y="405"/>
      <point x="316" y="381" type="curve"/>
      <point x="338" y="381"/>
      <point x="316" y="381"/>
      <point x="338" y="381" type="curve"/>
      <point x="338" y="409"/>
      <point x="338" y="436"/>
      <point x="338" y="464" type="curve"/>
      <point x="316" y="452"/>
      <point x="338" y="464"/>
    </contour>
    <contour>
      <point x="338" y="464" type="curve"/>
      <point x="317" y="486"/>
      <point x="297" y="496"/>
      <point x="266" y="496" type="curve"/>
      <point x="184" y="496"/>
      <point x="161" y="414"/>
      <point x="161" y="319" type="curve"/>
      <point x="161" y="225"/>
      <point x="179" y="146"/>
      <point x="258" y="146" type="curve"/>
      <point x="296" y="146"/>
      <point x="322" y="160"/>
      <point x="345" y="193" type="curve"/>
      <point x="328" y="207"/>
      <point x="345" y="193"/>
      <point x="328" y="207" type="curve"/>
      <point x="311" y="184"/>
      <point x="291" y="169"/>
      <point x="259" y="169" type="curve"/>
      <point x="193" y="169"/>
      <point x="187" y="241"/>
      <point x="187" y="320" type="curve"/>
      <point x="187" y="401"/>
      <point x="197" y="473"/>
      <point x="265" y="473" type="curve"/>
      <point x="288" y="473"/>
      <point x="301" y="465"/>
      <point x="315" y="452" type="curve"/>
      <point x="338" y="464"/>
      <point x="315" y="451"/>
    </contour>
  </outline>
</glyph>
<glyph name="ordfeminine" format="1">
  <advance width="342"/>
  <unicode hex="00AA"/>
  <outline>
    <contour>
      <point x="91" y="719" type="curve"/>
      <point x="91" y="699"/>
      <point x="91" y="688"/>
      <point x="91" y="669" type="curve"/>
      <point x="100" y="669"/>
      <point x="104" y="669"/>
      <point x="112" y="669" type="curve"/>
      <point x="112" y="688"/>
      <point x="112" y="699"/>
      <point x="112" y="719" type="curve"/>
      <point x="104" y="719"/>
      <point x="100" y="719"/>
    </contour>
    <contour>
      <point x="239" y="431" type="curve"/>
      <point x="239" y="523"/>
      <point x="239" y="589"/>
      <point x="239" y="682" type="curve"/>
      <point x="239" y="730"/>
      <point x="212" y="766"/>
      <point x="166" y="766" type="curve"/>
      <point x="131" y="766"/>
      <point x="113" y="748"/>
      <point x="91" y="719" type="curve"/>
      <point x="97" y="712"/>
      <point x="101" y="708"/>
      <point x="107" y="700" type="curve"/>
      <point x="121" y="721"/>
      <point x="133" y="744"/>
      <point x="163" y="744" type="curve"/>
      <point x="197" y="744"/>
      <point x="214" y="713"/>
      <point x="214" y="675" type="curve"/>
      <point x="214" y="584"/>
      <point x="214" y="521"/>
      <point x="214" y="431" type="curve"/>
      <point x="224" y="431"/>
      <point x="229" y="431"/>
    </contour>
    <contour>
      <point x="227" y="431" type="curve"/>
      <point x="242" y="431"/>
      <point x="250" y="431"/>
      <point x="265" y="431" type="curve"/>
      <point x="265" y="439"/>
      <point x="265" y="444"/>
      <point x="265" y="453" type="curve"/>
      <point x="250" y="453"/>
      <point x="242" y="453"/>
      <point x="227" y="453" type="curve"/>
      <point x="227" y="444"/>
      <point x="227" y="439"/>
    </contour>
    <contour>
      <point x="225" y="632" type="curve"/>
      <point x="200" y="627"/>
      <point x="183" y="623"/>
      <point x="157" y="617" type="curve"/>
      <point x="109" y="606"/>
      <point x="78" y="573"/>
      <point x="78" y="521" type="curve"/>
      <point x="78" y="470"/>
      <point x="102" y="431"/>
      <point x="153" y="431" type="curve"/>
      <point x="197" y="431"/>
      <point x="213" y="464"/>
      <point x="233" y="506" type="curve"/>
      <point x="228" y="511"/>
      <point x="225" y="514"/>
      <point x="220" y="518" type="curve"/>
      <point x="204" y="484"/>
      <point x="194" y="453"/>
      <point x="158" y="453" type="curve"/>
      <point x="120" y="453"/>
      <point x="103" y="485"/>
      <point x="103" y="523" type="curve"/>
      <point x="103" y="562"/>
      <point x="122" y="589"/>
      <point x="156" y="597" type="curve"/>
      <point x="182" y="603"/>
      <point x="201" y="607"/>
      <point x="226" y="613" type="curve"/>
      <point x="226" y="621"/>
      <point x="225" y="625"/>
    </contour>
  </outline>
</glyph>
<glyph name="guillemotleft" format="1">
  <advance width="472"/>
  <unicode hex="00AB"/>
  <outline>
    <contour>
      <point x="239" y="401" type="curve"/>
      <point x="74" y="289" type="line"/>
      <point x="74" y="264"/>
      <point x="74" y="288"/>
      <point x="74" y="263" type="curve"/>
      <point x="74" y="264"/>
      <point x="239" y="376"/>
      <point x="239" y="376" type="curve"/>
      <point x="239" y="401"/>
      <point x="239" y="376"/>
    </contour>
    <contour>
      <point x="241" y="176" type="curve"/>
      <point x="240" y="176"/>
      <point x="74" y="288"/>
      <point x="74" y="289" type="curve"/>
      <point x="74" y="264"/>
      <point x="74" y="288"/>
      <point x="74" y="263" type="curve"/>
      <point x="74" y="263"/>
      <point x="240" y="152"/>
      <point x="241" y="152" type="curve"/>
      <point x="241" y="176"/>
      <point x="241" y="152"/>
    </contour>
    <contour>
      <point x="377" y="401" type="curve"/>
      <point x="376" y="401"/>
      <point x="212" y="289"/>
      <point x="211" y="289" type="curve"/>
      <point x="211" y="264"/>
      <point x="211" y="288"/>
      <point x="211" y="263" type="curve"/>
      <point x="212" y="264"/>
      <point x="376" y="376"/>
      <point x="377" y="376" type="curve"/>
      <point x="377" y="401"/>
      <point x="377" y="376"/>
    </contour>
    <contour>
      <point x="378" y="176" type="curve"/>
      <point x="377" y="176"/>
      <point x="212" y="288"/>
      <point x="211" y="289" type="curve"/>
      <point x="211" y="264"/>
      <point x="211" y="288"/>
      <point x="211" y="263" type="curve"/>
      <point x="212" y="263"/>
      <point x="377" y="152"/>
      <point x="378" y="152" type="curve"/>
      <point x="378" y="176"/>
      <point x="378" y="152"/>
    </contour>
  </outline>
</glyph>
<glyph name="logicalnot" format="1">
  <advance width="598"/>
  <unicode hex="00AC"/>
  <outline>
    <contour>
      <point x="109" y="297" type="curve"/>
      <point x="511" y="297" type="line"/>
      <point x="511" y="322"/>
      <point x="511" y="297"/>
      <point x="511" y="322" type="curve"/>
      <point x="109" y="322" type="line"/>
      <point x="109" y="297"/>
      <point x="109" y="322"/>
    </contour>
    <contour>
      <point x="511" y="153" type="curve"/>
      <point x="511" y="322" type="line"/>
      <point x="486" y="322"/>
      <point x="511" y="322"/>
      <point x="486" y="322" type="curve"/>
      <point x="486" y="153" type="line"/>
      <point x="511" y="153"/>
      <point x="486" y="153"/>
    </contour>
  </outline>
</glyph>
<glyph name="macron" format="1">
  <advance width="262"/>
  <unicode hex="00AF"/>
  <outline>
    <contour>
      <point x="157" y="680" type="curve"/>
      <point x="112" y="680"/>
      <point x="66" y="680"/>
      <point x="22" y="680" type="curve"/>
      <point x="22" y="658"/>
      <point x="22" y="680"/>
      <point x="22" y="658" type="curve"/>
      <point x="66" y="658"/>
      <point x="112" y="658"/>
      <point x="157" y="658" type="curve"/>
      <point x="157" y="680"/>
      <point x="157" y="658"/>
    </contour>
    <contour>
      <point x="90" y="658" type="move" name="_top"/>
    </contour>
  </outline>
</glyph>
<glyph name="degree" format="1">
  <advance width="349"/>
  <unicode hex="00B0"/>
  <outline>
    <contour>
      <point x="278" y="433" type="curve"/>
      <point x="278" y="542"/>
      <point x="267" y="640"/>
      <point x="175" y="640" type="curve"/>
      <point x="83" y="640"/>
      <point x="71" y="544"/>
      <point x="71" y="435" type="curve"/>
      <point x="94" y="435"/>
      <point x="72" y="435"/>
      <point x="95" y="435" type="curve"/>
      <point x="95" y="529"/>
      <point x="93" y="618"/>
      <point x="172" y="618" type="curve"/>
      <point x="251" y="618"/>
      <point x="254" y="529"/>
      <point x="254" y="433" type="curve"/>
      <point x="254" y="333"/>
      <point x="256" y="241"/>
      <point x="175" y="241" type="curve"/>
      <point x="92" y="241"/>
      <point x="95" y="335"/>
      <point x="95" y="435" type="curve"/>
      <point x="72" y="435"/>
      <point x="94" y="435"/>
      <point x="71" y="435" type="curve"/>
      <point x="71" y="321"/>
      <point x="78" y="220"/>
      <point x="174" y="220" type="curve"/>
      <point x="269" y="220"/>
      <point x="278" y="320"/>
    </contour>
  </outline>
</glyph>
<glyph name="plusminus" format="1">
  <advance width="605"/>
  <unicode hex="00B1"/>
  <outline>
    <contour>
      <point x="72" y="17" type="line"/>
      <point x="533" y="17" type="line"/>
      <point x="533" y="42" type="line"/>
      <point x="72" y="42" type="line"/>
    </contour>
    <contour>
      <point x="72" y="297" type="curve"/>
      <point x="533" y="297" type="line"/>
      <point x="533" y="322"/>
      <point x="533" y="297"/>
      <point x="533" y="322" type="curve"/>
      <point x="72" y="322" type="line"/>
      <point x="72" y="297"/>
      <point x="72" y="322"/>
    </contour>
    <contour>
      <point x="316" y="18" type="curve"/>
      <point x="316" y="588" type="line"/>
      <point x="291" y="588"/>
      <point x="316" y="588"/>
      <point x="291" y="588" type="curve"/>
      <point x="291" y="18" type="line"/>
      <point x="316" y="18"/>
      <point x="291" y="18"/>
    </contour>
  </outline>
</glyph>
<glyph name="twosuperior" format="1">
  <advance width="364"/>
  <unicode hex="00B2"/>
  <outline>
    <contour>
      <point x="277" y="278" type="curve"/>
      <point x="277" y="315"/>
      <point x="277" y="318"/>
      <point x="277" y="356" type="curve"/>
      <point x="254" y="356"/>
      <point x="277" y="356"/>
      <point x="254" y="356" type="curve"/>
      <point x="254" y="326"/>
      <point x="254" y="331"/>
      <point x="254" y="301" type="curve"/>
      <point x="277" y="278"/>
      <point x="254" y="301"/>
    </contour>
    <contour>
      <point x="79" y="278" type="curve"/>
      <point x="144" y="278"/>
      <point x="211" y="278"/>
      <point x="277" y="278" type="curve"/>
      <point x="254" y="301"/>
      <point x="277" y="278"/>
      <point x="254" y="301" type="curve"/>
      <point x="196" y="301"/>
      <point x="137" y="301"/>
      <point x="79" y="301" type="curve"/>
      <point x="79" y="278"/>
      <point x="79" y="301"/>
    </contour>
    <contour>
      <point x="119" y="595" type="curve"/>
      <point x="131" y="635"/>
      <point x="143" y="670"/>
      <point x="183" y="670" type="curve"/>
      <point x="228" y="670"/>
      <point x="242" y="625"/>
      <point x="242" y="573" type="curve"/>
      <point x="242" y="525"/>
      <point x="223" y="493"/>
      <point x="196" y="453" type="curve"/>
      <point x="157" y="402"/>
      <point x="118" y="351"/>
      <point x="79" y="301" type="curve"/>
      <point x="90" y="278"/>
      <point x="79" y="301"/>
      <point x="90" y="278" type="curve"/>
      <point x="131" y="331"/>
      <point x="172" y="383"/>
      <point x="213" y="436" type="curve"/>
      <point x="244" y="481"/>
      <point x="266" y="517"/>
      <point x="266" y="574" type="curve"/>
      <point x="266" y="639"/>
      <point x="241" y="693"/>
      <point x="184" y="693" type="curve"/>
      <point x="136" y="693"/>
      <point x="113" y="657"/>
      <point x="99" y="604" type="curve"/>
      <point x="119" y="595"/>
      <point x="99" y="604"/>
    </contour>
    <contour>
      <point x="196" y="693" type="move" name="_top"/>
    </contour>
    <contour>
      <point x="170" y="277" type="move" name="_bottom"/>
    </contour>
  </outline>
</glyph>
<glyph name="threesuperior" format="1">
  <advance width="332"/>
  <unicode hex="00B3"/>
  <outline>
    <contour>
      <point x="105" y="628" type="curve"/>
      <point x="116" y="649"/>
      <point x="132" y="671"/>
      <point x="158" y="671" type="curve"/>
      <point x="201" y="671"/>
      <point x="219" y="633"/>
      <point x="219" y="586" type="curve"/>
      <point x="219" y="539"/>
      <point x="182" y="502"/>
      <point x="132" y="497" type="curve"/>
      <point x="132" y="478"/>
      <point x="132" y="497"/>
      <point x="132" y="478" type="curve"/>
      <point x="199" y="481"/>
      <point x="244" y="524"/>
      <point x="244" y="588" type="curve"/>
      <point x="244" y="648"/>
      <point x="217" y="693"/>
      <point x="161" y="693" type="curve"/>
      <point x="128" y="693"/>
      <point x="102" y="668"/>
      <point x="87" y="640" type="curve"/>
      <point x="105" y="628"/>
      <point x="87" y="640"/>
    </contour>
    <contour>
      <point x="84" y="307" type="curve"/>
      <point x="103" y="286"/>
      <point x="126" y="274"/>
      <point x="154" y="274" type="curve"/>
      <point x="218" y="270"/>
      <point x="254" y="319"/>
      <point x="253" y="386" type="curve"/>
      <point x="253" y="451"/>
      <point x="202" y="487"/>
      <point x="132" y="490" type="curve"/>
      <point x="132" y="474"/>
      <point x="132" y="490"/>
      <point x="132" y="474" type="curve"/>
      <point x="190" y="469"/>
      <point x="228" y="433"/>
      <point x="228" y="385" type="curve"/>
      <point x="227" y="334"/>
      <point x="204" y="294"/>
      <point x="157" y="296" type="curve"/>
      <point x="133" y="296"/>
      <point x="114" y="307"/>
      <point x="96" y="324" type="curve"/>
      <point x="84" y="307"/>
      <point x="96" y="324"/>
    </contour>
    <contour>
      <point x="186" y="693" type="move" name="_top"/>
    </contour>
    <contour>
      <point x="167" y="274" type="move" name="_bottom"/>
    </contour>
  </outline>
</glyph>
<glyph name="acute" format="1">
  <advance width="150"/>
  <unicode hex="00B4"/>
  <outline>
    <contour>
      <point x="30" y="590" type="line"/>
      <point x="85" y="756" type="line"/>
      <point x="54" y="756" type="line"/>
      <point x="6" y="590" type="line"/>
    </contour>
    <contour>
      <point x="19" y="590" type="move" name="_top"/>
    </contour>
  </outline>
</glyph>
<glyph name="paragraph" format="1">
  <advance width="488"/>
  <unicode hex="00B6"/>
  <outline>
    <contour>
      <point x="276" y="699" type="curve"/>
      <point x="398" y="699"/>
      <point x="276" y="699"/>
      <point x="398" y="699" type="curve"/>
      <point x="398" y="722"/>
      <point x="398" y="699"/>
      <point x="398" y="722" type="curve"/>
      <point x="357" y="722"/>
      <point x="317" y="722"/>
      <point x="276" y="722" type="curve"/>
      <point x="276" y="699"/>
      <point x="276" y="722"/>
    </contour>
    <contour>
      <point x="276" y="0" type="curve"/>
      <point x="317" y="0"/>
      <point x="357" y="0"/>
      <point x="398" y="0" type="curve"/>
      <point x="398" y="23"/>
      <point x="398" y="0"/>
      <point x="398" y="23" type="curve"/>
      <point x="276" y="23"/>
      <point x="398" y="23"/>
      <point x="276" y="23" type="curve"/>
      <point x="276" y="0"/>
      <point x="276" y="23"/>
    </contour>
    <contour>
      <point x="276" y="23" type="curve"/>
      <point x="188" y="23"/>
      <point x="276" y="23"/>
      <point x="188" y="23" type="curve"/>
      <point x="188" y="0"/>
      <point x="188" y="23"/>
      <point x="188" y="0" type="curve"/>
      <point x="276" y="0"/>
      <point x="247" y="0"/>
      <point x="276" y="0" type="curve"/>
      <point x="276" y="23"/>
      <point x="276" y="0"/>
    </contour>
    <contour>
      <point x="271" y="346" type="curve"/>
      <point x="243" y="321"/>
      <point x="220" y="304"/>
      <point x="182" y="304" type="curve"/>
      <point x="98" y="304"/>
      <point x="71" y="392"/>
      <point x="71" y="493" type="curve"/>
      <point x="71" y="602"/>
      <point x="104" y="699"/>
      <point x="200" y="699" type="curve"/>
      <point x="224" y="699"/>
      <point x="249" y="699"/>
      <point x="274" y="699" type="curve"/>
      <point x="274" y="722"/>
      <point x="274" y="699"/>
      <point x="274" y="722" type="curve"/>
      <point x="248" y="722"/>
      <point x="222" y="722"/>
      <point x="196" y="722" type="curve"/>
      <point x="88" y="722"/>
      <point x="46" y="616"/>
      <point x="46" y="494" type="curve"/>
      <point x="46" y="372"/>
      <point x="83" y="282"/>
      <point x="183" y="280" type="curve"/>
      <point x="221" y="280"/>
      <point x="253" y="300"/>
      <point x="279" y="325" type="curve"/>
      <point x="271" y="345"/>
      <point x="279" y="326"/>
    </contour>
    <contour>
      <point x="289" y="0" type="curve"/>
      <point x="289" y="241"/>
      <point x="289" y="481"/>
      <point x="289" y="722" type="curve"/>
      <point x="264" y="722"/>
      <point x="289" y="722"/>
      <point x="264" y="722" type="curve"/>
      <point x="264" y="481"/>
      <point x="264" y="241"/>
      <point x="264" y="0" type="curve"/>
      <point x="289" y="0"/>
      <point x="264" y="0"/>
    </contour>
    <contour>
      <point x="406" y="0" type="curve"/>
      <point x="406" y="241"/>
      <point x="406" y="481"/>
      <point x="406" y="722" type="curve"/>
      <point x="381" y="722"/>
      <point x="406" y="722"/>
      <point x="381" y="722" type="curve"/>
      <point x="381" y="481"/>
      <point x="381" y="241"/>
      <point x="381" y="0" type="curve"/>
      <point x="406" y="0"/>
      <point x="381" y="0"/>
    </contour>
  </outline>
</glyph>
<glyph name="periodcentered" format="1">
  <advance width="206"/>
  <unicode hex="00B7"/>
  <outline>
    <contour>
      <point x="121" y="440" type="curve"/>
      <point x="121" y="451"/>
      <point x="114" y="457"/>
      <point x="102" y="457" type="curve"/>
      <point x="91" y="457"/>
      <point x="85" y="450"/>
      <point x="85" y="440" type="curve"/>
      <point x="124" y="440"/>
      <point x="81" y="440"/>
      <point x="121" y="440" type="curve"/>
      <point x="121" y="429"/>
      <point x="114" y="423"/>
      <point x="102" y="423" type="curve"/>
      <point x="91" y="423"/>
      <point x="85" y="429"/>
      <point x="85" y="440" type="curve"/>
      <point x="124" y="440"/>
      <point x="81" y="440"/>
    </contour>
  </outline>
</glyph>
<glyph name="cedilla" format="1">
  <advance width="271"/>
  <unicode hex="00B8"/>
  <outline>
    <contour>
      <point x="94" y="18" type="curve"/>
      <point x="85" y="-8"/>
      <point x="76" y="-36"/>
      <point x="67" y="-62" type="curve"/>
      <point x="85" y="-81"/>
      <point x="67" y="-62"/>
      <point x="85" y="-81" type="curve"/>
      <point x="94" y="-53"/>
      <point x="105" y="-24"/>
      <point x="113" y="3" type="curve"/>
      <point x="94" y="18"/>
      <point x="113" y="3"/>
    </contour>
    <contour>
      <point x="85" y="-81" type="curve"/>
      <point x="92" y="-72"/>
      <point x="98" y="-68"/>
      <point x="109" y="-68" type="curve"/>
      <point x="133" y="-68"/>
      <point x="135" y="-95"/>
      <point x="135" y="-124" type="curve"/>
      <point x="135" y="-154"/>
      <point x="127" y="-179"/>
      <point x="101" y="-179" type="curve"/>
      <point x="85" y="-179"/>
      <point x="73" y="-175"/>
      <point x="61" y="-162" type="curve"/>
      <point x="51" y="-180"/>
      <point x="61" y="-162"/>
      <point x="51" y="-180" type="curve"/>
      <point x="65" y="-195"/>
      <point x="79" y="-202"/>
      <point x="100" y="-202" type="curve"/>
      <point x="141" y="-202"/>
      <point x="161" y="-168"/>
      <point x="161" y="-124" type="curve"/>
      <point x="161" y="-81"/>
      <point x="147" y="-45"/>
      <point x="111" y="-45" type="curve"/>
      <point x="93" y="-45"/>
      <point x="81" y="-51"/>
      <point x="67" y="-62" type="curve"/>
      <point x="85" y="-81"/>
      <point x="67" y="-62"/>
    </contour>
    <contour>
      <point x="114" y="3" type="move" name="_bottom"/>
    </contour>
  </outline>
</glyph>
<glyph name="onesuperior" format="1">
  <advance width="292"/>
  <unicode hex="00B9"/>
  <outline>
    <contour>
      <point x="162" y="278" type="curve"/>
      <point x="193" y="278"/>
      <point x="192" y="278"/>
      <point x="223" y="278" type="curve"/>
      <point x="223" y="301"/>
      <point x="223" y="278"/>
      <point x="223" y="301" type="curve"/>
      <point x="200" y="301"/>
      <point x="210" y="301"/>
      <point x="187" y="301" type="curve"/>
      <point x="162" y="278"/>
      <point x="187" y="301"/>
    </contour>
    <contour>
      <point x="187" y="301" type="curve"/>
      <point x="155" y="301"/>
      <point x="156" y="301"/>
      <point x="124" y="301" type="curve"/>
      <point x="124" y="278"/>
      <point x="124" y="301"/>
      <point x="124" y="278" type="curve"/>
      <point x="148" y="278"/>
      <point x="138" y="278"/>
      <point x="162" y="278" type="curve"/>
      <point x="187" y="301"/>
      <point x="162" y="278"/>
    </contour>
    <contour>
      <point x="99" y="555" type="line"/>
      <point x="184" y="675" type="line"/>
      <point x="162" y="684" type="line"/>
      <point x="79" y="570" type="line"/>
    </contour>
    <contour>
      <point x="187" y="301" type="curve"/>
      <point x="187" y="684" type="line"/>
      <point x="162" y="684" type="line"/>
      <point x="162" y="278" type="line"/>
      <point x="187" y="301"/>
      <point x="162" y="278"/>
    </contour>
    <contour>
      <point x="175" y="681" type="move" name="_top"/>
    </contour>
    <contour>
      <point x="177" y="283" type="move" name="_bottom"/>
    </contour>
  </outline>
</glyph>
<glyph name="ordmasculine" format="1">
  <advance width="327"/>
  <unicode hex="00BA"/>
  <outline>
    <contour>
      <point x="102" y="607" type="curve"/>
      <point x="102" y="681"/>
      <point x="108" y="743"/>
      <point x="166" y="743" type="curve"/>
      <point x="221" y="743"/>
      <point x="225" y="679"/>
      <point x="225" y="605" type="curve"/>
      <point x="225" y="521"/>
      <point x="220" y="449"/>
      <point x="169" y="449" type="curve"/>
      <point x="104" y="449"/>
      <point x="102" y="524"/>
      <point x="102" y="607" type="curve"/>
      <point x="76" y="607"/>
      <point x="103" y="607"/>
      <point x="77" y="607" type="curve"/>
      <point x="77" y="509"/>
      <point x="88" y="426"/>
      <point x="168" y="426" type="curve"/>
      <point x="239" y="426"/>
      <point x="250" y="508"/>
      <point x="250" y="605" type="curve"/>
      <point x="250" y="692"/>
      <point x="240" y="764"/>
      <point x="167" y="764" type="curve"/>
      <point x="89" y="764"/>
      <point x="77" y="692"/>
      <point x="77" y="607" type="curve"/>
      <point x="103" y="607"/>
      <point x="76" y="607"/>
    </contour>
  </outline>
</glyph>
<glyph name="guillemotright" format="1">
  <advance width="472"/>
  <unicode hex="00BB"/>
  <outline>
    <contour>
      <point x="232" y="401" type="curve"/>
      <point x="233" y="401"/>
      <point x="397" y="289"/>
      <point x="398" y="289" type="curve"/>
      <point x="398" y="264"/>
      <point x="398" y="288"/>
      <point x="398" y="263" type="curve"/>
      <point x="397" y="264"/>
      <point x="233" y="376"/>
      <point x="232" y="376" type="curve"/>
      <point x="232" y="401"/>
      <point x="232" y="376"/>
    </contour>
    <contour>
      <point x="231" y="176" type="curve"/>
      <point x="232" y="176"/>
      <point x="397" y="288"/>
      <point x="398" y="289" type="curve"/>
      <point x="398" y="264"/>
      <point x="398" y="288"/>
      <point x="398" y="263" type="curve"/>
      <point x="397" y="263"/>
      <point x="232" y="152"/>
      <point x="231" y="152" type="curve"/>
      <point x="231" y="176"/>
      <point x="231" y="152"/>
    </contour>
    <contour>
      <point x="95" y="401" type="curve"/>
      <point x="260" y="289" type="line"/>
      <point x="260" y="264"/>
      <point x="260" y="288"/>
      <point x="260" y="263" type="curve"/>
      <point x="260" y="264"/>
      <point x="95" y="376"/>
      <point x="95" y="376" type="curve"/>
      <point x="95" y="401"/>
      <point x="95" y="376"/>
    </contour>
    <contour>
      <point x="94" y="176" type="curve"/>
      <point x="94" y="176"/>
      <point x="260" y="288"/>
      <point x="260" y="289" type="curve"/>
      <point x="260" y="264"/>
      <point x="260" y="288"/>
      <point x="260" y="263" type="curve"/>
      <point x="94" y="152" type="line"/>
      <point x="94" y="176"/>
      <point x="94" y="152"/>
    </contour>
  </outline>
</glyph>
<glyph name="onequarter" format="1">
  <advance width="571"/>
  <unicode hex="00BC"/>
  <outline>
    <contour>
      <point x="167" y="-92" type="line"/>
      <point x="425" y="757" type="line"/>
      <point x="396" y="757" type="line"/>
      <point x="139" y="-92" type="line"/>
    </contour>
    <contour>
      <point x="127" y="357" type="curve"/>
      <point x="159" y="357"/>
      <point x="157" y="357"/>
      <point x="189" y="357" type="curve"/>
      <point x="189" y="380"/>
      <point x="189" y="357"/>
      <point x="189" y="380" type="curve"/>
      <point x="166" y="380"/>
      <point x="176" y="380"/>
      <point x="152" y="380" type="curve"/>
      <point x="127" y="357"/>
      <point x="152" y="380"/>
    </contour>
    <contour>
      <point x="152" y="380" type="curve"/>
      <point x="121" y="380"/>
      <point x="121" y="380"/>
      <point x="89" y="380" type="curve"/>
      <point x="89" y="357"/>
      <point x="89" y="380"/>
      <point x="89" y="357" type="curve"/>
      <point x="113" y="357"/>
      <point x="103" y="357"/>
      <point x="127" y="357" type="curve"/>
      <point x="152" y="380"/>
      <point x="127" y="357"/>
    </contour>
    <contour>
      <point x="64" y="635" type="line"/>
      <point x="150" y="754" type="line"/>
      <point x="127" y="763" type="line"/>
      <point x="45" y="650" type="line"/>
    </contour>
    <contour>
      <point x="152" y="380" type="curve"/>
      <point x="152" y="763" type="line"/>
      <point x="127" y="763" type="line"/>
      <point x="127" y="357" type="line"/>
      <point x="152" y="380"/>
      <point x="127" y="357"/>
    </contour>
    <contour>
      <point x="548" y="48" type="line"/>
      <point x="297" y="48" type="line"/>
      <point x="297" y="27" type="line"/>
      <point x="548" y="27" type="line"/>
    </contour>
    <contour>
      <point x="311" y="27" type="line"/>
      <point x="467" y="333" type="line"/>
      <point x="444" y="342" type="line"/>
      <point x="297" y="48" type="line"/>
    </contour>
    <contour>
      <point x="467" y="-89" type="line"/>
      <point x="467" y="342" type="line"/>
      <point x="444" y="342" type="line"/>
      <point x="444" y="-89" type="line"/>
    </contour>
    <contour>
      <point x="455" y="-69" type="line"/>
      <point x="385" y="-69" type="line"/>
      <point x="385" y="-90" type="line"/>
      <point x="455" y="-90" type="line"/>
    </contour>
    <contour>
      <point x="455" y="-90" type="line"/>
      <point x="530" y="-90" type="line"/>
      <point x="530" y="-69" type="line"/>
      <point x="455" y="-69" type="line"/>
    </contour>
  </outline>
</glyph>
<glyph name="onehalf" format="1">
  <advance width="594"/>
  <unicode hex="00BD"/>
  <outline>
    <contour>
      <point x="178" y="-92" type="line"/>
      <point x="436" y="757" type="line"/>
      <point x="407" y="757" type="line"/>
      <point x="150" y="-92" type="line"/>
    </contour>
    <contour>
      <point x="124" y="357" type="curve"/>
      <point x="156" y="357"/>
      <point x="155" y="357"/>
      <point x="186" y="357" type="curve"/>
      <point x="186" y="380"/>
      <point x="186" y="357"/>
      <point x="186" y="380" type="curve"/>
      <point x="163" y="380"/>
      <point x="173" y="380"/>
      <point x="149" y="380" type="curve"/>
      <point x="124" y="357"/>
      <point x="149" y="380"/>
    </contour>
    <contour>
      <point x="149" y="380" type="curve"/>
      <point x="118" y="380"/>
      <point x="119" y="380"/>
      <point x="86" y="380" type="curve"/>
      <point x="86" y="357"/>
      <point x="86" y="380"/>
      <point x="86" y="357" type="curve"/>
      <point x="110" y="357"/>
      <point x="100" y="357"/>
      <point x="124" y="357" type="curve"/>
      <point x="149" y="380"/>
      <point x="124" y="357"/>
    </contour>
    <contour>
      <point x="61" y="635" type="line"/>
      <point x="147" y="754" type="line"/>
      <point x="124" y="763" type="line"/>
      <point x="42" y="650" type="line"/>
    </contour>
    <contour>
      <point x="149" y="380" type="curve"/>
      <point x="149" y="763" type="line"/>
      <point x="124" y="763" type="line"/>
      <point x="124" y="357" type="line"/>
      <point x="149" y="380"/>
      <point x="124" y="357"/>
    </contour>
    <contour>
      <point x="551" y="-90" type="curve"/>
      <point x="551" y="-53"/>
      <point x="551" y="-51"/>
      <point x="551" y="-12" type="curve"/>
      <point x="529" y="-12"/>
      <point x="552" y="-12"/>
      <point x="529" y="-12" type="curve"/>
      <point x="529" y="-42"/>
      <point x="529" y="-37"/>
      <point x="529" y="-68" type="curve"/>
      <point x="552" y="-90"/>
      <point x="529" y="-68"/>
    </contour>
    <contour>
      <point x="354" y="-90" type="curve"/>
      <point x="419" y="-90"/>
      <point x="486" y="-90"/>
      <point x="551" y="-90" type="curve"/>
      <point x="529" y="-68"/>
      <point x="552" y="-90"/>
      <point x="529" y="-68" type="curve"/>
      <point x="471" y="-68"/>
      <point x="412" y="-68"/>
      <point x="354" y="-68" type="curve"/>
      <point x="354" y="-91"/>
      <point x="354" y="-68"/>
    </contour>
    <contour>
      <point x="394" y="227" type="curve"/>
      <point x="406" y="266"/>
      <point x="418" y="302"/>
      <point x="458" y="302" type="curve"/>
      <point x="502" y="302"/>
      <point x="517" y="257"/>
      <point x="517" y="204" type="curve"/>
      <point x="517" y="157"/>
      <point x="498" y="124"/>
      <point x="471" y="85" type="curve"/>
      <point x="432" y="34"/>
      <point x="393" y="-17"/>
      <point x="354" y="-68" type="curve"/>
      <point x="365" y="-91"/>
      <point x="354" y="-68"/>
      <point x="365" y="-91" type="curve"/>
      <point x="406" y="-38"/>
      <point x="447" y="14"/>
      <point x="487" y="67" type="curve"/>
      <point x="519" y="113"/>
      <point x="541" y="149"/>
      <point x="541" y="205" type="curve"/>
      <point x="541" y="271"/>
      <point x="516" y="325"/>
      <point x="459" y="325" type="curve"/>
      <point x="411" y="325"/>
      <point x="387" y="289"/>
      <point x="373" y="236" type="curve"/>
      <point x="394" y="227"/>
      <point x="373" y="236"/>
    </contour>
  </outline>
</glyph>
<glyph name="threequarters" format="1">
  <advance width="594"/>
  <unicode hex="00BE"/>
  <outline>
    <contour>
      <point x="190" y="-92" type="line"/>
      <point x="448" y="757" type="line"/>
      <point x="419" y="757" type="line"/>
      <point x="162" y="-92" type="line"/>
    </contour>
    <contour>
      <point x="70" y="694" type="curve"/>
      <point x="81" y="715"/>
      <point x="97" y="738"/>
      <point x="123" y="738" type="curve"/>
      <point x="165" y="738"/>
      <point x="183" y="700"/>
      <point x="183" y="652" type="curve"/>
      <point x="183" y="606"/>
      <point x="147" y="569"/>
      <point x="97" y="564" type="curve"/>
      <point x="97" y="544"/>
      <point x="97" y="564"/>
      <point x="97" y="544" type="curve"/>
      <point x="163" y="547"/>
      <point x="208" y="590"/>
      <point x="208" y="654" type="curve"/>
      <point x="208" y="715"/>
      <point x="182" y="760"/>
      <point x="126" y="760" type="curve" name=""/>
      <point x="93" y="760"/>
      <point x="66" y="735"/>
      <point x="52" y="707" type="curve"/>
      <point x="70" y="694"/>
      <point x="52" y="707"/>
    </contour>
    <contour>
      <point x="48" y="374" type="curve"/>
      <point x="68" y="353"/>
      <point x="90" y="340"/>
      <point x="118" y="340" type="curve"/>
      <point x="182" y="336"/>
      <point x="219" y="385"/>
      <point x="218" y="453" type="curve"/>
      <point x="218" y="517"/>
      <point x="166" y="554"/>
      <point x="97" y="557" type="curve"/>
      <point x="97" y="540"/>
      <point x="97" y="557"/>
      <point x="97" y="540" type="curve"/>
      <point x="155" y="535"/>
      <point x="193" y="499"/>
      <point x="193" y="452" type="curve"/>
      <point x="192" y="401"/>
      <point x="168" y="360"/>
      <point x="121" y="362" type="curve"/>
      <point x="98" y="362"/>
      <point x="78" y="374"/>
      <point x="61" y="390" type="curve"/>
      <point x="48" y="374"/>
      <point x="61" y="390"/>
    </contour>
    <contour>
      <point x="571" y="48" type="line"/>
      <point x="320" y="48" type="line"/>
      <point x="320" y="27" type="line"/>
      <point x="571" y="27" type="line"/>
    </contour>
    <contour>
      <point x="334" y="27" type="line"/>
      <point x="490" y="333" type="line"/>
      <point x="467" y="342" type="line"/>
      <point x="320" y="48" type="line"/>
    </contour>
    <contour>
      <point x="491" y="-89" type="line"/>
      <point x="491" y="342" type="line"/>
      <point x="467" y="342" type="line"/>
      <point x="467" y="-89" type="line"/>
    </contour>
    <contour>
      <point x="478" y="-69" type="line"/>
      <point x="408" y="-69" type="line"/>
      <point x="408" y="-90" type="line"/>
      <point x="478" y="-90" type="line"/>
    </contour>
    <contour>
      <point x="478" y="-90" type="line"/>
      <point x="553" y="-90" type="line"/>
      <point x="553" y="-69" type="line"/>
      <point x="478" y="-69" type="line"/>
    </contour>
  </outline>
</glyph>
<glyph name="questiondown" format="1">
  <advance width="370"/>
  <unicode hex="00BF"/>
  <outline>
    <contour>
      <point x="208" y="374" type="curve"/>
      <point x="208" y="411"/>
      <point x="208" y="451"/>
      <point x="208" y="488" type="curve"/>
      <point x="183" y="488"/>
      <point x="208" y="488"/>
      <point x="183" y="488" type="curve"/>
      <point x="183" y="451"/>
      <point x="183" y="411"/>
      <point x="183" y="374" type="curve"/>
      <point x="208" y="374"/>
      <point x="183" y="374"/>
    </contour>
    <contour>
      <point x="288" y="89" type="line"/>
      <point x="272" y="53"/>
      <point x="245" y="22"/>
      <point x="197" y="22" type="curve"/>
      <point x="116" y="22"/>
      <point x="91" y="101"/>
      <point x="91" y="189" type="curve"/>
      <point x="91" y="286"/>
      <point x="118" y="374"/>
      <point x="202" y="374" type="curve"/>
      <point x="202" y="399"/>
      <point x="202" y="372"/>
      <point x="202" y="398" type="curve"/>
      <point x="103" y="398"/>
      <point x="64" y="300"/>
      <point x="64" y="189" type="curve"/>
      <point x="64" y="88"/>
      <point x="103" y="-2"/>
      <point x="195" y="-2" type="curve"/>
      <point x="258" y="-2"/>
      <point x="288" y="34"/>
      <point x="307" y="77" type="curve"/>
    </contour>
    <contour>
      <point x="177" y="696" type="curve"/>
      <point x="177" y="684"/>
      <point x="185" y="678"/>
      <point x="196" y="678" type="curve"/>
      <point x="208" y="678"/>
      <point x="214" y="685"/>
      <point x="214" y="696" type="curve"/>
      <point x="177" y="696"/>
      <point x="214" y="696"/>
      <point x="177" y="696" type="curve"/>
      <point x="177" y="707"/>
      <point x="185" y="714"/>
      <point x="196" y="714" type="curve"/>
      <point x="208" y="714"/>
      <point x="214" y="708"/>
      <point x="214" y="696" type="curve"/>
      <point x="177" y="696"/>
      <point x="214" y="696"/>
    </contour>
  </outline>
</glyph>
<glyph name="Acircumflex" format="1">
  <advance width="532"/>
  <unicode hex="00C2"/>
  <outline>
    <contour>
      <point x="83" y="23" type="curve"/>
      <point x="-46" y="23"/>
      <point x="105" y="23"/>
      <point x="-23" y="23" type="curve"/>
      <point x="-23" y="0"/>
      <point x="-23" y="23"/>
      <point x="-23" y="0" type="curve"/>
      <point x="20" y="0"/>
      <point x="40" y="0"/>
      <point x="83" y="0" type="curve"/>
      <point x="83" y="23"/>
      <point x="83" y="0"/>
    </contour>
    <contour>
      <point x="83" y="0" type="curve"/>
      <point x="127" y="0"/>
      <point x="60" y="0"/>
      <point x="193" y="0" type="curve"/>
      <point x="193" y="23"/>
      <point x="193" y="0"/>
      <point x="193" y="23" type="curve"/>
      <point x="60" y="23"/>
      <point x="216" y="23"/>
      <point x="83" y="23" type="curve"/>
      <point x="83" y="0"/>
      <point x="83" y="23"/>
    </contour>
    <contour>
      <point x="413" y="0" type="curve"/>
      <point x="455" y="0"/>
      <point x="475" y="0"/>
      <point x="518" y="0" type="curve"/>
      <point x="518" y="23"/>
      <point x="518" y="0"/>
      <point x="518" y="23" type="curve"/>
      <point x="390" y="23"/>
      <point x="541" y="23"/>
      <point x="413" y="23" type="curve"/>
      <point x="413" y="0"/>
      <point x="413" y="23"/>
    </contour>
    <contour>
      <point x="413" y="23" type="curve"/>
      <point x="278" y="23"/>
      <point x="435" y="23"/>
      <point x="301" y="23" type="curve"/>
      <point x="301" y="0"/>
      <point x="301" y="23"/>
      <point x="301" y="0" type="curve"/>
      <point x="346" y="0"/>
      <point x="368" y="0"/>
      <point x="413" y="0" type="curve"/>
      <point x="413" y="23"/>
      <point x="413" y="0"/>
    </contour>
    <contour>
      <point x="356" y="277" type="curve"/>
      <point x="286" y="277"/>
      <point x="218" y="277"/>
      <point x="149" y="277" type="curve"/>
      <point x="138" y="253"/>
      <point x="149" y="277"/>
      <point x="138" y="253" type="curve"/>
      <point x="214" y="253"/>
      <point x="289" y="253"/>
      <point x="364" y="253" type="curve"/>
      <point x="356" y="277"/>
      <point x="364" y="253"/>
    </contour>
    <contour>
      <point x="432" y="0" type="curve"/>
      <point x="378" y="241"/>
      <point x="323" y="481"/>
      <point x="269" y="722" type="curve"/>
      <point x="246" y="722"/>
      <point x="269" y="722"/>
      <point x="246" y="722" type="curve"/>
      <point x="299" y="481"/>
      <point x="352" y="241"/>
      <point x="406" y="0" type="curve"/>
      <point x="432" y="0"/>
      <point x="406" y="0"/>
    </contour>
    <contour>
      <point x="89" y="0" type="curve"/>
      <point x="149" y="241"/>
      <point x="208" y="481"/>
      <point x="267" y="722" type="curve"/>
      <point x="244" y="722"/>
      <point x="267" y="722"/>
      <point x="244" y="722" type="curve"/>
      <point x="184" y="481"/>
      <point x="122" y="241"/>
      <point x="61" y="0" type="curve"/>
      <point x="89" y="0"/>
      <point x="61" y="0"/>
    </contour>
    <contour>
      <point x="212" y="825" type="line"/>
      <point x="266" y="991" type="line"/>
      <point x="235" y="991" type="line"/>
      <point x="187" y="825" type="line"/>
    </contour>
    <contour>
      <point x="325" y="825" type="line"/>
      <point x="277" y="991" type="line"/>
      <point x="246" y="991" type="line"/>
      <point x="301" y="825" type="line"/>
    </contour>
  </outline>
</glyph>
<glyph name="AE" format="1">
  <advance width="658"/>
  <unicode hex="00C6"/>
  <outline>
    <contour>
      <point x="73" y="23" type="curve"/>
      <point x="-28" y="23"/>
      <point x="83" y="23"/>
      <point x="-19" y="23" type="curve"/>
      <point x="-19" y="0"/>
      <point x="-19" y="23"/>
      <point x="-19" y="0" type="curve"/>
      <point x="16" y="0"/>
      <point x="39" y="0"/>
      <point x="73" y="0" type="curve"/>
      <point x="73" y="23"/>
      <point x="73" y="0"/>
    </contour>
    <contour>
      <point x="73" y="0" type="curve"/>
      <point x="109" y="0"/>
      <point x="56" y="0"/>
      <point x="162" y="0" type="curve"/>
      <point x="162" y="23"/>
      <point x="162" y="0"/>
      <point x="162" y="23" type="curve"/>
      <point x="56" y="23"/>
      <point x="179" y="23"/>
      <point x="73" y="23" type="curve"/>
      <point x="73" y="0"/>
      <point x="73" y="23"/>
    </contour>
    <contour>
      <point x="348" y="283" type="curve"/>
      <point x="279" y="283"/>
      <point x="248" y="283"/>
      <point x="179" y="283" type="curve"/>
      <point x="168" y="259"/>
      <point x="179" y="283"/>
      <point x="168" y="259" type="curve"/>
      <point x="244" y="259"/>
      <point x="281" y="259"/>
      <point x="356" y="259" type="curve"/>
      <point x="348" y="283"/>
      <point x="356" y="259"/>
    </contour>
    <contour>
      <point x="80" y="0" type="curve"/>
      <point x="359" y="722" type="line"/>
      <point x="335" y="722"/>
      <point x="359" y="722"/>
      <point x="336" y="722" type="curve"/>
      <point x="52" y="0" type="line"/>
      <point x="81" y="0"/>
      <point x="52" y="0"/>
    </contour>
    <contour>
      <point x="609" y="11" type="curve"/>
      <point x="609" y="131"/>
      <point x="609" y="0"/>
      <point x="609" y="120" type="curve"/>
      <point x="586" y="120"/>
      <point x="609" y="120"/>
      <point x="586" y="120" type="curve"/>
      <point x="586" y="0"/>
      <point x="586" y="131"/>
      <point x="586" y="11" type="curve"/>
      <point x="609" y="11"/>
      <point x="586" y="11"/>
    </contour>
    <contour>
      <point x="566" y="711" type="curve"/>
      <point x="566" y="591"/>
      <point x="566" y="722"/>
      <point x="566" y="602" type="curve"/>
      <point x="589" y="602"/>
      <point x="566" y="602"/>
      <point x="589" y="602" type="curve"/>
      <point x="589" y="722"/>
      <point x="589" y="591"/>
      <point x="589" y="711" type="curve"/>
      <point x="566" y="711"/>
      <point x="589" y="711"/>
    </contour>
    <contour>
      <point x="351" y="23" type="curve"/>
      <point x="224" y="23"/>
      <point x="373" y="23"/>
      <point x="247" y="23" type="curve"/>
      <point x="247" y="0"/>
      <point x="247" y="23"/>
      <point x="247" y="0" type="curve"/>
      <point x="289" y="0"/>
      <point x="309" y="0"/>
      <point x="351" y="0" type="curve"/>
      <point x="351" y="23"/>
      <point x="351" y="0"/>
    </contour>
    <contour>
      <point x="351" y="722" type="curve"/>
      <point x="309" y="722"/>
      <point x="289" y="722"/>
      <point x="247" y="722" type="curve"/>
      <point x="247" y="699"/>
      <point x="247" y="722"/>
      <point x="247" y="699" type="curve"/>
      <point x="373" y="699"/>
      <point x="224" y="699"/>
      <point x="351" y="699" type="curve"/>
      <point x="351" y="722"/>
      <point x="351" y="699"/>
    </contour>
    <contour>
      <point x="352" y="363" type="curve"/>
      <point x="419" y="363"/>
      <point x="484" y="363"/>
      <point x="551" y="363" type="curve"/>
      <point x="551" y="385"/>
      <point x="551" y="363"/>
      <point x="551" y="385" type="curve"/>
      <point x="484" y="385"/>
      <point x="419" y="385"/>
      <point x="352" y="385" type="curve"/>
      <point x="352" y="363"/>
      <point x="352" y="385"/>
    </contour>
    <contour>
      <point x="344" y="699" type="curve"/>
      <point x="426" y="699"/>
      <point x="507" y="699"/>
      <point x="589" y="699" type="curve"/>
      <point x="589" y="722"/>
      <point x="589" y="699"/>
      <point x="589" y="722" type="curve"/>
      <point x="507" y="722"/>
      <point x="426" y="722"/>
      <point x="344" y="722" type="curve"/>
      <point x="344" y="699"/>
      <point x="344" y="722"/>
    </contour>
    <contour>
      <point x="364" y="0" type="curve"/>
      <point x="364" y="722" type="line"/>
      <point x="338" y="722"/>
      <point x="364" y="722"/>
      <point x="338" y="722" type="curve"/>
      <point x="338" y="481"/>
      <point x="338" y="241"/>
      <point x="338" y="0" type="curve"/>
      <point x="364" y="0"/>
      <point x="338" y="0"/>
    </contour>
    <contour>
      <point x="344" y="0" type="curve"/>
      <point x="433" y="0"/>
      <point x="521" y="0"/>
      <point x="609" y="0" type="curve"/>
      <point x="609" y="23"/>
      <point x="609" y="0"/>
      <point x="609" y="23" type="curve"/>
      <point x="521" y="23"/>
      <point x="433" y="23"/>
      <point x="344" y="23" type="curve"/>
      <point x="344" y="0"/>
      <point x="344" y="23"/>
    </contour>
  </outline>
</glyph>
